<!-- Created with Inkscape (http://www.inkscape.org/) -->
<svg xmlns:rdf="http://www.w3.org/1999/02/22-rdf-syntax-ns#" xmlns="http://www.w3.org/2000/svg" version="1.1" xmlns:cc="http://creativecommons.org/ns#" xmlns:dc="http://purl.org/dc/elements/1.1/" viewBox="0 0 1800 450.81" preserveAspectRatio="none">
	<metadata>
		<rdf:RDF>
			<cc:Work rdf:about="">
				<dc:format>image/svg+xml</dc:format>
				<dc:type rdf:resource="http://purl.org/dc/dcmitype/StillImage"/>
				<dc:title/>
			</cc:Work>
		</rdf:RDF>
	</metadata>
	<g fill-rule="nonzero" transform="translate(614.28571,-306.95593)">
		<path style="enable-background:accumulate;color:#000000;" d="m250.93,306.96-69.031,38.875,0,243.97-31.406,0,0-240.75-69,39,0,248.41-127.56,0,0-94.75-73.25,0,0,97.562-58.281,0,0-193.72-73.25,0,0,106.06-137.16,0,0,53.719-100.72,0,0-77.781-125.56-49.5,0,279.72,110.31,0,15.25,0,110.31,0,149.91,0,50.906,0,65.062,0,66.469,0,138.59,0,57.969,0,38.188,0,62.25,0,41,0,118.78,0,118.81,0,155.56,0,79.188,0,49.5,0,52.312,0,52.344,0,52.312,0,70.719,0,84.844,0,59.406,0,0-119-59.406,0,0-40.5-97.281,0,0,22.625-58.281,0,0-125.88-56.281,0,0,29.719-52.312,0,0,45.25-48.375,0,0-145.66-56.281,0,0,144.25-87.687,0,0,73.531-140.28,0,0-149.91-40-36.75-4.3517-0.3125-3.2188-5.5313,0-34.281-2,0,0,34.094-3.2188,5.5937-20.625-0.2813-53.586,37.469,0,84.844-110.59,0,0-41-41,0z" fill="#001240"/>
		<rect style="enable-background:accumulate;color:#000000;" height="13.25" width="9.5" y="396.3" x="89.714" fill="#ebebaf"/>
		<rect style="enable-background:accumulate;color:#000000;" height="13.25" width="9.5" y="396.3" x="104.09" fill="#ebebaf"/>
		<rect style="enable-background:accumulate;color:#000000;" height="13.25" width="9.5" y="396.3" x="132.85" fill="#ebebaf"/>
		<rect style="enable-background:accumulate;color:#000000;" height="13.25" width="9.5" y="418.28" x="89.714" fill="#ebebaf"/>
		<rect style="enable-background:accumulate;color:#000000;" height="13.25" width="9.5" y="418.28" x="118.47" fill="#ebebaf"/>
		<rect style="enable-background:accumulate;color:#000000;" height="13.25" width="9.5" y="418.28" x="132.85" fill="#ebebaf"/>
		<rect style="enable-background:accumulate;color:#000000;" height="13.25" width="9.5" y="440.26" x="89.714" fill="#ebebaf"/>
		<rect style="enable-background:accumulate;color:#000000;" height="13.25" width="9.5" y="440.26" x="104.09" fill="#ebebaf"/>
		<rect style="enable-background:accumulate;color:#000000;" height="13.25" width="9.5" y="440.26" x="118.47" fill="#ebebaf"/>
		<rect style="enable-background:accumulate;color:#000000;" height="13.25" width="9.5" y="440.26" x="132.85" fill="#ebebaf"/>
		<rect style="enable-background:accumulate;color:#000000;" height="13.25" width="9.5" y="462.24" x="89.714" fill="#ebebaf"/>
		<rect style="enable-background:accumulate;color:#000000;" height="13.25" width="9.5" y="462.24" x="118.47" fill="#ebebaf"/>
		<rect style="enable-background:accumulate;color:#000000;" height="13.25" width="9.5" y="484.23" x="89.714" fill="#ebebaf"/>
		<rect style="enable-background:accumulate;color:#000000;" height="13.25" width="9.5" y="484.23" x="118.47" fill="#ebebaf"/>
		<rect style="enable-background:accumulate;color:#000000;" height="13.25" width="9.5" y="484.23" x="132.85" fill="#ebebaf"/>
		<rect style="enable-background:accumulate;color:#000000;" height="13.25" width="9.5" y="506.21" x="89.714" fill="#ebebaf"/>
		<rect style="enable-background:accumulate;color:#000000;" height="13.25" width="9.5" y="506.21" x="104.09" fill="#ebebaf"/>
		<rect style="enable-background:accumulate;color:#000000;" height="13.25" width="9.5" y="506.21" x="118.47" fill="#ebebaf"/>
		<rect style="enable-background:accumulate;color:#000000;" height="13.25" width="9.5" y="528.19" x="89.714" fill="#ebebaf"/>
		<rect style="enable-background:accumulate;color:#000000;" height="13.25" width="9.5" y="528.19" x="118.47" fill="#ebebaf"/>
		<rect style="enable-background:accumulate;color:#000000;" height="13.25" width="9.5" y="528.19" x="132.85" fill="#ebebaf"/>
		<rect style="enable-background:accumulate;color:#000000;" height="13.25" width="9.5" y="550.17" x="104.09" fill="#ebebaf"/>
		<rect style="enable-background:accumulate;color:#000000;" height="13.25" width="9.5" y="550.17" x="118.47" fill="#ebebaf"/>
		<rect style="enable-background:accumulate;color:#000000;" height="13.25" width="9.5" y="550.17" x="132.85" fill="#ebebaf"/>
		<rect style="enable-background:accumulate;color:#000000;" height="13.25" width="9.5" y="572.15" x="89.714" fill="#ebebaf"/>
		<rect style="enable-background:accumulate;color:#000000;" height="13.25" width="9.5" y="572.15" x="104.09" fill="#ebebaf"/>
		<rect style="enable-background:accumulate;color:#000000;" height="13.25" width="9.5" y="572.15" x="132.85" fill="#ebebaf"/>
		<rect style="enable-background:accumulate;color:#000000;" height="13.25" width="9.5" y="396.3" x="204.5" fill="#ebebaf"/>
		<rect style="enable-background:accumulate;color:#000000;" height="13.25" width="9.5" y="396.3" x="218.88" fill="#ebebaf"/>
		<rect style="enable-background:accumulate;color:#000000;" height="13.25" width="9.5" y="396.3" x="233.26" fill="#ebebaf"/>
		<rect style="enable-background:accumulate;color:#000000;" height="13.25" width="9.5" y="418.28" x="190.12" fill="#ebebaf"/>
		<rect style="enable-background:accumulate;color:#000000;" height="13.25" width="9.5" y="418.28" x="204.5" fill="#ebebaf"/>
		<rect style="enable-background:accumulate;color:#000000;" height="13.25" width="9.5" y="418.28" x="218.88" fill="#ebebaf"/>
		<rect style="enable-background:accumulate;color:#000000;" height="13.25" width="9.5" y="418.28" x="233.26" fill="#ebebaf"/>
		<rect style="enable-background:accumulate;color:#000000;" height="13.25" width="9.5" y="440.26" x="190.12" fill="#ebebaf"/>
		<rect style="enable-background:accumulate;color:#000000;" height="13.25" width="9.5" y="440.26" x="204.5" fill="#ebebaf"/>
		<rect style="enable-background:accumulate;color:#000000;" height="13.25" width="9.5" y="440.26" x="233.26" fill="#ebebaf"/>
		<rect style="enable-background:accumulate;color:#000000;" height="13.25" width="9.5" y="462.24" x="190.12" fill="#ebebaf"/>
		<rect style="enable-background:accumulate;color:#000000;" height="13.25" width="9.5" y="462.24" x="218.88" fill="#ebebaf"/>
		<rect style="enable-background:accumulate;color:#000000;" height="13.25" width="9.5" y="462.24" x="233.26" fill="#ebebaf"/>
		<rect style="enable-background:accumulate;color:#000000;" height="13.25" width="9.5" y="484.23" x="190.12" fill="#ebebaf"/>
		<rect style="enable-background:accumulate;color:#000000;" height="13.25" width="9.5" y="484.23" x="218.88" fill="#ebebaf"/>
		<rect style="enable-background:accumulate;color:#000000;" height="13.25" width="9.5" y="506.21" x="190.12" fill="#ebebaf"/>
		<rect style="enable-background:accumulate;color:#000000;" height="13.25" width="9.5" y="506.21" x="204.5" fill="#ebebaf"/>
		<rect style="enable-background:accumulate;color:#000000;" height="13.25" width="9.5" y="506.21" x="218.88" fill="#ebebaf"/>
		<rect style="enable-background:accumulate;color:#000000;" height="13.25" width="9.5" y="506.21" x="233.26" fill="#ebebaf"/>
		<rect style="enable-background:accumulate;color:#000000;" height="13.25" width="9.5" y="528.19" x="204.5" fill="#ebebaf"/>
		<rect style="enable-background:accumulate;color:#000000;" height="13.25" width="9.5" y="528.19" x="233.26" fill="#ebebaf"/>
		<rect style="enable-background:accumulate;color:#000000;" height="13.25" width="9.5" y="550.17" x="190.12" fill="#ebebaf"/>
		<rect style="enable-background:accumulate;color:#000000;" height="13.25" width="9.5" y="550.17" x="204.5" fill="#ebebaf"/>
		<rect style="enable-background:accumulate;color:#000000;" height="13.25" width="9.5" y="550.17" x="218.88" fill="#ebebaf"/>
		<rect style="enable-background:accumulate;color:#000000;" height="13.25" width="9.5" y="550.17" x="233.26" fill="#ebebaf"/>
		<rect style="enable-background:accumulate;color:#000000;" height="13.25" width="9.5" y="572.15" x="190.12" fill="#ebebaf"/>
		<rect style="enable-background:accumulate;color:#000000;" height="13.25" width="9.5" y="572.15" x="218.88" fill="#ebebaf"/>
		<rect style="enable-background:accumulate;color:#000000;" height="13.25" width="9.5" y="353.17" x="190.12" fill="#ebebaf"/>
		<rect style="enable-background:accumulate;color:#000000;" height="13.25" width="9.5" y="353.17" x="204.5" fill="#ebebaf"/>
		<rect style="enable-background:accumulate;color:#000000;" height="13.25" width="9.5" y="353.17" x="233.26" fill="#ebebaf"/>
		<rect style="enable-background:accumulate;color:#000000;" height="13.25" width="9.5" y="375.15" x="190.12" fill="#ebebaf"/>
		<rect style="enable-background:accumulate;color:#000000;" height="13.25" width="9.5" y="375.15" x="218.88" fill="#ebebaf"/>
		<rect style="enable-background:accumulate;color:#000000;" height="13.25" width="9.5" y="459.24" x="-241.94" fill="#ebebaf"/>
		<rect style="enable-background:accumulate;color:#000000;" height="13.25" width="9.5" y="459.24" x="-213.19" fill="#ebebaf"/>
		<rect style="enable-background:accumulate;color:#000000;" height="13.25" width="9.5" y="459.24" x="-198.81" fill="#ebebaf"/>
		<rect style="enable-background:accumulate;color:#000000;" height="13.25" width="9.5" y="481.28" x="-241.94" fill="#ebebaf"/>
		<rect style="enable-background:accumulate;color:#000000;" height="13.25" width="9.5" y="481.28" x="-227.57" fill="#ebebaf"/>
		<rect style="enable-background:accumulate;color:#000000;" height="13.25" width="9.5" y="481.28" x="-198.81" fill="#ebebaf"/>
		<rect style="enable-background:accumulate;color:#000000;" height="13.25" width="9.5" y="503.33" x="-227.57" fill="#ebebaf"/>
		<rect style="enable-background:accumulate;color:#000000;" height="13.25" width="9.5" y="503.33" x="-213.19" fill="#ebebaf"/>
		<rect style="enable-background:accumulate;color:#000000;" height="13.25" width="9.5" y="503.33" x="-198.81" fill="#ebebaf"/>
		<rect style="enable-background:accumulate;color:#000000;" height="13.25" width="9.5" y="525.38" x="-241.94" fill="#ebebaf"/>
		<rect style="enable-background:accumulate;color:#000000;" height="13.25" width="9.5" y="525.38" x="-227.57" fill="#ebebaf"/>
		<rect style="enable-background:accumulate;color:#000000;" height="13.25" width="9.5" y="525.38" x="-213.19" fill="#ebebaf"/>
		<rect style="enable-background:accumulate;color:#000000;" height="13.25" width="9.5" y="547.42" x="-241.94" fill="#ebebaf"/>
		<rect style="enable-background:accumulate;color:#000000;" height="13.25" width="9.5" y="547.42" x="-213.19" fill="#ebebaf"/>
		<rect style="enable-background:accumulate;color:#000000;" height="13.25" width="9.5" y="547.42" x="-198.81" fill="#ebebaf"/>
		<rect style="enable-background:accumulate;color:#000000;" height="13.25" width="9.5" y="569.47" x="-241.94" fill="#ebebaf"/>
		<rect style="enable-background:accumulate;color:#000000;" height="13.25" width="9.5" y="569.47" x="-227.57" fill="#ebebaf"/>
		<rect style="enable-background:accumulate;color:#000000;" height="13.25" width="9.5" y="569.47" x="-213.19" fill="#ebebaf"/>
		<rect style="enable-background:accumulate;color:#000000;" height="13.25" width="9.5" y="569.47" x="-198.81" fill="#ebebaf"/>
		<rect style="enable-background:accumulate;color:#000000;" height="13.25" width="9.5" y="591.51" x="-227.57" fill="#ebebaf"/>
		<rect style="enable-background:accumulate;color:#000000;" height="13.25" width="9.5" y="591.51" x="-198.81" fill="#ebebaf"/>
		<rect style="enable-background:accumulate;color:#000000;" height="13.25" width="9.5" y="613.56" x="-198.81" fill="#ebebaf"/>
		<rect style="enable-background:accumulate;color:#000000;" height="13.25" width="9.5" y="635.6" x="-227.57" fill="#ebebaf"/>
		<rect style="enable-background:accumulate;color:#000000;" height="13.25" width="9.5" y="635.6" x="-213.19" fill="#ebebaf"/>
		<rect style="enable-background:accumulate;color:#000000;" height="13.25" width="9.5" y="635.6" x="-198.81" fill="#ebebaf"/>
		<rect style="enable-background:accumulate;color:#000000;" height="13.25" width="9.5" y="657.65" x="-213.19" fill="#ebebaf"/>
		<rect style="enable-background:accumulate;color:#000000;" height="13.25" width="9.5" y="657.65" x="-198.81" fill="#ebebaf"/>
		<rect style="enable-background:accumulate;color:#000000;" height="13.25" width="9.5" y="533.02" x="-537.28" fill="#ebebaf"/>
		<rect style="enable-background:accumulate;color:#000000;" height="13.25" width="9.5" y="533.02" x="-522.9" fill="#ebebaf"/>
		<rect style="enable-background:accumulate;color:#000000;" height="13.25" width="9.5" y="533.02" x="-508.52" fill="#ebebaf"/>
		<rect style="enable-background:accumulate;color:#000000;" height="13.25" width="9.5" y="555.07" x="-537.28" fill="#ebebaf"/>
		<rect style="enable-background:accumulate;color:#000000;" height="13.25" width="9.5" y="555.07" x="-508.52" fill="#ebebaf"/>
		<rect style="enable-background:accumulate;color:#000000;" height="13.25" width="9.5" y="577.11" x="-551.66" fill="#ebebaf"/>
		<rect style="enable-background:accumulate;color:#000000;" height="13.25" width="9.5" y="577.11" x="-537.28" fill="#ebebaf"/>
		<rect style="enable-background:accumulate;color:#000000;" height="13.25" width="9.5" y="577.11" x="-522.9" fill="#ebebaf"/>
		<rect style="enable-background:accumulate;color:#000000;" height="13.25" width="9.5" y="599.16" x="-537.28" fill="#ebebaf"/>
		<rect style="enable-background:accumulate;color:#000000;" height="13.25" width="9.5" y="533.02" x="-609.99" fill="#ebebaf"/>
		<rect style="enable-background:accumulate;color:#000000;" height="13.25" width="9.5" y="533.02" x="-595.62" fill="#ebebaf"/>
		<rect style="enable-background:accumulate;color:#000000;" height="13.25" width="9.5" y="533.02" x="-566.86" fill="#ebebaf"/>
		<rect style="enable-background:accumulate;color:#000000;" height="13.25" width="9.5" y="555.07" x="-609.99" fill="#ebebaf"/>
		<rect style="enable-background:accumulate;color:#000000;" height="13.25" width="9.5" y="555.07" x="-595.62" fill="#ebebaf"/>
		<rect style="enable-background:accumulate;color:#000000;" height="13.25" width="9.5" y="555.07" x="-581.24" fill="#ebebaf"/>
		<rect style="enable-background:accumulate;color:#000000;" height="13.25" width="9.5" y="555.07" x="-566.86" fill="#ebebaf"/>
		<rect style="enable-background:accumulate;color:#000000;" height="13.25" width="9.5" y="577.11" x="-595.62" fill="#ebebaf"/>
		<rect style="enable-background:accumulate;color:#000000;" height="13.25" width="9.5" y="577.11" x="-566.86" fill="#ebebaf"/>
		<rect style="enable-background:accumulate;color:#000000;" height="13.25" width="9.5" y="620.33" x="-551.66" fill="#ebebaf"/>
		<rect style="enable-background:accumulate;color:#000000;" height="13.25" width="9.5" y="620.33" x="-537.28" fill="#ebebaf"/>
		<rect style="enable-background:accumulate;color:#000000;" height="13.25" width="9.5" y="620.33" x="-522.9" fill="#ebebaf"/>
		<rect style="enable-background:accumulate;color:#000000;" height="13.25" width="9.5" y="640.72" x="-537.28" fill="#ebebaf"/>
		<rect style="enable-background:accumulate;color:#000000;" height="13.25" width="9.5" y="640.72" x="-522.9" fill="#ebebaf"/>
		<rect style="enable-background:accumulate;color:#000000;" height="13.25" width="9.5" y="436.66" x="766.35" fill="#ebebaf"/>
		<rect style="enable-background:accumulate;color:#000000;" height="13.25" width="9.5" y="436.66" x="780.73" fill="#ebebaf"/>
		<rect style="enable-background:accumulate;color:#000000;" height="13.25" width="9.5" y="458.7" x="766.35" fill="#ebebaf"/>
		<rect style="enable-background:accumulate;color:#000000;" height="13.25" width="9.5" y="458.7" x="780.73" fill="#ebebaf"/>
		<rect style="enable-background:accumulate;color:#000000;" height="13.25" width="9.5" y="458.7" x="795.1" fill="#ebebaf"/>
		<rect style="enable-background:accumulate;color:#000000;" height="13.25" width="9.5" y="480.75" x="780.73" fill="#ebebaf"/>
		<rect style="enable-background:accumulate;color:#000000;" height="13.25" width="9.5" y="480.75" x="795.1" fill="#ebebaf"/>
		<rect style="enable-background:accumulate;color:#000000;" height="13.25" width="9.5" y="502.79" x="766.35" fill="#ebebaf"/>
		<rect style="enable-background:accumulate;color:#000000;" height="13.25" width="9.5" y="502.79" x="780.73" fill="#ebebaf"/>
		<rect style="enable-background:accumulate;color:#000000;" height="13.25" width="9.5" y="524.84" x="766.35" fill="#ebebaf"/>
		<rect style="enable-background:accumulate;color:#000000;" height="13.25" width="9.5" y="524.84" x="780.73" fill="#ebebaf"/>
		<rect style="enable-background:accumulate;color:#000000;" height="13.25" width="9.5" y="524.84" x="795.1" fill="#ebebaf"/>
		<rect style="enable-background:accumulate;color:#000000;" height="13.25" width="9.5" y="546.89" x="795.1" fill="#ebebaf"/>
		<rect style="enable-background:accumulate;color:#000000;" height="13.25" width="9.5" y="568.93" x="766.35" fill="#ebebaf"/>
		<rect style="enable-background:accumulate;color:#000000;" height="13.25" width="9.5" y="568.93" x="780.73" fill="#ebebaf"/>
		<rect style="enable-background:accumulate;color:#000000;" height="13.25" width="9.5" y="568.93" x="795.1" fill="#ebebaf"/>
		<rect style="enable-background:accumulate;color:#000000;" height="13.25" width="9.5" y="589.31" x="766.35" fill="#ebebaf"/>
		<rect style="enable-background:accumulate;color:#000000;" height="13.25" width="9.5" y="505.95" x="937" fill="#ebebaf"/>
		<rect style="enable-background:accumulate;color:#000000;" height="13.25" width="9.5" y="505.95" x="951.37" fill="#ebebaf"/>
		<rect style="enable-background:accumulate;color:#000000;" height="13.25" width="9.5" y="528" x="922.62" fill="#ebebaf"/>
		<rect style="enable-background:accumulate;color:#000000;" height="13.25" width="9.5" y="528" x="937" fill="#ebebaf"/>
		<rect style="enable-background:accumulate;color:#000000;" height="13.25" width="9.5" y="528" x="951.37" fill="#ebebaf"/>
		<rect style="enable-background:accumulate;color:#000000;" height="13.25" width="9.5" y="549.09" x="937" fill="#ebebaf"/>
		<rect style="enable-background:accumulate;color:#000000;" height="13.25" width="9.5" y="571.13" x="937" fill="#ebebaf"/>
		<rect style="enable-background:accumulate;color:#000000;" height="13.25" width="9.5" y="571.13" x="951.37" fill="#ebebaf"/>
		<rect style="enable-background:accumulate;color:#000000;" height="13.25" width="9.5" y="592.7" x="951.37" fill="#ebebaf"/>
		<rect style="enable-background:accumulate;color:#000000;" height="13.25" width="9.5" y="631.73" x="766.3" fill="#ebebaf"/>
		<rect style="enable-background:accumulate;color:#000000;" height="13.25" width="9.5" y="653.78" x="766.3" fill="#ebebaf"/>
		<rect style="enable-background:accumulate;color:#000000;" height="13.25" width="9.5" y="499.15" x="431.72" fill="#ebebaf"/>
		<rect style="enable-background:accumulate;color:#000000;" height="13.25" width="9.5" y="499.15" x="446.1" fill="#ebebaf"/>
		<rect style="enable-background:accumulate;color:#000000;" height="13.25" width="9.5" y="521.19" x="417.34" fill="#ebebaf"/>
		<rect style="enable-background:accumulate;color:#000000;" height="13.25" width="9.5" y="521.19" x="446.1" fill="#ebebaf"/>
		<rect style="enable-background:accumulate;color:#000000;" height="13.25" width="9.5" y="543.24" x="417.34" fill="#ebebaf"/>
		<rect style="enable-background:accumulate;color:#000000;" height="13.25" width="9.5" y="543.24" x="446.1" fill="#ebebaf"/>
		<rect style="enable-background:accumulate;color:#000000;" height="13.25" width="9.5" y="543.24" x="460.48" fill="#ebebaf"/>
		<rect style="enable-background:accumulate;color:#000000;" height="13.25" width="9.5" y="565.28" x="417.34" fill="#ebebaf"/>
		<rect style="enable-background:accumulate;color:#000000;" height="13.25" width="9.5" y="565.28" x="446.1" fill="#ebebaf"/>
		<rect style="enable-background:accumulate;color:#000000;" height="13.25" width="9.5" y="499.15" x="475.09" fill="#ebebaf"/>
		<rect style="enable-background:accumulate;color:#000000;" height="13.25" width="9.5" y="521.19" x="475.09" fill="#ebebaf"/>
		<rect style="enable-background:accumulate;color:#000000;" height="13.25" width="9.5" y="521.19" x="490.22" fill="#ebebaf"/>
		<rect style="enable-background:accumulate;color:#000000;" height="13.25" width="9.5" y="543.24" x="475.09" fill="#ebebaf"/>
		<rect style="enable-background:accumulate;color:#000000;" height="13.25" width="9.5" y="499.15" x="505.84" fill="#ebebaf"/>
		<rect style="enable-background:accumulate;color:#000000;" height="13.25" width="9.5" y="521.19" x="505.84" fill="#ebebaf"/>
		<rect style="enable-background:accumulate;color:#000000;" height="13.25" width="9.5" y="543.24" x="505.84" fill="#ebebaf"/>
		<rect style="enable-background:accumulate;color:#000000;" height="13.25" width="9.5" y="553.24" x="-110.31" fill="#ebebaf"/>
		<rect style="enable-background:accumulate;color:#000000;" height="13.25" width="9.5" y="575.28" x="-110.31" fill="#ebebaf"/>
		<rect style="enable-background:accumulate;color:#000000;" height="13.25" width="9.5" y="619.38" x="-110.31" fill="#ebebaf"/>
	</g>
</svg>
