<!-- Created with Inkscape (http://www.inkscape.org/) -->
<svg xmlns:rdf="http://www.w3.org/1999/02/22-rdf-syntax-ns#" xmlns="http://www.w3.org/2000/svg" version="1.1" xmlns:cc="http://creativecommons.org/ns#" xmlns:dc="http://purl.org/dc/elements/1.1/" viewBox="0 0 1800 270.94" preserveAspectRatio="none">
	<metadata>
		<rdf:RDF>
			<cc:Work rdf:about="">
				<dc:format>image/svg+xml</dc:format>
				<dc:type rdf:resource="http://purl.org/dc/dcmitype/StillImage"/>
				<dc:title/>
			</cc:Work>
		</rdf:RDF>
	</metadata>
	<path style="enable-background:accumulate;color:#000000;" d="m554.56,0-34.125,28.281,0,166.16-135.38,0-1.125-87.656-150.59,0,0,53.719-43.125,0,0.125-62-64.75-17.75-21.25,17.75,0.0937,95.5-49.625,0l-0.149-87-54.656,0.16v163.78h1404.8l0.062-67h-59.406v-32.368h-97.281v21.564h-114.5l-0.062-103.23h-52.312l-0.1563,35.25h-48.375l0.1563,25.469h-53.594l-1.4375-81.312-97.562-0.031,0.4375,114.56-74.688,0.6875-0.28125-74.219-54.438,0.7187-35.344,41.892h-36.531l0.4375,35.17h-48.5l-42.719-43.125v-116.69zm850.31,203.94,0,67,67,0,6.5312,0,67,0,68,0,51,0,83,0,52.594,0,0-163.34-88.031,0,0,50.75-47.563,0,0-50.75-54.531,0,0,17.688-64.469,0,0-65.781-73.531,0,0,48.094-67,0z" fill-rule="nonzero" fill="#000d2d"/>
	<rect style="enable-background:accumulate;color:#000000;" fill-rule="nonzero" height="13.25" width="9.5" y="33.411" x="528.34" fill="#baba7d"/>
	<rect style="enable-background:accumulate;color:#000000;" fill-rule="nonzero" height="13.25" width="9.5" y="33.411" x="557.1" fill="#baba7d"/>
	<rect style="enable-background:accumulate;color:#000000;" fill-rule="nonzero" height="13.25" width="9.5" y="33.411" x="571.47" fill="#baba7d"/>
	<rect style="enable-background:accumulate;color:#000000;" fill-rule="nonzero" height="13.25" width="9.5" y="55.456" x="528.34" fill="#baba7d"/>
	<rect style="enable-background:accumulate;color:#000000;" fill-rule="nonzero" height="13.25" width="9.5" y="55.456" x="542.72" fill="#baba7d"/>
	<rect style="enable-background:accumulate;color:#000000;" fill-rule="nonzero" height="13.25" width="9.5" y="55.456" x="557.1" fill="#baba7d"/>
	<rect style="enable-background:accumulate;color:#000000;" fill-rule="nonzero" height="13.25" width="9.5" y="55.456" x="571.47" fill="#baba7d"/>
	<rect style="enable-background:accumulate;color:#000000;" fill-rule="nonzero" height="13.25" width="9.5" y="77.501" x="528.34" fill="#baba7d"/>
	<rect style="enable-background:accumulate;color:#000000;" fill-rule="nonzero" height="13.25" width="9.5" y="77.501" x="571.47" fill="#baba7d"/>
	<rect style="enable-background:accumulate;color:#000000;" fill-rule="nonzero" height="13.25" width="9.5" y="99.547" x="528.34" fill="#baba7d"/>
	<rect style="enable-background:accumulate;color:#000000;" fill-rule="nonzero" height="13.25" width="9.5" y="99.547" x="557.1" fill="#baba7d"/>
	<rect style="enable-background:accumulate;color:#000000;" fill-rule="nonzero" height="13.25" width="9.5" y="99.547" x="571.47" fill="#baba7d"/>
	<rect style="enable-background:accumulate;color:#000000;" fill-rule="nonzero" height="13.25" width="9.5" y="121.59" x="557.1" fill="#baba7d"/>
	<rect style="enable-background:accumulate;color:#000000;" fill-rule="nonzero" height="13.25" width="9.5" y="143.64" x="528.34" fill="#baba7d"/>
	<rect style="enable-background:accumulate;color:#000000;" fill-rule="nonzero" height="13.25" width="9.5" y="143.64" x="571.47" fill="#baba7d"/>
	<rect style="enable-background:accumulate;color:#000000;" fill-rule="nonzero" height="13.25" width="9.5" y="165.68" x="528.34" fill="#baba7d"/>
	<rect style="enable-background:accumulate;color:#000000;" fill-rule="nonzero" height="13.25" width="9.5" y="165.68" x="542.72" fill="#baba7d"/>
	<rect style="enable-background:accumulate;color:#000000;" fill-rule="nonzero" height="13.25" width="9.5" y="165.68" x="557.1" fill="#baba7d"/>
	<rect style="enable-background:accumulate;color:#000000;" fill-rule="nonzero" height="13.25" width="9.5" y="165.68" x="571.47" fill="#baba7d"/>
	<rect style="enable-background:accumulate;color:#000000;" fill-rule="nonzero" height="13.25" width="9.5" y="187.73" x="528.34" fill="#baba7d"/>
	<rect style="enable-background:accumulate;color:#000000;" fill-rule="nonzero" height="13.25" width="9.5" y="187.73" x="571.47" fill="#baba7d"/>
	<rect style="enable-background:accumulate;color:#000000;" fill-rule="nonzero" height="13.25" width="9.5" y="209.77" x="528.34" fill="#baba7d"/>
	<rect style="enable-background:accumulate;color:#000000;" fill-rule="nonzero" height="13.25" width="9.5" y="209.77" x="557.1" fill="#baba7d"/>
	<rect style="enable-background:accumulate;color:#000000;" fill-rule="nonzero" height="13.25" width="9.5" y="209.77" x="571.47" fill="#baba7d"/>
	<rect style="enable-background:accumulate;color:#000000;" fill-rule="nonzero" height="13.25" width="9.5" y="231.82" x="528.34" fill="#baba7d"/>
	<rect style="enable-background:accumulate;color:#000000;" fill-rule="nonzero" height="13.25" width="9.5" y="231.82" x="557.1" fill="#baba7d"/>
	<rect style="enable-background:accumulate;color:#000000;" fill-rule="nonzero" height="13.25" width="9.5" y="118.26" x="253.16" fill="#baba7d"/>
	<rect style="enable-background:accumulate;color:#000000;" fill-rule="nonzero" height="13.25" width="9.5" y="118.26" x="267.54" fill="#baba7d"/>
	<rect style="enable-background:accumulate;color:#000000;" fill-rule="nonzero" height="13.25" width="9.5" y="140.31" x="238.78" fill="#baba7d"/>
	<rect style="enable-background:accumulate;color:#000000;" fill-rule="nonzero" height="13.25" width="9.5" y="140.31" x="253.16" fill="#baba7d"/>
	<rect style="enable-background:accumulate;color:#000000;" fill-rule="nonzero" height="13.25" width="9.5" y="140.31" x="267.54" fill="#baba7d"/>
	<rect style="enable-background:accumulate;color:#000000;" fill-rule="nonzero" height="13.25" width="9.5" y="162.35" x="253.16" fill="#baba7d"/>
	<rect style="enable-background:accumulate;color:#000000;" fill-rule="nonzero" height="13.25" width="9.5" y="162.35" x="281.91" fill="#baba7d"/>
	<rect style="enable-background:accumulate;color:#000000;" fill-rule="nonzero" height="13.25" width="9.5" y="184.4" x="253.16" fill="#baba7d"/>
	<rect style="enable-background:accumulate;color:#000000;" fill-rule="nonzero" height="13.25" width="9.5" y="184.4" x="281.91" fill="#baba7d"/>
	<rect style="enable-background:accumulate;color:#000000;" fill-rule="nonzero" height="13.25" width="9.5" y="206.45" x="238.78" fill="#baba7d"/>
	<rect style="enable-background:accumulate;color:#000000;" fill-rule="nonzero" height="13.25" width="9.5" y="206.45" x="267.54" fill="#baba7d"/>
	<rect style="enable-background:accumulate;color:#000000;" fill-rule="nonzero" height="13.25" width="9.5" y="228.49" x="238.78" fill="#baba7d"/>
	<rect style="enable-background:accumulate;color:#000000;" fill-rule="nonzero" height="13.25" width="9.5" y="228.49" x="253.16" fill="#baba7d"/>
	<rect style="enable-background:accumulate;color:#000000;" fill-rule="nonzero" height="13.25" width="9.5" y="228.49" x="281.91" fill="#baba7d"/>
	<rect style="enable-background:accumulate;color:#000000;" fill-rule="nonzero" height="13.25" width="9.5" y="118.26" x="296.76" fill="#baba7d"/>
	<rect style="enable-background:accumulate;color:#000000;" fill-rule="nonzero" height="13.25" width="9.5" y="118.26" x="311.14" fill="#baba7d"/>
	<rect style="enable-background:accumulate;color:#000000;" fill-rule="nonzero" height="13.25" width="9.5" y="118.26" x="325.52" fill="#baba7d"/>
	<rect style="enable-background:accumulate;color:#000000;" fill-rule="nonzero" height="13.25" width="9.5" y="140.31" x="296.76" fill="#baba7d"/>
	<rect style="enable-background:accumulate;color:#000000;" fill-rule="nonzero" height="13.25" width="9.5" y="140.31" x="311.14" fill="#baba7d"/>
	<rect style="enable-background:accumulate;color:#000000;" fill-rule="nonzero" height="13.25" width="9.5" y="140.31" x="339.9" fill="#baba7d"/>
	<rect style="enable-background:accumulate;color:#000000;" fill-rule="nonzero" height="13.25" width="9.5" y="162.35" x="311.14" fill="#baba7d"/>
	<rect style="enable-background:accumulate;color:#000000;" fill-rule="nonzero" height="13.25" width="9.5" y="162.35" x="339.9" fill="#baba7d"/>
	<rect style="enable-background:accumulate;color:#000000;" fill-rule="nonzero" height="13.25" width="9.5" y="184.4" x="311.14" fill="#baba7d"/>
	<rect style="enable-background:accumulate;color:#000000;" fill-rule="nonzero" height="13.25" width="9.5" y="184.4" x="325.52" fill="#baba7d"/>
	<rect style="enable-background:accumulate;color:#000000;" fill-rule="nonzero" height="13.25" width="9.5" y="184.4" x="339.9" fill="#baba7d"/>
	<rect style="enable-background:accumulate;color:#000000;" fill-rule="nonzero" height="13.25" width="9.5" y="206.45" x="296.76" fill="#baba7d"/>
	<rect style="enable-background:accumulate;color:#000000;" fill-rule="nonzero" height="13.25" width="9.5" y="206.45" x="311.14" fill="#baba7d"/>
	<rect style="enable-background:accumulate;color:#000000;" fill-rule="nonzero" height="13.25" width="9.5" y="206.45" x="339.9" fill="#baba7d"/>
	<rect style="enable-background:accumulate;color:#000000;" fill-rule="nonzero" height="13.25" width="9.5" y="228.49" x="296.76" fill="#baba7d"/>
	<rect style="enable-background:accumulate;color:#000000;" fill-rule="nonzero" height="13.25" width="9.5" y="118.26" x="354.52" fill="#baba7d"/>
	<rect style="enable-background:accumulate;color:#000000;" fill-rule="nonzero" height="13.25" width="9.5" y="118.26" x="368.9" fill="#baba7d"/>
	<rect style="enable-background:accumulate;color:#000000;" fill-rule="nonzero" height="13.25" width="9.5" y="140.31" x="354.52" fill="#baba7d"/>
	<rect style="enable-background:accumulate;color:#000000;" fill-rule="nonzero" height="13.25" width="9.5" y="140.31" x="368.9" fill="#baba7d"/>
	<rect style="enable-background:accumulate;color:#000000;" fill-rule="nonzero" height="13.25" width="9.5" y="184.4" x="368.9" fill="#baba7d"/>
	<rect style="enable-background:accumulate;color:#000000;" fill-rule="nonzero" height="13.25" width="9.5" y="206.45" x="354.52" fill="#baba7d"/>
	<rect style="enable-background:accumulate;color:#000000;" fill-rule="nonzero" height="13.25" width="9.5" y="228.49" x="354.52" fill="#baba7d"/>
	<rect style="enable-background:accumulate;color:#000000;" fill-rule="nonzero" height="13.25" width="9.5" y="228.49" x="368.9" fill="#baba7d"/>
	<rect style="enable-background:accumulate;color:#000000;" fill-rule="nonzero" height="13.25" width="9.5" y="105.26" x="114.28" fill="#baba7d"/>
	<rect style="enable-background:accumulate;color:#000000;" fill-rule="nonzero" height="13.25" width="9.5" y="105.26" x="128.66" fill="#baba7d"/>
	<rect style="enable-background:accumulate;color:#000000;" fill-rule="nonzero" height="13.25" width="9.5" y="105.26" x="157.41" fill="#baba7d"/>
	<rect style="enable-background:accumulate;color:#000000;" fill-rule="nonzero" height="13.25" width="9.5" y="127.31" x="114.28" fill="#baba7d"/>
	<rect style="enable-background:accumulate;color:#000000;" fill-rule="nonzero" height="13.25" width="9.5" y="127.31" x="143.04" fill="#baba7d"/>
	<rect style="enable-background:accumulate;color:#000000;" fill-rule="nonzero" height="13.25" width="9.5" y="149.35" x="114.28" fill="#baba7d"/>
	<rect style="enable-background:accumulate;color:#000000;" fill-rule="nonzero" height="13.25" width="9.5" y="149.35" x="157.41" fill="#baba7d"/>
	<rect style="enable-background:accumulate;color:#000000;" fill-rule="nonzero" height="13.25" width="9.5" y="171.4" x="114.28" fill="#baba7d"/>
	<rect style="enable-background:accumulate;color:#000000;" fill-rule="nonzero" height="13.25" width="9.5" y="171.4" x="128.66" fill="#baba7d"/>
	<rect style="enable-background:accumulate;color:#000000;" fill-rule="nonzero" height="13.25" width="9.5" y="193.45" x="114.28" fill="#baba7d"/>
	<rect style="enable-background:accumulate;color:#000000;" fill-rule="nonzero" height="13.25" width="9.5" y="193.45" x="143.04" fill="#baba7d"/>
	<rect style="enable-background:accumulate;color:#000000;" fill-rule="nonzero" height="13.25" width="9.5" y="215.49" x="114.28" fill="#baba7d"/>
	<rect style="enable-background:accumulate;color:#000000;" fill-rule="nonzero" height="13.25" width="9.5" y="215.49" x="143.04" fill="#baba7d"/>
	<rect style="enable-background:accumulate;color:#000000;" fill-rule="nonzero" height="13.25" width="9.5" y="105.26" x="172.26" fill="#baba7d"/>
	<rect style="enable-background:accumulate;color:#000000;" fill-rule="nonzero" height="13.25" width="9.5" y="127.31" x="172.26" fill="#baba7d"/>
	<rect style="enable-background:accumulate;color:#000000;" fill-rule="nonzero" height="13.25" width="9.5" y="149.35" x="172.26" fill="#baba7d"/>
	<rect style="enable-background:accumulate;color:#000000;" fill-rule="nonzero" height="13.25" width="9.5" y="171.4" x="172.26" fill="#baba7d"/>
	<rect style="enable-background:accumulate;color:#000000;" fill-rule="nonzero" height="13.25" width="9.5" y="193.45" x="172.26" fill="#baba7d"/>
	<rect style="enable-background:accumulate;color:#000000;" fill-rule="nonzero" height="13.25" width="9.5" y="79.494" x="888.79" fill="#baba7d"/>
	<rect style="enable-background:accumulate;color:#000000;" fill-rule="nonzero" height="13.25" width="9.5" y="79.494" x="917.55" fill="#baba7d"/>
	<rect style="enable-background:accumulate;color:#000000;" fill-rule="nonzero" height="13.25" width="9.5" y="79.494" x="931.93" fill="#baba7d"/>
	<rect style="enable-background:accumulate;color:#000000;" fill-rule="nonzero" height="13.25" width="9.5" y="101.54" x="888.79" fill="#baba7d"/>
	<rect style="enable-background:accumulate;color:#000000;" fill-rule="nonzero" height="13.25" width="9.5" y="101.54" x="917.55" fill="#baba7d"/>
	<rect style="enable-background:accumulate;color:#000000;" fill-rule="nonzero" height="13.25" width="9.5" y="101.54" x="931.93" fill="#baba7d"/>
	<rect style="enable-background:accumulate;color:#000000;" fill-rule="nonzero" height="13.25" width="9.5" y="123.58" x="888.79" fill="#baba7d"/>
	<rect style="enable-background:accumulate;color:#000000;" fill-rule="nonzero" height="13.25" width="9.5" y="123.58" x="903.17" fill="#baba7d"/>
	<rect style="enable-background:accumulate;color:#000000;" fill-rule="nonzero" height="13.25" width="9.5" y="123.58" x="917.55" fill="#baba7d"/>
	<rect style="enable-background:accumulate;color:#000000;" fill-rule="nonzero" height="13.25" width="9.5" y="145.63" x="888.79" fill="#baba7d"/>
	<rect style="enable-background:accumulate;color:#000000;" fill-rule="nonzero" height="13.25" width="9.5" y="145.63" x="917.55" fill="#baba7d"/>
	<rect style="enable-background:accumulate;color:#000000;" fill-rule="nonzero" height="13.25" width="9.5" y="167.68" x="888.79" fill="#baba7d"/>
	<rect style="enable-background:accumulate;color:#000000;" fill-rule="nonzero" height="13.25" width="9.5" y="167.68" x="903.17" fill="#baba7d"/>
	<rect style="enable-background:accumulate;color:#000000;" fill-rule="nonzero" height="13.25" width="9.5" y="167.68" x="931.93" fill="#baba7d"/>
	<rect style="enable-background:accumulate;color:#000000;" fill-rule="nonzero" height="13.25" width="9.5" y="189.72" x="903.17" fill="#baba7d"/>
	<rect style="enable-background:accumulate;color:#000000;" fill-rule="nonzero" height="13.25" width="9.5" y="189.72" x="917.55" fill="#baba7d"/>
	<rect style="enable-background:accumulate;color:#000000;" fill-rule="nonzero" height="13.25" width="9.5" y="211.77" x="888.79" fill="#baba7d"/>
	<rect style="enable-background:accumulate;color:#000000;" fill-rule="nonzero" height="13.25" width="9.5" y="211.77" x="931.93" fill="#baba7d"/>
	<rect style="enable-background:accumulate;color:#000000;" fill-rule="nonzero" height="13.25" width="9.5" y="233.81" x="888.79" fill="#baba7d"/>
	<rect style="enable-background:accumulate;color:#000000;" fill-rule="nonzero" height="13.25" width="9.5" y="233.81" x="917.55" fill="#baba7d"/>
	<rect style="enable-background:accumulate;color:#000000;" fill-rule="nonzero" height="13.25" width="9.5" y="79.494" x="960.92" fill="#baba7d"/>
	<rect style="enable-background:accumulate;color:#000000;" fill-rule="nonzero" height="13.25" width="9.5" y="123.58" x="960.92" fill="#baba7d"/>
	<rect style="enable-background:accumulate;color:#000000;" fill-rule="nonzero" height="13.25" width="9.5" y="145.63" x="946.54" fill="#baba7d"/>
	<rect style="enable-background:accumulate;color:#000000;" fill-rule="nonzero" height="13.25" width="9.5" y="145.63" x="960.92" fill="#baba7d"/>
	<rect style="enable-background:accumulate;color:#000000;" fill-rule="nonzero" height="13.25" width="9.5" y="167.68" x="946.54" fill="#baba7d"/>
	<rect style="enable-background:accumulate;color:#000000;" fill-rule="nonzero" height="13.25" width="9.5" y="167.68" x="960.92" fill="#baba7d"/>
	<rect style="enable-background:accumulate;color:#000000;" fill-rule="nonzero" height="13.25" width="9.5" y="189.72" x="960.92" fill="#baba7d"/>
	<rect style="enable-background:accumulate;color:#000000;" fill-rule="nonzero" height="13.25" width="9.5" y="211.77" x="946.54" fill="#baba7d"/>
	<rect style="enable-background:accumulate;color:#000000;" fill-rule="nonzero" height="13.25" width="9.5" y="233.81" x="946.54" fill="#baba7d"/>
	<rect style="enable-background:accumulate;color:#000000;" fill-rule="nonzero" height="13.25" width="9.5" y="233.81" x="960.92" fill="#baba7d"/>
	<rect style="enable-background:accumulate;color:#000000;" fill-rule="nonzero" height="13.25" width="9.5" y="117.68" x="1414.2" fill="#baba7d"/>
	<rect style="enable-background:accumulate;color:#000000;" fill-rule="nonzero" height="13.25" width="9.5" y="117.68" x="1457.3" fill="#baba7d"/>
	<rect style="enable-background:accumulate;color:#000000;" fill-rule="nonzero" height="13.25" width="9.5" y="139.72" x="1414.2" fill="#baba7d"/>
	<rect style="enable-background:accumulate;color:#000000;" fill-rule="nonzero" height="13.25" width="9.5" y="139.72" x="1428.6" fill="#baba7d"/>
	<rect style="enable-background:accumulate;color:#000000;" fill-rule="nonzero" height="13.25" width="9.5" y="139.72" x="1457.3" fill="#baba7d"/>
	<rect style="enable-background:accumulate;color:#000000;" fill-rule="nonzero" height="13.25" width="9.5" y="161.77" x="1414.2" fill="#baba7d"/>
	<rect style="enable-background:accumulate;color:#000000;" fill-rule="nonzero" height="13.25" width="9.5" y="161.77" x="1442.9" fill="#baba7d"/>
	<rect style="enable-background:accumulate;color:#000000;" fill-rule="nonzero" height="13.25" width="9.5" y="161.77" x="1457.3" fill="#baba7d"/>
	<rect style="enable-background:accumulate;color:#000000;" fill-rule="nonzero" height="13.25" width="9.5" y="183.81" x="1414.2" fill="#baba7d"/>
	<rect style="enable-background:accumulate;color:#000000;" fill-rule="nonzero" height="13.25" width="9.5" y="183.81" x="1428.6" fill="#baba7d"/>
	<rect style="enable-background:accumulate;color:#000000;" fill-rule="nonzero" height="13.25" width="9.5" y="183.81" x="1442.9" fill="#baba7d"/>
	<rect style="enable-background:accumulate;color:#000000;" fill-rule="nonzero" height="13.25" width="9.5" y="183.81" x="1457.3" fill="#baba7d"/>
	<rect style="enable-background:accumulate;color:#000000;" fill-rule="nonzero" height="13.25" width="9.5" y="205.86" x="1414.2" fill="#baba7d"/>
	<rect style="enable-background:accumulate;color:#000000;" fill-rule="nonzero" height="13.25" width="9.5" y="227.9" x="1428.6" fill="#baba7d"/>
	<rect style="enable-background:accumulate;color:#000000;" fill-rule="nonzero" height="13.25" width="9.5" y="227.9" x="1442.9" fill="#baba7d"/>
	<rect style="enable-background:accumulate;color:#000000;" fill-rule="nonzero" height="13.25" width="9.5" y="227.9" x="1457.3" fill="#baba7d"/>
	<rect style="enable-background:accumulate;color:#000000;" fill-rule="nonzero" height="13.25" width="9.5" y="73.178" x="1482.9" fill="#baba7d"/>
	<rect style="enable-background:accumulate;color:#000000;" fill-rule="nonzero" height="13.25" width="9.5" y="95.223" x="1482.9" fill="#baba7d"/>
	<rect style="enable-background:accumulate;color:#000000;" fill-rule="nonzero" height="13.25" width="9.5" y="95.223" x="1497.3" fill="#baba7d"/>
	<rect style="enable-background:accumulate;color:#000000;" fill-rule="nonzero" height="13.25" width="9.5" y="117.27" x="1482.9" fill="#baba7d"/>
	<rect style="enable-background:accumulate;color:#000000;" fill-rule="nonzero" height="13.25" width="9.5" y="117.27" x="1497.3" fill="#baba7d"/>
	<rect style="enable-background:accumulate;color:#000000;" fill-rule="nonzero" height="13.25" width="9.5" y="139.31" x="1482.9" fill="#baba7d"/>
	<rect style="enable-background:accumulate;color:#000000;" fill-rule="nonzero" height="13.25" width="9.5" y="161.36" x="1482.9" fill="#baba7d"/>
	<rect style="enable-background:accumulate;color:#000000;" fill-rule="nonzero" height="13.25" width="9.5" y="183.4" x="1482.9" fill="#baba7d"/>
	<rect style="enable-background:accumulate;color:#000000;" fill-rule="nonzero" height="13.25" width="9.5" y="183.4" x="1497.3" fill="#baba7d"/>
	<rect style="enable-background:accumulate;color:#000000;" fill-rule="nonzero" height="13.25" width="9.5" y="205.45" x="1482.9" fill="#baba7d"/>
	<rect style="enable-background:accumulate;color:#000000;" fill-rule="nonzero" height="13.25" width="9.5" y="205.45" x="1497.3" fill="#baba7d"/>
	<rect style="enable-background:accumulate;color:#000000;" fill-rule="nonzero" height="13.25" width="9.5" y="73.178" x="1511.9" fill="#baba7d"/>
	<rect style="enable-background:accumulate;color:#000000;" fill-rule="nonzero" height="13.25" width="9.5" y="73.178" x="1526.3" fill="#baba7d"/>
	<rect style="enable-background:accumulate;color:#000000;" fill-rule="nonzero" height="13.25" width="9.5" y="95.223" x="1526.3" fill="#baba7d"/>
	<rect style="enable-background:accumulate;color:#000000;" fill-rule="nonzero" height="13.25" width="9.5" y="117.27" x="1511.9" fill="#baba7d"/>
	<rect style="enable-background:accumulate;color:#000000;" fill-rule="nonzero" height="13.25" width="9.5" y="117.27" x="1526.3" fill="#baba7d"/>
	<rect style="enable-background:accumulate;color:#000000;" fill-rule="nonzero" height="13.25" width="9.5" y="139.31" x="1511.9" fill="#baba7d"/>
	<rect style="enable-background:accumulate;color:#000000;" fill-rule="nonzero" height="13.25" width="9.5" y="161.36" x="1511.9" fill="#baba7d"/>
	<rect style="enable-background:accumulate;color:#000000;" fill-rule="nonzero" height="13.25" width="9.5" y="183.4" x="1526.3" fill="#baba7d"/>
	<rect style="enable-background:accumulate;color:#000000;" fill-rule="nonzero" height="13.25" width="9.5" y="205.45" x="1511.9" fill="#baba7d"/>
	<rect style="enable-background:accumulate;color:#000000;" fill-rule="nonzero" height="13.25" width="9.5" y="205.45" x="1526.3" fill="#baba7d"/>
	<rect style="enable-background:accumulate;color:#000000;" fill-rule="nonzero" height="13.25" width="9.5" y="227.5" x="1526.3" fill="#baba7d"/>
	<rect style="enable-background:accumulate;color:#000000;" fill-rule="nonzero" height="13.25" width="9.5" y="118.31" x="1722.5" fill="#baba7d"/>
	<rect style="enable-background:accumulate;color:#000000;" fill-rule="nonzero" height="13.25" width="9.5" y="118.31" x="1736.9" fill="#baba7d"/>
	<rect style="enable-background:accumulate;color:#000000;" fill-rule="nonzero" height="13.25" width="9.5" y="140.36" x="1722.5" fill="#baba7d"/>
	<rect style="enable-background:accumulate;color:#000000;" fill-rule="nonzero" height="13.25" width="9.5" y="162.4" x="1722.5" fill="#baba7d"/>
	<rect style="enable-background:accumulate;color:#000000;" fill-rule="nonzero" height="13.25" width="9.5" y="162.4" x="1736.9" fill="#baba7d"/>
	<rect style="enable-background:accumulate;color:#000000;" fill-rule="nonzero" height="13.25" width="9.5" y="184.45" x="1736.9" fill="#baba7d"/>
	<rect style="enable-background:accumulate;color:#000000;" fill-rule="nonzero" height="13.25" width="9.5" y="206.5" x="1722.5" fill="#baba7d"/>
	<rect style="enable-background:accumulate;color:#000000;" fill-rule="nonzero" height="13.25" width="9.5" y="118.31" x="1751.5" fill="#baba7d"/>
	<rect style="enable-background:accumulate;color:#000000;" fill-rule="nonzero" height="13.25" width="9.5" y="118.31" x="1765.9" fill="#baba7d"/>
	<rect style="enable-background:accumulate;color:#000000;" fill-rule="nonzero" height="13.25" width="9.5" y="140.36" x="1751.5" fill="#baba7d"/>
	<rect style="enable-background:accumulate;color:#000000;" fill-rule="nonzero" height="13.25" width="9.5" y="140.36" x="1765.9" fill="#baba7d"/>
	<rect style="enable-background:accumulate;color:#000000;" fill-rule="nonzero" height="13.25" width="9.5" y="162.4" x="1751.5" fill="#baba7d"/>
	<rect style="enable-background:accumulate;color:#000000;" fill-rule="nonzero" height="13.25" width="9.5" y="184.45" x="1751.5" fill="#baba7d"/>
	<rect style="enable-background:accumulate;color:#000000;" fill-rule="nonzero" height="13.25" width="9.5" y="206.5" x="1765.9" fill="#baba7d"/>
	<rect style="enable-background:accumulate;color:#000000;" fill-rule="nonzero" height="13.25" width="9.5" y="140.36" x="1780.4" fill="#baba7d"/>
	<rect style="enable-background:accumulate;color:#000000;" fill-rule="nonzero" height="13.25" width="9.5" y="184.45" x="1780.4" fill="#baba7d"/>
	<rect style="enable-background:accumulate;color:#000000;" fill-rule="nonzero" height="13.25" width="9.5" y="206.5" x="1780.4" fill="#baba7d"/>
	<rect style="enable-background:accumulate;color:#000000;" fill-rule="nonzero" height="13.25" width="9.5" y="227.71" x="1722.5" fill="#baba7d"/>
	<rect style="enable-background:accumulate;color:#000000;" fill-rule="nonzero" height="13.25" width="9.5" y="227.71" x="1736.9" fill="#baba7d"/>
	<rect style="enable-background:accumulate;color:#000000;" fill-rule="nonzero" height="13.25" width="9.5" y="227.71" x="1751.5" fill="#baba7d"/>
	<rect style="enable-background:accumulate;color:#000000;" fill-rule="nonzero" height="13.25" width="9.5" y="227.71" x="1765.9" fill="#baba7d"/>
	<rect style="enable-background:accumulate;color:#000000;" fill-rule="nonzero" height="13.25" width="9.5" y="117.61" x="1617.8" fill="#baba7d"/>
	<rect style="enable-background:accumulate;color:#000000;" fill-rule="nonzero" height="13.25" width="9.5" y="117.61" x="1632.2" fill="#baba7d"/>
	<rect style="enable-background:accumulate;color:#000000;" fill-rule="nonzero" height="13.25" width="9.5" y="139.65" x="1617.8" fill="#baba7d"/>
	<rect style="enable-background:accumulate;color:#000000;" fill-rule="nonzero" height="13.25" width="9.5" y="139.65" x="1632.2" fill="#baba7d"/>
	<rect style="enable-background:accumulate;color:#000000;" fill-rule="nonzero" height="13.25" width="9.5" y="161.7" x="1617.8" fill="#baba7d"/>
	<rect style="enable-background:accumulate;color:#000000;" fill-rule="nonzero" height="13.25" width="9.5" y="183.74" x="1617.8" fill="#baba7d"/>
	<rect style="enable-background:accumulate;color:#000000;" fill-rule="nonzero" height="13.25" width="9.5" y="183.74" x="1632.2" fill="#baba7d"/>
	<rect style="enable-background:accumulate;color:#000000;" fill-rule="nonzero" height="13.25" width="9.5" y="205.79" x="1632.2" fill="#baba7d"/>
	<rect style="enable-background:accumulate;color:#000000;" fill-rule="nonzero" height="13.25" width="9.5" y="117.61" x="1646.8" fill="#baba7d"/>
	<rect style="enable-background:accumulate;color:#000000;" fill-rule="nonzero" height="13.25" width="9.5" y="161.7" x="1646.8" fill="#baba7d"/>
	<rect style="enable-background:accumulate;color:#000000;" fill-rule="nonzero" height="13.25" width="9.5" y="205.79" x="1646.8" fill="#baba7d"/>
	<rect style="enable-background:accumulate;color:#000000;" fill-rule="nonzero" height="13.25" width="9.5" y="227" x="1617.8" fill="#baba7d"/>
	<rect style="enable-background:accumulate;color:#000000;" fill-rule="nonzero" height="13.25" width="9.5" y="227" x="1646.8" fill="#baba7d"/>
	<rect style="enable-background:accumulate;color:#000000;" fill-rule="nonzero" height="13.25" width="9.5" y="100" x="1087.8" fill="#baba7d"/>
	<rect style="enable-background:accumulate;color:#000000;" fill-rule="nonzero" height="13.25" width="9.5" y="122.05" x="1087.8" fill="#baba7d"/>
	<rect style="enable-background:accumulate;color:#000000;" fill-rule="nonzero" height="13.25" width="9.5" y="144.09" x="1087.8" fill="#baba7d"/>
	<rect style="enable-background:accumulate;color:#000000;" fill-rule="nonzero" height="13.25" width="9.5" y="166.14" x="1087.8" fill="#baba7d"/>
	<rect style="enable-background:accumulate;color:#000000;" fill-rule="nonzero" height="13.25" width="9.5" y="188.18" x="1087.8" fill="#baba7d"/>
	<rect style="enable-background:accumulate;color:#000000;" fill-rule="nonzero" height="13.25" width="9.5" y="210.23" x="1087.8" fill="#baba7d"/>
	<rect style="enable-background:accumulate;color:#000000;" fill-rule="nonzero" height="13.25" width="9.5" y="100" x="1102.5" fill="#baba7d"/>
	<rect style="enable-background:accumulate;color:#000000;" fill-rule="nonzero" height="13.25" width="9.5" y="100" x="1116.8" fill="#baba7d"/>
	<rect style="enable-background:accumulate;color:#000000;" fill-rule="nonzero" height="13.25" width="9.5" y="144.09" x="1102.5" fill="#baba7d"/>
	<rect style="enable-background:accumulate;color:#000000;" fill-rule="nonzero" height="13.25" width="9.5" y="144.09" x="1116.8" fill="#baba7d"/>
	<rect style="enable-background:accumulate;color:#000000;" fill-rule="nonzero" height="13.25" width="9.5" y="166.14" x="1102.5" fill="#baba7d"/>
	<rect style="enable-background:accumulate;color:#000000;" fill-rule="nonzero" height="13.25" width="9.5" y="188.18" x="1116.8" fill="#baba7d"/>
	<rect style="enable-background:accumulate;color:#000000;" fill-rule="nonzero" height="13.25" width="9.5" y="210.23" x="1116.8" fill="#baba7d"/>
	<rect style="enable-background:accumulate;color:#000000;" fill-rule="nonzero" height="13.25" width="9.5" y="165.41" x="686.56" fill="#baba7d"/>
	<rect style="enable-background:accumulate;color:#000000;" fill-rule="nonzero" height="13.25" width="9.5" y="165.41" x="700.94" fill="#baba7d"/>
	<rect style="enable-background:accumulate;color:#000000;" fill-rule="nonzero" height="13.25" width="9.5" y="165.41" x="729.69" fill="#baba7d"/>
	<rect style="enable-background:accumulate;color:#000000;" fill-rule="nonzero" height="13.25" width="9.5" y="187.45" x="686.56" fill="#baba7d"/>
	<rect style="enable-background:accumulate;color:#000000;" fill-rule="nonzero" height="13.25" width="9.5" y="187.45" x="715.32" fill="#baba7d"/>
	<rect style="enable-background:accumulate;color:#000000;" fill-rule="nonzero" height="13.25" width="9.5" y="187.45" x="729.69" fill="#baba7d"/>
	<rect style="enable-background:accumulate;color:#000000;" fill-rule="nonzero" height="13.25" width="9.5" y="209.5" x="686.56" fill="#baba7d"/>
	<rect style="enable-background:accumulate;color:#000000;" fill-rule="nonzero" height="13.25" width="9.5" y="209.5" x="700.94" fill="#baba7d"/>
	<rect style="enable-background:accumulate;color:#000000;" fill-rule="nonzero" height="13.25" width="9.5" y="209.5" x="729.69" fill="#baba7d"/>
	<rect style="enable-background:accumulate;color:#000000;" fill-rule="nonzero" height="13.25" width="9.5" y="231.54" x="700.94" fill="#baba7d"/>
	<rect style="enable-background:accumulate;color:#000000;" fill-rule="nonzero" height="13.25" width="9.5" y="231.54" x="729.69" fill="#baba7d"/>
	<rect style="enable-background:accumulate;color:#000000;" fill-rule="nonzero" height="13.25" width="9.5" y="165.41" x="744.31" fill="#baba7d"/>
	<rect style="enable-background:accumulate;color:#000000;" fill-rule="nonzero" height="13.25" width="9.5" y="187.45" x="744.31" fill="#baba7d"/>
	<rect style="enable-background:accumulate;color:#000000;" fill-rule="nonzero" height="13.25" width="9.5" y="209.5" x="744.31" fill="#baba7d"/>
	<rect style="enable-background:accumulate;color:#000000;" fill-rule="nonzero" height="13.25" width="9.5" y="165.41" x="759.75" fill="#baba7d"/>
	<rect style="enable-background:accumulate;color:#000000;" fill-rule="nonzero" height="13.25" width="9.5" y="231.54" x="759.75" fill="#baba7d"/>
	<rect style="enable-background:accumulate;color:#000000;" fill-rule="nonzero" height="13.25" width="9.5" y="165.41" x="774.36" fill="#baba7d"/>
	<rect style="enable-background:accumulate;color:#000000;" fill-rule="nonzero" height="13.25" width="9.5" y="165.41" x="789.21" fill="#baba7d"/>
	<rect style="enable-background:accumulate;color:#000000;" fill-rule="nonzero" height="13.25" width="9.5" y="187.45" x="789.21" fill="#baba7d"/>
	<rect style="enable-background:accumulate;color:#000000;" fill-rule="nonzero" height="13.25" width="9.5" y="209.5" x="789.21" fill="#baba7d"/>
	<rect style="enable-background:accumulate;color:#000000;" fill-rule="nonzero" height="13.25" width="9.5" y="231.54" x="789.21" fill="#baba7d"/>
	<rect style="enable-background:accumulate;color:#000000;" fill-rule="nonzero" height="13.25" width="9.5" y="123.51" x="759.75" fill="#baba7d"/>
	<rect style="enable-background:accumulate;color:#000000;" fill-rule="nonzero" height="13.25" width="9.5" y="145.56" x="759.75" fill="#baba7d"/>
	<rect style="enable-background:accumulate;color:#000000;" fill-rule="nonzero" height="13.25" width="9.5" y="123.51" x="789.21" fill="#baba7d"/>
	<rect style="enable-background:accumulate;color:#000000;" fill-rule="nonzero" height="13.25" width="9.5" y="184.5" x="1255.6" fill="#baba7d"/>
	<rect style="enable-background:accumulate;color:#000000;" fill-rule="nonzero" height="13.25" width="9.5" y="206.54" x="1255.6" fill="#baba7d"/>
	<rect style="enable-background:accumulate;color:#000000;" fill-rule="nonzero" height="13.25" width="9.5" y="184.5" x="1284.6" fill="#baba7d"/>
	<rect style="enable-background:accumulate;color:#000000;" fill-rule="nonzero" height="13.25" width="9.5" y="228.59" x="1270.2" fill="#baba7d"/>
	<rect style="enable-background:accumulate;color:#000000;" fill-rule="nonzero" height="13.25" width="9.5" y="228.59" x="1284.6" fill="#baba7d"/>
	<rect style="enable-background:accumulate;color:#000000;" fill-rule="nonzero" height="13.25" width="9.5" y="206.6" x="1284.6" fill="#baba7d"/>
	<rect style="enable-background:accumulate;color:#000000;" fill-rule="nonzero" height="13.25" width="9.5" y="184.5" x="1299.7" fill="#baba7d"/>
	<rect style="enable-background:accumulate;color:#000000;" fill-rule="nonzero" height="13.25" width="9.5" y="228.59" x="1314.1" fill="#baba7d"/>
	<rect style="enable-background:accumulate;color:#000000;" fill-rule="nonzero" height="13.25" width="9.5" y="206.6" x="1299.7" fill="#baba7d"/>
	<rect style="enable-background:accumulate;color:#000000;" fill-rule="nonzero" height="13.25" width="9.5" y="206.6" x="1314.1" fill="#baba7d"/>
	<rect style="enable-background:accumulate;color:#000000;" fill-rule="nonzero" height="13.25" width="9.5" y="184.5" x="1328.3" fill="#baba7d"/>
	<rect style="enable-background:accumulate;color:#000000;" fill-rule="nonzero" height="13.25" width="9.5" y="206.6" x="1328.3" fill="#baba7d"/>
	<rect style="enable-background:accumulate;color:#000000;" fill-rule="nonzero" height="13.25" width="9.5" y="117.76" x="38.141" fill="#baba7d"/>
	<rect style="enable-background:accumulate;color:#000000;" fill-rule="nonzero" height="13.25" width="9.5" y="139.81" x="23.763" fill="#baba7d"/>
	<rect style="enable-background:accumulate;color:#000000;" fill-rule="nonzero" height="13.25" width="9.5" y="139.81" x="38.141" fill="#baba7d"/>
	<rect style="enable-background:accumulate;color:#000000;" fill-rule="nonzero" height="13.25" width="9.5" y="161.85" x="38.141" fill="#baba7d"/>
	<rect style="enable-background:accumulate;color:#000000;" fill-rule="nonzero" height="13.25" width="9.5" y="183.9" x="38.141" fill="#baba7d"/>
	<rect style="enable-background:accumulate;color:#000000;" fill-rule="nonzero" height="13.25" width="9.5" y="205.95" x="23.763" fill="#baba7d"/>
	<rect style="enable-background:accumulate;color:#000000;" fill-rule="nonzero" height="13.25" width="9.5" y="117.76" x="8.8913" fill="#baba7d"/>
	<rect style="enable-background:accumulate;color:#000000;" fill-rule="nonzero" height="13.25" width="9.5" y="161.85" x="8.8913" fill="#baba7d"/>
	<rect style="enable-background:accumulate;color:#000000;" fill-rule="nonzero" height="13.25" width="9.5" y="183.9" x="8.8913" fill="#baba7d"/>
	<rect style="enable-background:accumulate;color:#000000;" fill-rule="nonzero" height="13.25" width="9.5" y="205.95" x="8.8913" fill="#baba7d"/>
</svg>
