<!-- Created with Inkscape (http://www.inkscape.org/) -->
<svg xmlns:rdf="http://www.w3.org/1999/02/22-rdf-syntax-ns#" xmlns="http://www.w3.org/2000/svg" version="1.1" xmlns:cc="http://creativecommons.org/ns#" xmlns:dc="http://purl.org/dc/elements/1.1/" viewBox="0 0 303.33 241.62">
	<metadata>
		<rdf:RDF>
			<cc:Work rdf:about="">
				<dc:format>image/svg+xml</dc:format>
				<dc:type rdf:resource="http://purl.org/dc/dcmitype/StillImage"/>
				<dc:title/>
			</cc:Work>
		</rdf:RDF>
	</metadata>
	<path style="enable-background:accumulate;color:#000000;" d="m168.21,241.62,0-82.15,23.135,6.2848-34.974-51.51-34.974,51.51,23.135-6.2848,0,82.15z" fill-rule="nonzero" fill="#fff"/>
	<path style="baseline-shift:baseline;block-progression:tb;color:#000000;direction:ltr;text-indent:0;text-align:start;enable-background:accumulate;text-transform:none;" fill="#fff" d="m169.02,0.0002c-23.452,0-44.371,10.813-58.156,27.625-7.3405-3.8443-15.654-6.125-24.5-6.125-27.335,0-49.832,20.818-52.469,47.406-21.662,11.544-35.77,37.077-33.688,68.719,1.0022,15.225,9.0087,29.303,20.031,39.688,11.023,10.384,25.222,17.248,39.531,17.25,8.2089,0,45.858-0.028,50.995-0.031,0,0,3.3608,0.4296,3.3608-5s-3.3608-5-3.3608-5c-5.1365,0-42.788,0.033-50.995,0.031-11.028,0-23.217-5.6096-32.688-14.531-9.4702-8.9217-16.078-20.961-16.875-33.062-1.9463-29.571,11.473-51.635,30.531-60.5l2.7187-1.2812,0.1563-3.0313c1.0298-22.651,19.692-40.656,42.75-40.656,8.5006,0,16.409,2.4512,23.062,6.6876l3.9688,2.5312,2.7812-3.8125c11.833-16.298,31.058-26.906,52.844-26.906,36.052,0,65.125,28.978,65.125,64.844,0,1.2443-0.024,2.515-0.094,3.75l-0.3125,5.625,5.625-0.375c1.0957-0.07,2.1849-0.094,3.3125-0.094,27.983,0,50.571,22.44,50.656,50.25,0.0002,0.011,0,0.021,0,0.031-0.3124,10.262-5.2988,23.335-13.781,33.406-8.4904,10.081-20.114,17.158-34.062,17.125-4.9764-0.012-38.601-0.023-41.745-0.031,0,0-3.4728-0.4728-3.4728,5s3.4728,5,3.4728,5c3.1382,0.01,36.747,0.02,41.714,0.031,17.372,0.041,31.814-8.8896,41.75-20.688,9.9365-11.798,15.737-26.462,16.125-39.562v-0.094-0.062c0-32.838-26.484-59.59-59.25-60.344-0.56-40.815-33.97-73.816-75.05-73.816z"/>
</svg>
