<!-- Created with Inkscape (http://www.inkscape.org/) -->

<svg xmlns:rdf="http://www.w3.org/1999/02/22-rdf-syntax-ns#" xmlns="http://www.w3.org/2000/svg" version="1.1" xmlns:cc="http://creativecommons.org/ns#" xmlns:dc="http://purl.org/dc/elements/1.1/" viewBox="0 0 258.12 258.12">

	<metadata>

		<rdf:RDF>

			<cc:Work rdf:about="">

				<dc:format>image/svg+xml</dc:format>

				<dc:type rdf:resource="http://purl.org/dc/dcmitype/StillImage"/>

				<dc:title/>

			</cc:Work>

		</rdf:RDF>

	</metadata>

	<path style="baseline-shift:baseline;block-progression:tb;color:#000000;direction:ltr;text-indent:0;text-align:start;enable-background:accumulate;text-transform:none;" fill="#fff" d="M15.534,200.16,0,258.12,57.961,242.59s127.6-127.6,191.4-191.4c11.674-11.674,11.674-30.753,0-42.426-11.674-11.674-30.753-11.674-42.426,0-63.801,63.801-191.4,191.4-191.4,191.4zm8.9494,5.1928,7.999-7.9991,7.0711-7.0711,152.4-152.4,7.0711-7.0711,14.982-14.982c7.8523-7.8523,20.432-7.8524,28.284,0,7.8523,7.8523,7.8521,20.432,0,28.284l-14.982,14.982-7.0711,7.071-152.4,152.4-7.0711,7.0711-7.9549,7.9549-38.67,10.386,10.342-38.626z"/>

	<rect style="enable-background:accumulate;color:#000000;" fill-rule="nonzero" transform="matrix(0.70710678,-0.70710678,0.70710678,0.70710678,0,0)" height="47.73" width="10" y="158.74" x="-115.53" fill="#fff"/>

	<rect style="enable-background:accumulate;color:#000000;" fill-rule="nonzero" transform="matrix(0.70710678,-0.70710678,0.70710678,0.70710678,0,0)" height="47.73" width="10" y="158.74" x="112.47" fill="#fff"/>

	<rect style="enable-background:accumulate;color:#000000;" fill-rule="nonzero" transform="matrix(0.70710678,0.70710678,-0.70710678,0.70710678,0,0)" height="233.23" width="10" y="-119.83" x="177.61" fill="#fff"/>

</svg>

