<!-- Created with Inkscape (http://www.inkscape.org/) -->
<svg xmlns:rdf="http://www.w3.org/1999/02/22-rdf-syntax-ns#" xmlns="http://www.w3.org/2000/svg" version="1.1" xmlns:cc="http://creativecommons.org/ns#" xmlns:dc="http://purl.org/dc/elements/1.1/" viewBox="0 0 254.99 254.99">
	<metadata>
		<rdf:RDF>
			<cc:Work rdf:about="">
				<dc:format>image/svg+xml</dc:format>
				<dc:type rdf:resource="http://purl.org/dc/dcmitype/StillImage"/>
				<dc:title/>
			</cc:Work>
		</rdf:RDF>
	</metadata>
	<path style="baseline-shift:baseline;block-progression:tb;color:#000000;direction:ltr;text-indent:0;text-align:start;enable-background:accumulate;text-transform:none;" fill="#fff" d="m252.64,0.0028496a2.0996,2.0996,0,0,0,-0.6563,0.1875l-250.77,112.97a2.0996,2.0996,0,0,0,0.5312,3.9687l116.53,19.594,19.594,116.53a2.0996,2.0996,0,0,0,3.9688,0.5313l112.97-250.81a2.0996,2.0996,0,0,0,-1.9063,-2.9687h-0.031a2.0996,2.0996,0,0,0,-0.2187,0zm-29.65,23.719-101.72,101.72-87.125-14.66,188.84-87.058zm8.2813,8.2813-87.062,188.84-14.656-87.125,101.72-101.72z"/>
</svg>
