<!-- Created with Inkscape (http://www.inkscape.org/) -->
<svg xmlns:rdf="http://www.w3.org/1999/02/22-rdf-syntax-ns#" xmlns="http://www.w3.org/2000/svg" version="1.1" xmlns:cc="http://creativecommons.org/ns#" xmlns:dc="http://purl.org/dc/elements/1.1/" viewBox="0 0 166.35 281.18">
	<metadata>
		<rdf:RDF>
			<cc:Work rdf:about="">
				<dc:format>image/svg+xml</dc:format>
				<dc:type rdf:resource="http://purl.org/dc/dcmitype/StillImage"/>
				<dc:title/>
			</cc:Work>
		</rdf:RDF>
	</metadata>
	<path style="enable-background:accumulate;color:#000000;" fill-rule="nonzero" fill="#fff" d="m72.25,0.0022388c-0.6774-0.01-1.3477,0.014-2.0313,0.062-9.105,0.6492-17.673,5.4863-28.094,13.782-36.848,29.325-42.125,78.049-42.125,127.03,0,24.45,1.128,48.789,6.9062,70.875s16.48,42.142,35.406,56.312c7.5484,5.6522,14.549,9.7466,21.688,11.812,7.1387,2.0659,14.806,1.7923,21.281-1.5938,5.8757-3.0724,10.501-7.8418,12.281-13.312,1.7806-5.4709,1.4063-10.212,1.4063-15.75,0-5.7754-0.04-11.569-1.5937-17.531-1.5543-5.9619-4.9616-12.013-10.594-16.656-7.6619-6.3161-16.853-7.8875-24-8.4374-1.236-0.095-2.0275,0-3.1562-0.031v-131.22c1.2992,0,2.2477,0.1157,3.6874,0.031,7.4674-0.4381,16.996-1.812,24.844-8.2812,5.7915-4.7743,8.9214-11.263,10.031-17.281,1.1101-6.0186,0.7813-11.608,0.7813-17.281,0-5.8017,0.3943-10.5-1.4375-15.937-1.831-5.443-6.425-9.9374-12.093-13.037-3.882-2.1231-8.446-3.5105-13.187-3.5625zm-0.031,8.6562c3.2001,0.016,6.1579,0.8806,9.0625,2.4688,9.3987,5.1395,9.0625,9.6381,9.0625,21.406,0,11.769,0.8653,20.856-7.6875,27.906-10.739,8.8529-31.656,5.9687-31.656,5.9687v148.94s19.542-2.5092,30.281,6.3437c8.5528,7.0504,9.0625,16.24,9.0625,27.531,0,11.29,0.4167,16.449-9.0625,21.406-8.7364,4.5685-19.672,1.0965-33.781-9.4688-34.15-25.569-38.875-71.943-38.875-120.28,0-48.338,5.4053-93.644,38.875-120.28,9.8173-7.814,17.101-11.461,23.344-11.906,0.4682-0.033,0.9178-0.034,1.375-0.031z"/>
	<path style="enable-background:accumulate;color:#000000;" d="m115.39,95.46c4.6207,0,5.7939,3.4518,8.3407,8.3407,0,0,8.187,26.741,8.187,41.135s-8.187,41.135-8.187,41.135c-2.7461,4.5358-3.72,8.3407-8.3407,8.3407-4.6208,0-9.1917-3.799-8.3407-8.3407,1.7425-9.3003,8.332-26.427,8.187-41.135s-4.9412-32.237-8.187-41.135c-1.5836-4.341,3.7199-8.3407,8.3407-8.3407z" fill-rule="nonzero" fill="#fff"/>
	<path style="enable-background:accumulate;color:#000000;" d="m146.75,63.156c4.6207,0,6.8662,3.8352,9.413,12.115,0,0,10.187,45.288,10.187,69.664,0,24.377-10.187,69.664-10.187,69.664-2.7461,7.6816-4.7923,10.908-9.413,10.908-4.6208,0-8.1194-3.2168-7.2684-10.908,1.7425-15.751,10.332-44.755,10.187-69.664s-6.9412-54.596-10.187-69.664c-1.5836-7.3516,2.6476-12.115,7.2684-12.115z" fill-rule="nonzero" fill="#fff"/>
</svg>
