<!-- Created with Inkscape (http://www.inkscape.org/) -->
<svg xmlns:rdf="http://www.w3.org/1999/02/22-rdf-syntax-ns#" xmlns="http://www.w3.org/2000/svg" version="1.1" xmlns:cc="http://creativecommons.org/ns#" xmlns:dc="http://purl.org/dc/elements/1.1/" viewBox="0 0 260.59 260.59">
	<metadata>
		<rdf:RDF>
			<cc:Work rdf:about="">
				<dc:format>image/svg+xml</dc:format>
				<dc:type rdf:resource="http://purl.org/dc/dcmitype/StillImage"/>
				<dc:title/>
			</cc:Work>
		</rdf:RDF>
	</metadata>
	<path style="enable-background:accumulate;color:#000000;" d="M130.28,0c-71.96,0-130.28,58.32-130.28,130.28,0,71.962,58.32,130.31,130.28,130.31,33.081,0,53.933-11.842,53.933-11.842l70.513,9.7457-11.16-64.409v-0.029s17.025-18.925,17.025-63.777c0.01-71.96-58.34-130.28-130.3-130.28zm0,10.348c66.24,0,119.96,53.694,119.96,119.93,0,40.844-19.168,64.316-19.168,64.316l10.1,49.356-55.047-7.3327s-24.048,13.595-55.848,13.595c-66.24,0-119.93-53.695-119.93-119.93,0-66.24,53.695-119.93,119.93-119.93z" fill-rule="nonzero" fill="#fff"/>
	<path style="enable-background:accumulate;color:#000000;" d="m76.744,169.24,107.1,0c3.5627,0,6.4308,2.868,6.4308,6.4308,0,3.5626-2.8681,6.4308-6.4308,6.4308h-107.1c-3.5626,0-6.4308-2.8682-6.4308-6.4308,0-3.5628,2.8682-6.4308,6.4308-6.4308z" fill-rule="nonzero" fill="#fff"/>
	<path style="enable-background:accumulate;color:#000000;" d="m76.744,123.88,107.1,0c3.5627,0,6.4308,2.8681,6.4308,6.4309,0,3.5626-2.8681,6.4308-6.4308,6.4308h-107.1c-3.5626,0-6.4308-2.8682-6.4308-6.4308,0-3.5628,2.8682-6.4309,6.4308-6.4309z" fill-rule="nonzero" fill="#fff"/>
	<path style="enable-background:accumulate;color:#000000;" d="m76.744,78.509,107.1,0c3.5627,0,6.4308,2.8681,6.4308,6.4308s-2.8681,6.4308-6.4308,6.4308h-107.1c-3.5626,0-6.4308-2.8681-6.4308-6.4308s2.8682-6.4308,6.4308-6.4308z" fill-rule="nonzero" fill="#fff"/>
</svg>
