<!-- Created with Inkscape (http://www.inkscape.org/) -->
<svg xmlns:rdf="http://www.w3.org/1999/02/22-rdf-syntax-ns#" xmlns="http://www.w3.org/2000/svg" height="49.188" width="28.281" version="1.1" xmlns:cc="http://creativecommons.org/ns#" xmlns:dc="http://purl.org/dc/elements/1.1/">
	<metadata>
		<rdf:RDF>
			<cc:Work rdf:about="">
				<dc:format>image/svg+xml</dc:format>
				<dc:type rdf:resource="http://purl.org/dc/dcmitype/StillImage"/>
				<dc:title/>
			</cc:Work>
		</rdf:RDF>
	</metadata>
	<path style="enable-background:accumulate;color:#000000;" d="M14.156,0c-7.8345,0-14.156,6.3215-14.156,14.156v20.875c0,7.8347,6.3215,14.156,14.156,14.156,7.8348,0,14.125-6.3215,14.125-14.156v-20.875c0-7.8345-6.29-14.156-14.125-14.156zm0,1.75c7.0023,0,12.625,5.677,12.625,12.75v20.188c0,7.073-5.6227,12.75-12.625,12.75-7.0021,0-12.656-5.678-12.656-12.75v-20.188c0-7.073,5.6539-12.75,12.656-12.75z" fill-rule="nonzero" fill="#fff"/>
	<rect style="enable-background:accumulate;color:#000000;" fill-rule="nonzero" rx="1.2188" ry="7.625" height="8.625" width="3.3934" y="8.5312" x="12.444" fill="#fff"/>
</svg>
