<!-- Created with Inkscape (http://www.inkscape.org/) -->

<svg xmlns:rdf="http://www.w3.org/1999/02/22-rdf-syntax-ns#" xmlns="http://www.w3.org/2000/svg" version="1.1" xmlns:cc="http://creativecommons.org/ns#" xmlns:dc="http://purl.org/dc/elements/1.1/" viewBox="0 0 5594.2 3145.6" preserveAspectRatio="none">

	<metadata>

		<rdf:RDF>

			<cc:Work rdf:about="">

				<dc:format>image/svg+xml</dc:format>

				<dc:type rdf:resource="http://purl.org/dc/dcmitype/StillImage"/>

				<dc:title/>

			</cc:Work>

		</rdf:RDF>

	</metadata>

	<path style="enable-background:accumulate;color:#000000;" d="m3394.3,470a21.429,21.429,0,1,1,-42.857,0,21.429,21.429,0,1,1,42.857,0z" fill-rule="nonzero" transform="matrix(0.23148477,0,0,0.23148477,3439.99,-77.72817)" fill="#FFF"/>

	<path style="enable-background:accumulate;color:#000000;" d="m3394.3,470a21.429,21.429,0,1,1,-42.857,0,21.429,21.429,0,1,1,42.857,0z" fill-rule="nonzero" transform="matrix(0.27983254,0,0,0.27983254,1695.7722,1570.9061)" fill="#FFF"/>

	<path style="enable-background:accumulate;color:#000000;" d="m3394.3,470a21.429,21.429,0,1,1,-42.857,0,21.429,21.429,0,1,1,42.857,0z" fill-rule="nonzero" transform="matrix(0.16809151,0,0,0.16809151,4289.831,2833.0138)" fill="#FFF"/>

	<path style="enable-background:accumulate;color:#000000;" d="m3394.3,470a21.429,21.429,0,1,1,-42.857,0,21.429,21.429,0,1,1,42.857,0z" fill-rule="nonzero" transform="matrix(0.2179409,0,0,0.2179409,3740.5512,804.20207)" fill="#FFF"/>

	<path style="enable-background:accumulate;color:#000000;" d="m3394.3,470a21.429,21.429,0,1,1,-42.857,0,21.429,21.429,0,1,1,42.857,0z" fill-rule="nonzero" transform="matrix(0.20863672,0,0,0.20863672,3322.9666,843.68227)" fill="#FFF"/>

	<path style="enable-background:accumulate;color:#000000;" d="m3394.3,470a21.429,21.429,0,1,1,-42.857,0,21.429,21.429,0,1,1,42.857,0z" fill-rule="nonzero" transform="matrix(0.18272023,0,0,0.18272023,308.41073,142.52363)" fill="#FFF"/>

	<path style="enable-background:accumulate;color:#000000;" d="m3394.3,470a21.429,21.429,0,1,1,-42.857,0,21.429,21.429,0,1,1,42.857,0z" fill-rule="nonzero" transform="matrix(0.18098249,0,0,0.18098249,1431.0186,12.59623)" fill="#FFF"/>

	<path style="enable-background:accumulate;color:#000000;" d="m3394.3,470a21.429,21.429,0,1,1,-42.857,0,21.429,21.429,0,1,1,42.857,0z" fill-rule="nonzero" transform="matrix(0.23045801,0,0,0.23045801,-417.22657,2170.6174)" fill="#FFF"/>

	<path style="enable-background:accumulate;color:#000000;" d="m3394.3,470a21.429,21.429,0,1,1,-42.857,0,21.429,21.429,0,1,1,42.857,0z" fill-rule="nonzero" transform="matrix(0.26596525,0,0,0.26596525,4630.249,1100.2358)" fill="#FFF"/>

	<path style="enable-background:accumulate;color:#000000;" d="m3394.3,470a21.429,21.429,0,1,1,-42.857,0,21.429,21.429,0,1,1,42.857,0z" fill-rule="nonzero" transform="matrix(0.14446075,0,0,0.14446075,1706.7787,1480.328)" fill="#FFF"/>

	<path style="enable-background:accumulate;color:#000000;" d="m3394.3,470a21.429,21.429,0,1,1,-42.857,0,21.429,21.429,0,1,1,42.857,0z" fill-rule="nonzero" transform="matrix(0.19733986,0,0,0.19733986,3328.0931,2054.4752)" fill="#FFF"/>

	<path style="enable-background:accumulate;color:#000000;" d="m3394.3,470a21.429,21.429,0,1,1,-42.857,0,21.429,21.429,0,1,1,42.857,0z" fill-rule="nonzero" transform="matrix(0.15440678,0,0,0.15440678,3598.9585,1577.0826)" fill="#FFF"/>

	<path style="enable-background:accumulate;color:#000000;" d="m3394.3,470a21.429,21.429,0,1,1,-42.857,0,21.429,21.429,0,1,1,42.857,0z" fill-rule="nonzero" transform="matrix(0.17115471,0,0,0.17115471,1026.4399,441.54963)" fill="#FFF"/>

	<path style="enable-background:accumulate;color:#000000;" d="m3394.3,470a21.429,21.429,0,1,1,-42.857,0,21.429,21.429,0,1,1,42.857,0z" fill-rule="nonzero" transform="matrix(0.25914166,0,0,0.25914166,2738.8769,891.83207)" fill="#FFF"/>

	<path style="enable-background:accumulate;color:#000000;" d="m3394.3,470a21.429,21.429,0,1,1,-42.857,0,21.429,21.429,0,1,1,42.857,0z" fill-rule="nonzero" transform="matrix(0.20326594,0,0,0.20326594,2507.5019,2211.0528)" fill="#FFF"/>

	<path style="enable-background:accumulate;color:#000000;" d="m3394.3,470a21.429,21.429,0,1,1,-42.857,0,21.429,21.429,0,1,1,42.857,0z" fill-rule="nonzero" transform="matrix(0.27502999,0,0,0.27502999,1524.1957,996.74757)" fill="#FFF"/>

	<path style="enable-background:accumulate;color:#000000;" d="m3394.3,470a21.429,21.429,0,1,1,-42.857,0,21.429,21.429,0,1,1,42.857,0z" fill-rule="nonzero" transform="matrix(0.16952001,0,0,0.16952001,2896.9697,1437.3406)" fill="#FFF"/>

	<path style="enable-background:accumulate;color:#000000;" d="m3394.3,470a21.429,21.429,0,1,1,-42.857,0,21.429,21.429,0,1,1,42.857,0z" fill-rule="nonzero" transform="matrix(0.18896265,0,0,0.18896265,461.44073,1423.6711)" fill="#FFF"/>

	<path style="enable-background:accumulate;color:#000000;" d="m3394.3,470a21.429,21.429,0,1,1,-42.857,0,21.429,21.429,0,1,1,42.857,0z" fill-rule="nonzero" transform="matrix(0.18876905,0,0,0.18876905,200.42003,2534.9894)" fill="#FFF"/>

	<path style="enable-background:accumulate;color:#000000;" d="m3394.3,470a21.429,21.429,0,1,1,-42.857,0,21.429,21.429,0,1,1,42.857,0z" fill-rule="nonzero" transform="matrix(0.16165277,0,0,0.16165277,4209.101,1740.9222)" fill="#FFF"/>

	<path style="enable-background:accumulate;color:#000000;" d="m3394.3,470a21.429,21.429,0,1,1,-42.857,0,21.429,21.429,0,1,1,42.857,0z" fill-rule="nonzero" transform="matrix(0.27707291,0,0,0.27707291,-685.21987,552.06493)" fill="#FFF"/>

	<path style="enable-background:accumulate;color:#000000;" d="m3394.3,470a21.429,21.429,0,1,1,-42.857,0,21.429,21.429,0,1,1,42.857,0z" fill-rule="nonzero" transform="matrix(0.2083704,0,0,0.2083704,4799.518,813.30647)" fill="#FFF"/>

	<path style="enable-background:accumulate;color:#000000;" d="m3394.3,470a21.429,21.429,0,1,1,-42.857,0,21.429,21.429,0,1,1,42.857,0z" fill-rule="nonzero" transform="matrix(0.19920951,0,0,0.19920951,2302.8603,323.90123)" fill="#FFF"/>

	<path style="enable-background:accumulate;color:#000000;" d="m3394.3,470a21.429,21.429,0,1,1,-42.857,0,21.429,21.429,0,1,1,42.857,0z" fill-rule="nonzero" transform="matrix(0.18071586,0,0,0.18071586,4746.443,1833.311)" fill="#FFF"/>

	<path style="enable-background:accumulate;color:#000000;" d="m3394.3,470a21.429,21.429,0,1,1,-42.857,0,21.429,21.429,0,1,1,42.857,0z" fill-rule="nonzero" transform="matrix(0.12555935,0,0,0.12555935,53.020833,1123.273)" fill="#FFF"/>

	<path style="enable-background:accumulate;color:#000000;" d="m3394.3,470a21.429,21.429,0,1,1,-42.857,0,21.429,21.429,0,1,1,42.857,0z" fill-rule="nonzero" transform="matrix(0.18935087,0,0,0.18935087,4630.112,855.40397)" fill="#FFF"/>

	<path style="enable-background:accumulate;color:#000000;" d="m3394.3,470a21.429,21.429,0,1,1,-42.857,0,21.429,21.429,0,1,1,42.857,0z" fill-rule="nonzero" transform="matrix(0.22656317,0,0,0.22656317,3688.6314,1138.6374)" fill="#FFF"/>

	<path style="enable-background:accumulate;color:#000000;" d="m3394.3,470a21.429,21.429,0,1,1,-42.857,0,21.429,21.429,0,1,1,42.857,0z" fill-rule="nonzero" transform="matrix(0.14761053,0,0,0.14761053,256.21113,2137.5051)" fill="#FFF"/>

	<path style="enable-background:accumulate;color:#000000;" d="m3394.3,470a21.429,21.429,0,1,1,-42.857,0,21.429,21.429,0,1,1,42.857,0z" fill-rule="nonzero" transform="matrix(0.16338666,0,0,0.16338666,572.24553,1361.9528)" fill="#FFF"/>

	<path style="enable-background:accumulate;color:#000000;" d="m3394.3,470a21.429,21.429,0,1,1,-42.857,0,21.429,21.429,0,1,1,42.857,0z" fill-rule="nonzero" transform="matrix(0.24275229,0,0,0.24275229,3470.9617,2175.1385)" fill="#FFF"/>

	<path style="enable-background:accumulate;color:#000000;" d="m3394.3,470a21.429,21.429,0,1,1,-42.857,0,21.429,21.429,0,1,1,42.857,0z" fill-rule="nonzero" transform="matrix(0.18028866,0,0,0.18028866,4733.914,600.07693)" fill="#FFF"/>

	<path style="enable-background:accumulate;color:#000000;" d="m3394.3,470a21.429,21.429,0,1,1,-42.857,0,21.429,21.429,0,1,1,42.857,0z" fill-rule="nonzero" transform="matrix(0.13606473,0,0,0.13606473,808.97443,1072.4793)" fill="#FFF"/>

	<path style="enable-background:accumulate;color:#000000;" d="m3394.3,470a21.429,21.429,0,1,1,-42.857,0,21.429,21.429,0,1,1,42.857,0z" fill-rule="nonzero" transform="matrix(0.20143562,0,0,0.20143562,3525.897,503.87343)" fill="#FFF"/>

	<path style="enable-background:accumulate;color:#000000;" d="m3394.3,470a21.429,21.429,0,1,1,-42.857,0,21.429,21.429,0,1,1,42.857,0z" fill-rule="nonzero" transform="matrix(0.16116214,0,0,0.16116214,2367.6951,212.28083)" fill="#FFF"/>

	<path style="enable-background:accumulate;color:#000000;" d="m3394.3,470a21.429,21.429,0,1,1,-42.857,0,21.429,21.429,0,1,1,42.857,0z" fill-rule="nonzero" transform="matrix(0.27969374,0,0,0.27969374,3172.9048,1147.506)" fill="#FFF"/>

	<path style="enable-background:accumulate;color:#000000;" d="m3394.3,470a21.429,21.429,0,1,1,-42.857,0,21.429,21.429,0,1,1,42.857,0z" fill-rule="nonzero" transform="matrix(0.20652805,0,0,0.20652805,3756.4477,447.06803)" fill="#FFF"/>

	<path style="enable-background:accumulate;color:#000000;" d="m3394.3,470a21.429,21.429,0,1,1,-42.857,0,21.429,21.429,0,1,1,42.857,0z" fill-rule="nonzero" transform="matrix(0.18060147,0,0,0.18060147,2178.6146,1412.3451)" fill="#FFF"/>

	<path style="enable-background:accumulate;color:#000000;" d="m3394.3,470a21.429,21.429,0,1,1,-42.857,0,21.429,21.429,0,1,1,42.857,0z" fill-rule="nonzero" transform="matrix(0.25909593,0,0,0.25909593,3212.3894,2323.8429)" fill="#FFF"/>

	<path style="enable-background:accumulate;color:#000000;" d="m3394.3,470a21.429,21.429,0,1,1,-42.857,0,21.429,21.429,0,1,1,42.857,0z" fill-rule="nonzero" transform="matrix(0.21495444,0,0,0.21495444,3701.977,2194.5643)" fill="#FFF"/>

	<path style="enable-background:accumulate;color:#000000;" d="m3394.3,470a21.429,21.429,0,1,1,-42.857,0,21.429,21.429,0,1,1,42.857,0z" fill-rule="nonzero" transform="matrix(0.17738136,0,0,0.17738136,734.99023,1430.5515)" fill="#FFF"/>

	<path style="enable-background:accumulate;color:#000000;" d="m3394.3,470a21.429,21.429,0,1,1,-42.857,0,21.429,21.429,0,1,1,42.857,0z" fill-rule="nonzero" transform="matrix(0.23362328,0,0,0.23362328,1906.7785,1261.5539)" fill="#FFF"/>

	<path style="enable-background:accumulate;color:#000000;" d="m3394.3,470a21.429,21.429,0,1,1,-42.857,0,21.429,21.429,0,1,1,42.857,0z" fill-rule="nonzero" transform="matrix(0.26476312,0,0,0.26476312,3986.6045,478.21583)" fill="#FFF"/>

	<path style="enable-background:accumulate;color:#000000;" d="m3394.3,470a21.429,21.429,0,1,1,-42.857,0,21.429,21.429,0,1,1,42.857,0z" fill-rule="nonzero" transform="matrix(0.13544057,0,0,0.13544057,2903.5568,-60.75477)" fill="#FFF"/>

	<path style="enable-background:accumulate;color:#000000;" d="m3394.3,470a21.429,21.429,0,1,1,-42.857,0,21.429,21.429,0,1,1,42.857,0z" fill-rule="nonzero" transform="matrix(0.19710805,0,0,0.19710805,1453.9516,1188.4888)" fill="#FFF"/>

	<path style="enable-background:accumulate;color:#000000;" d="m3394.3,470a21.429,21.429,0,1,1,-42.857,0,21.429,21.429,0,1,1,42.857,0z" fill-rule="nonzero" transform="matrix(0.19904387,0,0,0.19904387,2711.4061,562.66443)" fill="#FFF"/>

	<path style="enable-background:accumulate;color:#000000;" d="m3394.3,470a21.429,21.429,0,1,1,-42.857,0,21.429,21.429,0,1,1,42.857,0z" fill-rule="nonzero" transform="matrix(0.18832587,0,0,0.18832587,-132.97527,391.51803)" fill="#FFF"/>

	<path style="enable-background:accumulate;color:#000000;" d="m3394.3,470a21.429,21.429,0,1,1,-42.857,0,21.429,21.429,0,1,1,42.857,0z" fill-rule="nonzero" transform="matrix(0.17845669,0,0,0.17845669,-138.78127,180.98353)" fill="#FFF"/>

	<path style="enable-background:accumulate;color:#000000;" d="m3394.3,470a21.429,21.429,0,1,1,-42.857,0,21.429,21.429,0,1,1,42.857,0z" fill-rule="nonzero" transform="matrix(0.27401036,0,0,0.27401036,41.415333,1961.6351)" fill="#FFF"/>

	<path style="enable-background:accumulate;color:#000000;" d="m3394.3,470a21.429,21.429,0,1,1,-42.857,0,21.429,21.429,0,1,1,42.857,0z" fill-rule="nonzero" transform="matrix(0.25385298,0,0,0.25385298,2791.5777,952.18397)" fill="#FFF"/>

	<path style="enable-background:accumulate;color:#000000;" d="m3394.3,470a21.429,21.429,0,1,1,-42.857,0,21.429,21.429,0,1,1,42.857,0z" fill-rule="nonzero" transform="matrix(0.22267714,0,0,0.22267714,3664.8484,2429.6793)" fill="#FFF"/>

	<path style="enable-background:accumulate;color:#000000;" d="m3394.3,470a21.429,21.429,0,1,1,-42.857,0,21.429,21.429,0,1,1,42.857,0z" fill-rule="nonzero" transform="matrix(0.24334339,0,0,0.24334339,3077.4274,367.10753)" fill="#FFF"/>

	<path style="enable-background:accumulate;color:#000000;" d="m3394.3,470a21.429,21.429,0,1,1,-42.857,0,21.429,21.429,0,1,1,42.857,0z" fill-rule="nonzero" transform="matrix(0.12413824,0,0,0.12413824,3793.5543,419.89653)" fill="#FFF"/>

	<path style="enable-background:accumulate;color:#000000;" d="m3394.3,470a21.429,21.429,0,1,1,-42.857,0,21.429,21.429,0,1,1,42.857,0z" fill-rule="nonzero" transform="matrix(0.23831936,0,0,0.23831936,986.81723,1257.5417)" fill="#FFF"/>

	<path style="enable-background:accumulate;color:#000000;" d="m3394.3,470a21.429,21.429,0,1,1,-42.857,0,21.429,21.429,0,1,1,42.857,0z" fill-rule="nonzero" transform="matrix(0.18660492,0,0,0.18660492,2430.6614,185.27953)" fill="#FFF"/>

	<path style="enable-background:accumulate;color:#000000;" d="m3394.3,470a21.429,21.429,0,1,1,-42.857,0,21.429,21.429,0,1,1,42.857,0z" fill-rule="nonzero" transform="matrix(0.1186697,0,0,0.1186697,1773.2415,926.99137)" fill="#FFF"/>

	<path style="enable-background:accumulate;color:#000000;" d="m3394.3,470a21.429,21.429,0,1,1,-42.857,0,21.429,21.429,0,1,1,42.857,0z" fill-rule="nonzero" transform="matrix(0.16628824,0,0,0.16628824,1304.3031,911.26657)" fill="#FFF"/>

	<path style="enable-background:accumulate;color:#000000;" d="m3394.3,470a21.429,21.429,0,1,1,-42.857,0,21.429,21.429,0,1,1,42.857,0z" fill-rule="nonzero" transform="matrix(0.26983728,0,0,0.26983728,-129.76237,931.50397)" fill="#FFF"/>

	<path style="enable-background:accumulate;color:#000000;" d="m3394.3,470a21.429,21.429,0,1,1,-42.857,0,21.429,21.429,0,1,1,42.857,0z" fill-rule="nonzero" transform="matrix(0.20533914,0,0,0.20533914,146.05613,1077.6044)" fill="#FFF"/>

	<path style="enable-background:accumulate;color:#000000;" d="m3394.3,470a21.429,21.429,0,1,1,-42.857,0,21.429,21.429,0,1,1,42.857,0z" fill-rule="nonzero" transform="matrix(0.15807257,0,0,0.15807257,2274.9051,1165.012)" fill="#FFF"/>

	<path style="enable-background:accumulate;color:#000000;" d="m3394.3,470a21.429,21.429,0,1,1,-42.857,0,21.429,21.429,0,1,1,42.857,0z" fill-rule="nonzero" transform="matrix(0.12441628,0,0,0.12441628,777.46403,2487.2884)" fill="#FFF"/>

	<path style="enable-background:accumulate;color:#000000;" d="m3394.3,470a21.429,21.429,0,1,1,-42.857,0,21.429,21.429,0,1,1,42.857,0z" fill-rule="nonzero" transform="matrix(0.12235356,0,0,0.12235356,426.05843,425.27793)" fill="#FFF"/>

	<path style="enable-background:accumulate;color:#000000;" d="m3394.3,470a21.429,21.429,0,1,1,-42.857,0,21.429,21.429,0,1,1,42.857,0z" fill-rule="nonzero" transform="matrix(0.27573225,0,0,0.27573225,3932.1725,1832.1078)" fill="#FFF"/>

	<path style="enable-background:accumulate;color:#000000;" d="m3394.3,470a21.429,21.429,0,1,1,-42.857,0,21.429,21.429,0,1,1,42.857,0z" fill-rule="nonzero" transform="matrix(0.17336039,0,0,0.17336039,28.210833,2358.4953)" fill="#FFF"/>

	<path style="enable-background:accumulate;color:#000000;" d="m3394.3,470a21.429,21.429,0,1,1,-42.857,0,21.429,21.429,0,1,1,42.857,0z" fill-rule="nonzero" transform="matrix(0.2220707,0,0,0.2220707,2532.5059,1903.6167)" fill="#FFF"/>

	<path style="enable-background:accumulate;color:#000000;" d="m3394.3,470a21.429,21.429,0,1,1,-42.857,0,21.429,21.429,0,1,1,42.857,0z" fill-rule="nonzero" transform="matrix(0.22479447,0,0,0.22479447,4185.008,2402.1208)" fill="#FFF"/>

	<path style="enable-background:accumulate;color:#000000;" d="m3394.3,470a21.429,21.429,0,1,1,-42.857,0,21.429,21.429,0,1,1,42.857,0z" fill-rule="nonzero" transform="matrix(0.21166943,0,0,0.21166943,925.99563,2110.7952)" fill="#FFF"/>

	<path style="enable-background:accumulate;color:#000000;" d="m3394.3,470a21.429,21.429,0,1,1,-42.857,0,21.429,21.429,0,1,1,42.857,0z" fill-rule="nonzero" transform="matrix(0.18765022,0,0,0.18765022,1198.8044,182.05913)" fill="#FFF"/>

	<path style="enable-background:accumulate;color:#000000;" d="m3394.3,470a21.429,21.429,0,1,1,-42.857,0,21.429,21.429,0,1,1,42.857,0z" fill-rule="nonzero" transform="matrix(0.14025399,0,0,0.14025399,1718.2864,2189.2972)" fill="#FFF"/>

	<path style="enable-background:accumulate;color:#000000;" d="m3394.3,470a21.429,21.429,0,1,1,-42.857,0,21.429,21.429,0,1,1,42.857,0z" fill-rule="nonzero" transform="matrix(0.22340699,0,0,0.22340699,1887.7257,1262.189)" fill="#FFF"/>

	<path style="enable-background:accumulate;color:#000000;" d="m3394.3,470a21.429,21.429,0,1,1,-42.857,0,21.429,21.429,0,1,1,42.857,0z" fill-rule="nonzero" transform="matrix(0.20807081,0,0,0.20807081,-482.19597,2214.2125)" fill="#FFF"/>

	<path style="enable-background:accumulate;color:#000000;" d="m3394.3,470a21.429,21.429,0,1,1,-42.857,0,21.429,21.429,0,1,1,42.857,0z" fill-rule="nonzero" transform="matrix(0.13827893,0,0,0.13827893,3269.3385,1261.5676)" fill="#FFF"/>

	<path style="enable-background:accumulate;color:#000000;" d="m3394.3,470a21.429,21.429,0,1,1,-42.857,0,21.429,21.429,0,1,1,42.857,0z" fill-rule="nonzero" transform="matrix(0.18457063,0,0,0.18457063,2613.6631,870.84067)" fill="#FFF"/>

	<path style="enable-background:accumulate;color:#000000;" d="m3394.3,470a21.429,21.429,0,1,1,-42.857,0,21.429,21.429,0,1,1,42.857,0z" fill-rule="nonzero" transform="matrix(0.18845029,0,0,0.18845029,2173.187,498.62323)" fill="#FFF"/>

	<path style="enable-background:accumulate;color:#000000;" d="m3394.3,470a21.429,21.429,0,1,1,-42.857,0,21.429,21.429,0,1,1,42.857,0z" fill-rule="nonzero" transform="matrix(0.27675286,0,0,0.27675286,2759.6207,-20.28437)" fill="#FFF"/>

	<path style="enable-background:accumulate;color:#000000;" d="m3394.3,470a21.429,21.429,0,1,1,-42.857,0,21.429,21.429,0,1,1,42.857,0z" fill-rule="nonzero" transform="matrix(0.15344188,0,0,0.15344188,3831.7823,52.60953)" fill="#FFF"/>

	<path style="enable-background:accumulate;color:#000000;" d="m3394.3,470a21.429,21.429,0,1,1,-42.857,0,21.429,21.429,0,1,1,42.857,0z" fill-rule="nonzero" transform="matrix(0.19503699,0,0,0.19503699,1108.7513,605.01913)" fill="#FFF"/>

	<path style="enable-background:accumulate;color:#000000;" d="m3394.3,470a21.429,21.429,0,1,1,-42.857,0,21.429,21.429,0,1,1,42.857,0z" fill-rule="nonzero" transform="matrix(0.25573128,0,0,0.25573128,2613.7108,1406.1478)" fill="#FFF"/>

	<path style="enable-background:accumulate;color:#000000;" d="m3394.3,470a21.429,21.429,0,1,1,-42.857,0,21.429,21.429,0,1,1,42.857,0z" fill-rule="nonzero" transform="matrix(0.24495992,0,0,0.24495992,1735.7562,1529.3617)" fill="#FFF"/>

	<path style="enable-background:accumulate;color:#000000;" d="m3394.3,470a21.429,21.429,0,1,1,-42.857,0,21.429,21.429,0,1,1,42.857,0z" fill-rule="nonzero" transform="matrix(0.16456934,0,0,0.16456934,4389.373,1696.4357)" fill="#FFF"/>

	<path style="enable-background:accumulate;color:#000000;" d="m3394.3,470a21.429,21.429,0,1,1,-42.857,0,21.429,21.429,0,1,1,42.857,0z" fill-rule="nonzero" transform="matrix(0.15500535,0,0,0.15500535,3162.6528,1960.9822)" fill="#FFF"/>

	<path style="enable-background:accumulate;color:#000000;" d="m3394.3,470a21.429,21.429,0,1,1,-42.857,0,21.429,21.429,0,1,1,42.857,0z" fill-rule="nonzero" transform="matrix(0.21951116,0,0,0.21951116,1317.8894,2006.2741)" fill="#FFF"/>

	<path style="enable-background:accumulate;color:#000000;" d="m3394.3,470a21.429,21.429,0,1,1,-42.857,0,21.429,21.429,0,1,1,42.857,0z" fill-rule="nonzero" transform="matrix(0.12080833,0,0,0.12080833,1090.6028,1148.6841)" fill="#FFF"/>

	<path style="enable-background:accumulate;color:#000000;" d="m3394.3,470a21.429,21.429,0,1,1,-42.857,0,21.429,21.429,0,1,1,42.857,0z" fill-rule="nonzero" transform="matrix(0.20474113,0,0,0.20474113,663.61463,2447.9979)" fill="#FFF"/>

	<path style="enable-background:accumulate;color:#000000;" d="m3394.3,470a21.429,21.429,0,1,1,-42.857,0,21.429,21.429,0,1,1,42.857,0z" fill-rule="nonzero" transform="matrix(0.15339182,0,0,0.15339182,3022.2486,2119.1405)" fill="#FFF"/>

	<path style="enable-background:accumulate;color:#000000;" d="m3394.3,470a21.429,21.429,0,1,1,-42.857,0,21.429,21.429,0,1,1,42.857,0z" fill-rule="nonzero" transform="matrix(0.20339003,0,0,0.20339003,4620.413,2768.4726)" fill="#FFF"/>

	<path style="enable-background:accumulate;color:#000000;" d="m3394.3,470a21.429,21.429,0,1,1,-42.857,0,21.429,21.429,0,1,1,42.857,0z" fill-rule="nonzero" transform="matrix(0.20071696,0,0,0.20071696,3989.15,170.94033)" fill="#FFF"/>

	<path style="enable-background:accumulate;color:#000000;" d="m3394.3,470a21.429,21.429,0,1,1,-42.857,0,21.429,21.429,0,1,1,42.857,0z" fill-rule="nonzero" transform="matrix(0.22246651,0,0,0.22246651,4066.835,287.91113)" fill="#FFF"/>

	<path style="enable-background:accumulate;color:#000000;" d="m3394.3,470a21.429,21.429,0,1,1,-42.857,0,21.429,21.429,0,1,1,42.857,0z" fill-rule="nonzero" transform="matrix(0.21806426,0,0,0.21806426,4178.669,803.18097)" fill="#FFF"/>

	<path style="enable-background:accumulate;color:#000000;" d="m3394.3,470a21.429,21.429,0,1,1,-42.857,0,21.429,21.429,0,1,1,42.857,0z" fill-rule="nonzero" transform="matrix(0.19032998,0,0,0.19032998,2697.6413,2041.4975)" fill="#FFF"/>

	<path style="enable-background:accumulate;color:#000000;" d="m3394.3,470a21.429,21.429,0,1,1,-42.857,0,21.429,21.429,0,1,1,42.857,0z" fill-rule="nonzero" transform="matrix(0.19593617,0,0,0.19593617,4393.565,2347.3319)" fill="#FFF"/>

	<path style="enable-background:accumulate;color:#000000;" d="m3394.3,470a21.429,21.429,0,1,1,-42.857,0,21.429,21.429,0,1,1,42.857,0z" fill-rule="nonzero" transform="matrix(0.22991627,0,0,0.22991627,271.32643,588.20263)" fill="#FFF"/>

	<path style="enable-background:accumulate;color:#000000;" d="m3394.3,470a21.429,21.429,0,1,1,-42.857,0,21.429,21.429,0,1,1,42.857,0z" fill-rule="nonzero" transform="matrix(0.2296132,0,0,0.2296132,-559.26467,291.11833)" fill="#FFF"/>

	<path style="enable-background:accumulate;color:#000000;" d="m3394.3,470a21.429,21.429,0,1,1,-42.857,0,21.429,21.429,0,1,1,42.857,0z" fill-rule="nonzero" transform="matrix(0.24175553,0,0,0.24175553,2059.1911,171.28693)" fill="#FFF"/>

	<path style="enable-background:accumulate;color:#000000;" d="m3394.3,470a21.429,21.429,0,1,1,-42.857,0,21.429,21.429,0,1,1,42.857,0z" fill-rule="nonzero" transform="matrix(0.17747478,0,0,0.17747478,1200.7201,558.69103)" fill="#FFF"/>

	<path style="enable-background:accumulate;color:#000000;" d="m3394.3,470a21.429,21.429,0,1,1,-42.857,0,21.429,21.429,0,1,1,42.857,0z" fill-rule="nonzero" transform="matrix(0.13407961,0,0,0.13407961,4173.4,44.80483)" fill="#FFF"/>

	<path style="enable-background:accumulate;color:#000000;" d="m3394.3,470a21.429,21.429,0,1,1,-42.857,0,21.429,21.429,0,1,1,42.857,0z" fill-rule="nonzero" transform="matrix(0.16896723,0,0,0.16896723,1367.5308,2072.4789)" fill="#FFF"/>

	<path style="enable-background:accumulate;color:#000000;" d="m3394.3,470a21.429,21.429,0,1,1,-42.857,0,21.429,21.429,0,1,1,42.857,0z" fill-rule="nonzero" transform="matrix(0.14619713,0,0,0.14619713,3885.3012,2743.459)" fill="#FFF"/>

	<path style="enable-background:accumulate;color:#000000;" d="m3394.3,470a21.429,21.429,0,1,1,-42.857,0,21.429,21.429,0,1,1,42.857,0z" fill-rule="nonzero" transform="matrix(0.15175979,0,0,0.15175979,720.67823,1238.6244)" fill="#FFF"/>

	<path style="enable-background:accumulate;color:#000000;" d="m3394.3,470a21.429,21.429,0,1,1,-42.857,0,21.429,21.429,0,1,1,42.857,0z" fill-rule="nonzero" transform="matrix(0.15612179,0,0,0.15612179,1461.499,604.66333)" fill="#FFF"/>

	<path style="enable-background:accumulate;color:#000000;" d="m3394.3,470a21.429,21.429,0,1,1,-42.857,0,21.429,21.429,0,1,1,42.857,0z" fill-rule="nonzero" transform="matrix(0.15172581,0,0,0.15172581,2090.9092,2887.4196)" fill="#FFF"/>

	<path style="enable-background:accumulate;color:#000000;" d="m3394.3,470a21.429,21.429,0,1,1,-42.857,0,21.429,21.429,0,1,1,42.857,0z" fill-rule="nonzero" transform="matrix(0.1922506,0,0,0.1922506,2849.1823,2630.844)" fill="#FFF"/>

	<path style="enable-background:accumulate;color:#000000;" d="m3394.3,470a21.429,21.429,0,1,1,-42.857,0,21.429,21.429,0,1,1,42.857,0z" fill-rule="nonzero" transform="matrix(0.1609516,0,0,0.1609516,4464.422,2208.0423)" fill="#FFF"/>

	<path style="enable-background:accumulate;color:#000000;" d="m3394.3,470a21.429,21.429,0,1,1,-42.857,0,21.429,21.429,0,1,1,42.857,0z" fill-rule="nonzero" transform="matrix(0.27813044,0,0,0.27813044,-285.00687,378.52763)" fill="#FFF"/>

	<path style="enable-background:accumulate;color:#000000;" d="m3394.3,470a21.429,21.429,0,1,1,-42.857,0,21.429,21.429,0,1,1,42.857,0z" fill-rule="nonzero" transform="matrix(0.16728145,0,0,0.16728145,705.39423,2172.6978)" fill="#FFF"/>

	<path style="enable-background:accumulate;color:#000000;" d="m3394.3,470a21.429,21.429,0,1,1,-42.857,0,21.429,21.429,0,1,1,42.857,0z" fill-rule="nonzero" transform="matrix(0.19672684,0,0,0.19672684,1245.1757,2731.9115)" fill="#FFF"/>

	<path style="enable-background:accumulate;color:#000000;" d="m3394.3,470a21.429,21.429,0,1,1,-42.857,0,21.429,21.429,0,1,1,42.857,0z" fill-rule="nonzero" transform="matrix(0.13811012,0,0,0.13811012,3743.0671,2630.866)" fill="#FFF"/>

	<path style="enable-background:accumulate;color:#000000;" d="m3394.3,470a21.429,21.429,0,1,1,-42.857,0,21.429,21.429,0,1,1,42.857,0z" fill-rule="nonzero" transform="matrix(0.14321575,0,0,0.14321575,4445.394,1396.7815)" fill="#FFF"/>

	<path style="enable-background:accumulate;color:#000000;" d="m3394.3,470a21.429,21.429,0,1,1,-42.857,0,21.429,21.429,0,1,1,42.857,0z" fill-rule="nonzero" transform="matrix(0.13345702,0,0,0.13345702,2294.686,316.26963)" fill="#FFF"/>

	<path style="enable-background:accumulate;color:#000000;" d="m3394.3,470a21.429,21.429,0,1,1,-42.857,0,21.429,21.429,0,1,1,42.857,0z" fill-rule="nonzero" transform="matrix(0.12505379,0,0,0.12505379,321.44143,2148.6964)" fill="#FFF"/>

	<path style="enable-background:accumulate;color:#000000;" d="m3394.3,470a21.429,21.429,0,1,1,-42.857,0,21.429,21.429,0,1,1,42.857,0z" fill-rule="nonzero" transform="matrix(0.18690726,0,0,0.18690726,3007.3323,1681.9877)" fill="#FFF"/>

	<path style="enable-background:accumulate;color:#000000;" d="m3394.3,470a21.429,21.429,0,1,1,-42.857,0,21.429,21.429,0,1,1,42.857,0z" fill-rule="nonzero" transform="matrix(0.23868601,0,0,0.23868601,703.24553,1983.2795)" fill="#FFF"/>

	<path style="enable-background:accumulate;color:#000000;" d="m3394.3,470a21.429,21.429,0,1,1,-42.857,0,21.429,21.429,0,1,1,42.857,0z" fill-rule="nonzero" transform="matrix(0.19901839,0,0,0.19901839,3235.5603,1924.4376)" fill="#FFF"/>

	<path style="enable-background:accumulate;color:#000000;" d="m3394.3,470a21.429,21.429,0,1,1,-42.857,0,21.429,21.429,0,1,1,42.857,0z" fill-rule="nonzero" transform="matrix(0.22712234,0,0,0.22712234,143.72763,918.50147)" fill="#FFF"/>

	<path style="enable-background:accumulate;color:#000000;" d="m3394.3,470a21.429,21.429,0,1,1,-42.857,0,21.429,21.429,0,1,1,42.857,0z" fill-rule="nonzero" transform="matrix(0.26775326,0,0,0.26775326,330.02523,28.10773)" fill="#FFF"/>

	<path style="enable-background:accumulate;color:#000000;" d="m3394.3,470a21.429,21.429,0,1,1,-42.857,0,21.429,21.429,0,1,1,42.857,0z" fill-rule="nonzero" transform="matrix(0.22499011,0,0,0.22499011,1926.3679,838.30777)" fill="#FFF"/>

	<path style="enable-background:accumulate;color:#000000;" d="m3394.3,470a21.429,21.429,0,1,1,-42.857,0,21.429,21.429,0,1,1,42.857,0z" fill-rule="nonzero" transform="matrix(0.14437296,0,0,0.14437296,4342.186,2222.3548)" fill="#FFF"/>

	<path style="enable-background:accumulate;color:#000000;" d="m3394.3,470a21.429,21.429,0,1,1,-42.857,0,21.429,21.429,0,1,1,42.857,0z" fill-rule="nonzero" transform="matrix(0.17432809,0,0,0.17432809,1507.728,-36.38677)" fill="#FFF"/>

	<path style="enable-background:accumulate;color:#000000;" d="m3394.3,470a21.429,21.429,0,1,1,-42.857,0,21.429,21.429,0,1,1,42.857,0z" fill-rule="nonzero" transform="matrix(0.19442149,0,0,0.19442149,4491.566,157.89593)" fill="#FFF"/>

	<path style="enable-background:accumulate;color:#000000;" d="m3394.3,470a21.429,21.429,0,1,1,-42.857,0,21.429,21.429,0,1,1,42.857,0z" fill-rule="nonzero" transform="matrix(0.17001644,0,0,0.17001644,2418.7553,2400.1867)" fill="#FFF"/>

	<path style="enable-background:accumulate;color:#000000;" d="m3394.3,470a21.429,21.429,0,1,1,-42.857,0,21.429,21.429,0,1,1,42.857,0z" fill-rule="nonzero" transform="matrix(0.13541022,0,0,0.13541022,3464.3327,999.59077)" fill="#FFF"/>

	<path style="enable-background:accumulate;color:#000000;" d="m3394.3,470a21.429,21.429,0,1,1,-42.857,0,21.429,21.429,0,1,1,42.857,0z" fill-rule="nonzero" transform="matrix(0.2526643,0,0,0.2526643,4623.771,297.44053)" fill="#FFF"/>

	<path style="enable-background:accumulate;color:#000000;" d="m3394.3,470a21.429,21.429,0,1,1,-42.857,0,21.429,21.429,0,1,1,42.857,0z" fill-rule="nonzero" transform="matrix(0.20338548,0,0,0.20338548,2224.5658,1553.1708)" fill="#FFF"/>

	<path style="enable-background:accumulate;color:#000000;" d="m3394.3,470a21.429,21.429,0,1,1,-42.857,0,21.429,21.429,0,1,1,42.857,0z" fill-rule="nonzero" transform="matrix(0.19988935,0,0,0.19988935,2278.0224,1852.1417)" fill="#FFF"/>

	<path style="enable-background:accumulate;color:#000000;" d="m3394.3,470a21.429,21.429,0,1,1,-42.857,0,21.429,21.429,0,1,1,42.857,0z" fill-rule="nonzero" transform="matrix(0.21515368,0,0,0.21515368,659.77333,881.69047)" fill="#FFF"/>

	<path style="enable-background:accumulate;color:#000000;" d="m3394.3,470a21.429,21.429,0,1,1,-42.857,0,21.429,21.429,0,1,1,42.857,0z" fill-rule="nonzero" transform="matrix(0.1757128,0,0,0.1757128,3318.3669,1579.1004)" fill="#FFF"/>

	<path style="enable-background:accumulate;color:#000000;" d="m3394.3,470a21.429,21.429,0,1,1,-42.857,0,21.429,21.429,0,1,1,42.857,0z" fill-rule="nonzero" transform="matrix(0.21567887,0,0,0.21567887,2262.455,1320.1252)" fill="#FFF"/>

	<path style="enable-background:accumulate;color:#000000;" d="m3394.3,470a21.429,21.429,0,1,1,-42.857,0,21.429,21.429,0,1,1,42.857,0z" fill-rule="nonzero" transform="matrix(0.24730918,0,0,0.24730918,4393.278,846.96937)" fill="#FFF"/>

	<path style="enable-background:accumulate;color:#000000;" d="m3394.3,470a21.429,21.429,0,1,1,-42.857,0,21.429,21.429,0,1,1,42.857,0z" fill-rule="nonzero" transform="matrix(0.22671283,0,0,0.22671283,4564,2330.1574)" fill="#FFF"/>

	<path style="enable-background:accumulate;color:#000000;" d="m3394.3,470a21.429,21.429,0,1,1,-42.857,0,21.429,21.429,0,1,1,42.857,0z" fill-rule="nonzero" transform="matrix(0.16033399,0,0,0.16033399,3788.6515,1566.8043)" fill="#FFF"/>

	<path style="enable-background:accumulate;color:#000000;" d="m3394.3,470a21.429,21.429,0,1,1,-42.857,0,21.429,21.429,0,1,1,42.857,0z" fill-rule="nonzero" transform="matrix(0.26641941,0,0,0.26641941,2530.4606,413.48993)" fill="#FFF"/>

	<path style="enable-background:accumulate;color:#000000;" d="m3394.3,470a21.429,21.429,0,1,1,-42.857,0,21.429,21.429,0,1,1,42.857,0z" fill-rule="nonzero" transform="matrix(0.18701974,0,0,0.18701974,4063.902,1750.1647)" fill="#FFF"/>

	<path style="enable-background:accumulate;color:#000000;" d="m3394.3,470a21.429,21.429,0,1,1,-42.857,0,21.429,21.429,0,1,1,42.857,0z" fill-rule="nonzero" transform="matrix(0.27528932,0,0,0.27528932,2480.553,726.86707)" fill="#FFF"/>

	<path style="enable-background:accumulate;color:#000000;" d="m3394.3,470a21.429,21.429,0,1,1,-42.857,0,21.429,21.429,0,1,1,42.857,0z" fill-rule="nonzero" transform="matrix(0.18354721,0,0,0.18354721,4497.839,168.01663)" fill="#FFF"/>

	<path style="enable-background:accumulate;color:#000000;" d="m3394.3,470a21.429,21.429,0,1,1,-42.857,0,21.429,21.429,0,1,1,42.857,0z" fill-rule="nonzero" transform="matrix(0.14300074,0,0,0.14300074,877.34343,2561.1215)" fill="#FFF"/>

	<path style="enable-background:accumulate;color:#000000;" d="m3394.3,470a21.429,21.429,0,1,1,-42.857,0,21.429,21.429,0,1,1,42.857,0z" fill-rule="nonzero" transform="matrix(0.26401266,0,0,0.26401266,185.46723,355.77093)" fill="#FFF"/>

	<path style="enable-background:accumulate;color:#000000;" d="m3394.3,470a21.429,21.429,0,1,1,-42.857,0,21.429,21.429,0,1,1,42.857,0z" fill-rule="nonzero" transform="matrix(0.21517398,0,0,0.21517398,4084.654,1545.3811)" fill="#FFF"/>

	<path style="enable-background:accumulate;color:#000000;" d="m3394.3,470a21.429,21.429,0,1,1,-42.857,0,21.429,21.429,0,1,1,42.857,0z" fill-rule="nonzero" transform="matrix(0.21453672,0,0,0.21453672,1250.5646,1081.5092)" fill="#FFF"/>

	<path style="enable-background:accumulate;color:#000000;" d="m3394.3,470a21.429,21.429,0,1,1,-42.857,0,21.429,21.429,0,1,1,42.857,0z" fill-rule="nonzero" transform="matrix(0.27621291,0,0,0.27621291,1353.7703,1432.0229)" fill="#FFF"/>

	<path style="enable-background:accumulate;color:#000000;" d="m3394.3,470a21.429,21.429,0,1,1,-42.857,0,21.429,21.429,0,1,1,42.857,0z" fill-rule="nonzero" transform="matrix(0.17680259,0,0,0.17680259,3228.9054,23.14693)" fill="#FFF"/>

	<path style="enable-background:accumulate;color:#000000;" d="m3394.3,470a21.429,21.429,0,1,1,-42.857,0,21.429,21.429,0,1,1,42.857,0z" fill-rule="nonzero" transform="matrix(0.24825614,0,0,0.24825614,3874.4764,27.67653)" fill="#FFF"/>

	<path style="enable-background:accumulate;color:#000000;" d="m3394.3,470a21.429,21.429,0,1,1,-42.857,0,21.429,21.429,0,1,1,42.857,0z" fill-rule="nonzero" transform="matrix(0.14299843,0,0,0.14299843,-66.305967,316.05463)" fill="#FFF"/>

	<path style="enable-background:accumulate;color:#000000;" d="m3394.3,470a21.429,21.429,0,1,1,-42.857,0,21.429,21.429,0,1,1,42.857,0z" fill-rule="nonzero" transform="matrix(0.17696185,0,0,0.17696185,4414.84,1926.9169)" fill="#FFF"/>

	<path style="enable-background:accumulate;color:#000000;" d="m3394.3,470a21.429,21.429,0,1,1,-42.857,0,21.429,21.429,0,1,1,42.857,0z" fill-rule="nonzero" transform="matrix(0.12028173,0,0,0.12028173,4117.945,735.68587)" fill="#FFF"/>

	<path style="enable-background:accumulate;color:#000000;" d="m3394.3,470a21.429,21.429,0,1,1,-42.857,0,21.429,21.429,0,1,1,42.857,0z" fill-rule="nonzero" transform="matrix(0.21785704,0,0,0.21785704,4418.854,693.22727)" fill="#FFF"/>

	<path style="enable-background:accumulate;color:#000000;" d="m3394.3,470a21.429,21.429,0,1,1,-42.857,0,21.429,21.429,0,1,1,42.857,0z" fill-rule="nonzero" transform="matrix(0.19593774,0,0,0.19593774,3344.1424,1337.5959)" fill="#FFF"/>

	<path style="enable-background:accumulate;color:#000000;" d="m3394.3,470a21.429,21.429,0,1,1,-42.857,0,21.429,21.429,0,1,1,42.857,0z" fill-rule="nonzero" transform="matrix(0.15160776,0,0,0.15160776,3142.1125,1327.182)" fill="#FFF"/>

	<path style="enable-background:accumulate;color:#000000;" d="m3394.3,470a21.429,21.429,0,1,1,-42.857,0,21.429,21.429,0,1,1,42.857,0z" fill-rule="nonzero" transform="matrix(0.24300669,0,0,0.24300669,1508.3042,1702.9469)" fill="#FFF"/>

	<path style="enable-background:accumulate;color:#000000;" d="m3394.3,470a21.429,21.429,0,1,1,-42.857,0,21.429,21.429,0,1,1,42.857,0z" fill-rule="nonzero" transform="matrix(0.12188015,0,0,0.12188015,4905.929,1968.0755)" fill="#FFF"/>

	<path style="enable-background:accumulate;color:#000000;" d="m3394.3,470a21.429,21.429,0,1,1,-42.857,0,21.429,21.429,0,1,1,42.857,0z" fill-rule="nonzero" transform="matrix(0.19156716,0,0,0.19156716,4141.291,1267.2707)" fill="#FFF"/>

	<path style="enable-background:accumulate;color:#000000;" d="m3394.3,470a21.429,21.429,0,1,1,-42.857,0,21.429,21.429,0,1,1,42.857,0z" fill-rule="nonzero" transform="matrix(0.22570992,0,0,0.22570992,492.27383,2073.4791)" fill="#FFF"/>

	<path style="enable-background:accumulate;color:#000000;" d="m3394.3,470a21.429,21.429,0,1,1,-42.857,0,21.429,21.429,0,1,1,42.857,0z" fill-rule="nonzero" transform="matrix(0.14771915,0,0,0.14771915,2037.0361,1898.215)" fill="#FFF"/>

	<path style="enable-background:accumulate;color:#000000;" d="m3394.3,470a21.429,21.429,0,1,1,-42.857,0,21.429,21.429,0,1,1,42.857,0z" fill-rule="nonzero" transform="matrix(0.16938099,0,0,0.16938099,3113.02,1489.8472)" fill="#FFF"/>

	<path style="enable-background:accumulate;color:#000000;" d="m3394.3,470a21.429,21.429,0,1,1,-42.857,0,21.429,21.429,0,1,1,42.857,0z" fill-rule="nonzero" transform="matrix(0.1322132,0,0,0.1322132,4903.289,1938.841)" fill="#FFF"/>

	<path style="enable-background:accumulate;color:#000000;" d="m3394.3,470a21.429,21.429,0,1,1,-42.857,0,21.429,21.429,0,1,1,42.857,0z" fill-rule="nonzero" transform="matrix(0.26205914,0,0,0.26205914,315.57273,761.07867)" fill="#FFF"/>

	<path style="enable-background:accumulate;color:#000000;" d="m3394.3,470a21.429,21.429,0,1,1,-42.857,0,21.429,21.429,0,1,1,42.857,0z" fill-rule="nonzero" transform="matrix(0.27612591,0,0,0.27612591,603.09903,1264.0533)" fill="#FFF"/>

	<path style="enable-background:accumulate;color:#000000;" d="m3394.3,470a21.429,21.429,0,1,1,-42.857,0,21.429,21.429,0,1,1,42.857,0z" fill-rule="nonzero" transform="matrix(0.13112449,0,0,0.13112449,3606.7602,1448.9235)" fill="#FFF"/>

	<path style="enable-background:accumulate;color:#000000;" d="m3394.3,470a21.429,21.429,0,1,1,-42.857,0,21.429,21.429,0,1,1,42.857,0z" fill-rule="nonzero" transform="matrix(0.19042431,0,0,0.19042431,4925.442,992.28737)" fill="#FFF"/>

	<path style="enable-background:accumulate;color:#000000;" d="m3394.3,470a21.429,21.429,0,1,1,-42.857,0,21.429,21.429,0,1,1,42.857,0z" fill-rule="nonzero" transform="matrix(0.26597836,0,0,0.26597836,1368.7037,908.67027)" fill="#FFF"/>

	<path style="enable-background:accumulate;color:#000000;" d="m3394.3,470a21.429,21.429,0,1,1,-42.857,0,21.429,21.429,0,1,1,42.857,0z" fill-rule="nonzero" transform="matrix(0.17602187,0,0,0.17602187,2511.3679,2796.4688)" fill="#FFF"/>

	<path style="enable-background:accumulate;color:#000000;" d="m3394.3,470a21.429,21.429,0,1,1,-42.857,0,21.429,21.429,0,1,1,42.857,0z" fill-rule="nonzero" transform="matrix(0.26897584,0,0,0.26897584,133.86143,94.459332)" fill="#FFF"/>

	<path style="enable-background:accumulate;color:#000000;" d="m3394.3,470a21.429,21.429,0,1,1,-42.857,0,21.429,21.429,0,1,1,42.857,0z" fill-rule="nonzero" transform="matrix(0.15460688,0,0,0.15460688,3375.0992,2185.7775)" fill="#FFF"/>

	<path style="enable-background:accumulate;color:#000000;" d="m3394.3,470a21.429,21.429,0,1,1,-42.857,0,21.429,21.429,0,1,1,42.857,0z" fill-rule="nonzero" transform="matrix(0.15186931,0,0,0.15186931,727.38803,2054.7664)" fill="#FFF"/>

	<path style="enable-background:accumulate;color:#000000;" d="m3394.3,470a21.429,21.429,0,1,1,-42.857,0,21.429,21.429,0,1,1,42.857,0z" fill-rule="nonzero" transform="matrix(0.24319113,0,0,0.24319113,-626.65917,2051.5169)" fill="#FFF"/>

	<path style="enable-background:accumulate;color:#000000;" d="m3394.3,470a21.429,21.429,0,1,1,-42.857,0,21.429,21.429,0,1,1,42.857,0z" fill-rule="nonzero" transform="matrix(0.19241005,0,0,0.19241005,4115.179,1454.8521)" fill="#FFF"/>

	<path style="enable-background:accumulate;color:#000000;" d="m3394.3,470a21.429,21.429,0,1,1,-42.857,0,21.429,21.429,0,1,1,42.857,0z" fill-rule="nonzero" transform="matrix(0.13189375,0,0,0.13189375,4606.326,1568.6525)" fill="#FFF"/>

	<path style="enable-background:accumulate;color:#000000;" d="m3394.3,470a21.429,21.429,0,1,1,-42.857,0,21.429,21.429,0,1,1,42.857,0z" fill-rule="nonzero" transform="matrix(0.1406357,0,0,0.1406357,1048.5964,2575.8395)" fill="#FFF"/>

	<path style="enable-background:accumulate;color:#000000;" d="m3394.3,470a21.429,21.429,0,1,1,-42.857,0,21.429,21.429,0,1,1,42.857,0z" fill-rule="nonzero" transform="matrix(0.27205992,0,0,0.27205992,2105.8157,532.91333)" fill="#FFF"/>

	<path style="enable-background:accumulate;color:#000000;" d="m3394.3,470a21.429,21.429,0,1,1,-42.857,0,21.429,21.429,0,1,1,42.857,0z" fill-rule="nonzero" transform="matrix(0.25425185,0,0,0.25425185,3624.0908,1907.6222)" fill="#FFF"/>

	<path style="enable-background:accumulate;color:#000000;" d="m3394.3,470a21.429,21.429,0,1,1,-42.857,0,21.429,21.429,0,1,1,42.857,0z" fill-rule="nonzero" transform="matrix(0.26108979,0,0,0.26108979,4132.315,1306.8124)" fill="#FFF"/>

	<path style="enable-background:accumulate;color:#000000;" d="m3394.3,470a21.429,21.429,0,1,1,-42.857,0,21.429,21.429,0,1,1,42.857,0z" fill-rule="nonzero" transform="matrix(0.24051205,0,0,0.24051205,4329.571,1722.4935)" fill="#FFF"/>

	<path style="enable-background:accumulate;color:#000000;" d="m3394.3,470a21.429,21.429,0,1,1,-42.857,0,21.429,21.429,0,1,1,42.857,0z" fill-rule="nonzero" transform="matrix(0.20314572,0,0,0.20314572,693.47963,190.11243)" fill="#FFF"/>

	<path style="enable-background:accumulate;color:#000000;" d="m3394.3,470a21.429,21.429,0,1,1,-42.857,0,21.429,21.429,0,1,1,42.857,0z" fill-rule="nonzero" transform="matrix(0.22109987,0,0,0.22109987,695.79253,1769.8284)" fill="#FFF"/>

	<path style="enable-background:accumulate;color:#000000;" d="m3394.3,470a21.429,21.429,0,1,1,-42.857,0,21.429,21.429,0,1,1,42.857,0z" fill-rule="nonzero" transform="matrix(0.144233,0,0,0.144233,-179.22887,1493.921)" fill="#FFF"/>

	<path style="enable-background:accumulate;color:#000000;" d="m3394.3,470a21.429,21.429,0,1,1,-42.857,0,21.429,21.429,0,1,1,42.857,0z" fill-rule="nonzero" transform="matrix(0.240293,0,0,0.240293,4150.331,872.01287)" fill="#FFF"/>

	<path style="enable-background:accumulate;color:#000000;" d="m3394.3,470a21.429,21.429,0,1,1,-42.857,0,21.429,21.429,0,1,1,42.857,0z" fill-rule="nonzero" transform="matrix(0.13830852,0,0,0.13830852,-220.72967,2633.7156)" fill="#FFF"/>

	<path style="enable-background:accumulate;color:#000000;" d="m3394.3,470a21.429,21.429,0,1,1,-42.857,0,21.429,21.429,0,1,1,42.857,0z" fill-rule="nonzero" transform="matrix(0.25452107,0,0,0.25452107,4570.85,-103.19567)" fill="#FFF"/>

	<path style="enable-background:accumulate;color:#000000;" d="m3394.3,470a21.429,21.429,0,1,1,-42.857,0,21.429,21.429,0,1,1,42.857,0z" fill-rule="nonzero" transform="matrix(0.16806721,0,0,0.16806721,911.13293,390.96963)" fill="#FFF"/>

	<path style="enable-background:accumulate;color:#000000;" d="m3394.3,470a21.429,21.429,0,1,1,-42.857,0,21.429,21.429,0,1,1,42.857,0z" fill-rule="nonzero" transform="matrix(0.22383124,0,0,0.22383124,-504.56247,441.27603)" fill="#FFF"/>

	<path style="enable-background:accumulate;color:#000000;" d="m3394.3,470a21.429,21.429,0,1,1,-42.857,0,21.429,21.429,0,1,1,42.857,0z" fill-rule="nonzero" transform="matrix(0.12722221,0,0,0.12722221,5106.784,31.50973)" fill="#FFF"/>

	<path style="enable-background:accumulate;color:#000000;" d="m3394.3,470a21.429,21.429,0,1,1,-42.857,0,21.429,21.429,0,1,1,42.857,0z" fill-rule="nonzero" transform="matrix(0.13441159,0,0,0.13441159,3540.781,1342.5676)" fill="#FFF"/>

	<path style="enable-background:accumulate;color:#000000;" d="m3394.3,470a21.429,21.429,0,1,1,-42.857,0,21.429,21.429,0,1,1,42.857,0z" fill-rule="nonzero" transform="matrix(0.19770063,0,0,0.19770063,1123.68,2547.3219)" fill="#FFF"/>

	<path style="enable-background:accumulate;color:#000000;" d="m3394.3,470a21.429,21.429,0,1,1,-42.857,0,21.429,21.429,0,1,1,42.857,0z" fill-rule="nonzero" transform="matrix(0.23925446,0,0,0.23925446,3838.7343,-62.39847)" fill="#FFF"/>

	<path style="enable-background:accumulate;color:#000000;" d="m3394.3,470a21.429,21.429,0,1,1,-42.857,0,21.429,21.429,0,1,1,42.857,0z" fill-rule="nonzero" transform="matrix(0.12386672,0,0,0.12386672,3776.412,2134.1773)" fill="#FFF"/>

	<path style="enable-background:accumulate;color:#000000;" d="m3394.3,470a21.429,21.429,0,1,1,-42.857,0,21.429,21.429,0,1,1,42.857,0z" fill-rule="nonzero" transform="matrix(0.17617772,0,0,0.17617772,2963.2561,2665.8407)" fill="#FFF"/>

	<path style="enable-background:accumulate;color:#000000;" d="m3394.3,470a21.429,21.429,0,1,1,-42.857,0,21.429,21.429,0,1,1,42.857,0z" fill-rule="nonzero" transform="matrix(0.16200443,0,0,0.16200443,3613.2934,1943.7928)" fill="#FFF"/>

	<path style="enable-background:accumulate;color:#000000;" d="m3394.3,470a21.429,21.429,0,1,1,-42.857,0,21.429,21.429,0,1,1,42.857,0z" fill-rule="nonzero" transform="matrix(0.1685927,0,0,0.1685927,2654.8924,1697.3525)" fill="#FFF"/>

	<path style="enable-background:accumulate;color:#000000;" d="m3394.3,470a21.429,21.429,0,1,1,-42.857,0,21.429,21.429,0,1,1,42.857,0z" fill-rule="nonzero" transform="matrix(0.16434207,0,0,0.16434207,54.405833,1694.8025)" fill="#FFF"/>

	<path style="enable-background:accumulate;color:#000000;" d="m3394.3,470a21.429,21.429,0,1,1,-42.857,0,21.429,21.429,0,1,1,42.857,0z" fill-rule="nonzero" transform="matrix(0.18384756,0,0,0.18384756,1515.4168,815.82607)" fill="#FFF"/>

	<path style="enable-background:accumulate;color:#000000;" d="m3394.3,470a21.429,21.429,0,1,1,-42.857,0,21.429,21.429,0,1,1,42.857,0z" fill-rule="nonzero" transform="matrix(0.15526295,0,0,0.15526295,2451.2485,1093.9212)" fill="#FFF"/>

	<path style="enable-background:accumulate;color:#000000;" d="m3394.3,470a21.429,21.429,0,1,1,-42.857,0,21.429,21.429,0,1,1,42.857,0z" fill-rule="nonzero" transform="matrix(0.27979308,0,0,0.27979308,2116.8766,163.67573)" fill="#FFF"/>

	<path style="enable-background:accumulate;color:#000000;" d="m3394.3,470a21.429,21.429,0,1,1,-42.857,0,21.429,21.429,0,1,1,42.857,0z" fill-rule="nonzero" transform="matrix(0.12574367,0,0,0.12574367,-234.57587,2232.3018)" fill="#FFF"/>

	<path style="enable-background:accumulate;color:#000000;" d="m3394.3,470a21.429,21.429,0,1,1,-42.857,0,21.429,21.429,0,1,1,42.857,0z" fill-rule="nonzero" transform="matrix(0.22221682,0,0,0.22221682,677.15343,1497.5762)" fill="#FFF"/>

	<path style="enable-background:accumulate;color:#000000;" d="m3394.3,470a21.429,21.429,0,1,1,-42.857,0,21.429,21.429,0,1,1,42.857,0z" fill-rule="nonzero" transform="matrix(0.2716153,0,0,0.2716153,2439.9411,1240.393)" fill="#FFF"/>

	<path style="enable-background:accumulate;color:#000000;" d="m3394.3,470a21.429,21.429,0,1,1,-42.857,0,21.429,21.429,0,1,1,42.857,0z" fill-rule="nonzero" transform="matrix(0.26586083,0,0,0.26586083,859.44663,1217.1076)" fill="#FFF"/>

	<path style="enable-background:accumulate;color:#000000;" d="m3394.3,470a21.429,21.429,0,1,1,-42.857,0,21.429,21.429,0,1,1,42.857,0z" fill-rule="nonzero" transform="matrix(0.13154139,0,0,0.13154139,2720.2227,2095.3728)" fill="#FFF"/>

	<path style="enable-background:accumulate;color:#000000;" d="m3394.3,470a21.429,21.429,0,1,1,-42.857,0,21.429,21.429,0,1,1,42.857,0z" fill-rule="nonzero" transform="matrix(0.22601913,0,0,0.22601913,-349.52647,106.43153)" fill="#FFF"/>

	<path style="enable-background:accumulate;color:#000000;" d="m3394.3,470a21.429,21.429,0,1,1,-42.857,0,21.429,21.429,0,1,1,42.857,0z" fill-rule="nonzero" transform="matrix(0.1662908,0,0,0.1662908,3194.4858,1273.6817)" fill="#FFF"/>

	<path style="enable-background:accumulate;color:#000000;" d="m3394.3,470a21.429,21.429,0,1,1,-42.857,0,21.429,21.429,0,1,1,42.857,0z" fill-rule="nonzero" transform="matrix(0.21098391,0,0,0.21098391,1288.5466,1297.9723)" fill="#FFF"/>

	<path style="enable-background:accumulate;color:#000000;" d="m3394.3,470a21.429,21.429,0,1,1,-42.857,0,21.429,21.429,0,1,1,42.857,0z" fill-rule="nonzero" transform="matrix(0.12429735,0,0,0.12429735,2445.371,-44.10187)" fill="#FFF"/>

	<path style="enable-background:accumulate;color:#000000;" d="m3394.3,470a21.429,21.429,0,1,1,-42.857,0,21.429,21.429,0,1,1,42.857,0z" fill-rule="nonzero" transform="matrix(0.26979995,0,0,0.26979995,1213.7589,1877.4783)" fill="#FFF"/>

	<path style="enable-background:accumulate;color:#000000;" d="m3394.3,470a21.429,21.429,0,1,1,-42.857,0,21.429,21.429,0,1,1,42.857,0z" fill-rule="nonzero" transform="matrix(0.21822546,0,0,0.21822546,4240.288,680.59987)" fill="#FFF"/>

	<path style="enable-background:accumulate;color:#000000;" d="m3394.3,470a21.429,21.429,0,1,1,-42.857,0,21.429,21.429,0,1,1,42.857,0z" fill-rule="nonzero" transform="matrix(0.15354334,0,0,0.15354334,3572.059,1404.6422)" fill="#FFF"/>

	<path style="enable-background:accumulate;color:#000000;" d="m3394.3,470a21.429,21.429,0,1,1,-42.857,0,21.429,21.429,0,1,1,42.857,0z" fill-rule="nonzero" transform="matrix(0.23601971,0,0,0.23601971,3691.5739,862.99417)" fill="#FFF"/>

	<path style="enable-background:accumulate;color:#000000;" d="m3394.3,470a21.429,21.429,0,1,1,-42.857,0,21.429,21.429,0,1,1,42.857,0z" fill-rule="nonzero" transform="matrix(0.12179596,0,0,0.12179596,5025.019,2949.5807)" fill="#FFF"/>

	<path style="enable-background:accumulate;color:#000000;" d="m3394.3,470a21.429,21.429,0,1,1,-42.857,0,21.429,21.429,0,1,1,42.857,0z" fill-rule="nonzero" transform="matrix(0.2103743,0,0,0.2103743,4335.86,255.32323)" fill="#FFF"/>

	<path style="enable-background:accumulate;color:#000000;" d="m3394.3,470a21.429,21.429,0,1,1,-42.857,0,21.429,21.429,0,1,1,42.857,0z" fill-rule="nonzero" transform="matrix(0.1926235,0,0,0.1926235,3968.8767,1490.075)" fill="#FFF"/>

	<path style="enable-background:accumulate;color:#000000;" d="m3394.3,470a21.429,21.429,0,1,1,-42.857,0,21.429,21.429,0,1,1,42.857,0z" fill-rule="nonzero" transform="matrix(0.16386162,0,0,0.16386162,3269.234,-34.15627)" fill="#FFF"/>

	<path style="enable-background:accumulate;color:#000000;" d="m3394.3,470a21.429,21.429,0,1,1,-42.857,0,21.429,21.429,0,1,1,42.857,0z" fill-rule="nonzero" transform="matrix(0.17865678,0,0,0.17865678,2683.5752,895.20777)" fill="#FFF"/>

	<path style="enable-background:accumulate;color:#000000;" d="m3394.3,470a21.429,21.429,0,1,1,-42.857,0,21.429,21.429,0,1,1,42.857,0z" fill-rule="nonzero" transform="matrix(0.25946042,0,0,0.25946042,1667.7021,581.72863)" fill="#FFF"/>

	<path style="enable-background:accumulate;color:#000000;" d="m3394.3,470a21.429,21.429,0,1,1,-42.857,0,21.429,21.429,0,1,1,42.857,0z" fill-rule="nonzero" transform="matrix(0.22500597,0,0,0.22500597,485.92653,693.75757)" fill="#FFF"/>

	<path style="enable-background:accumulate;color:#000000;" d="m3394.3,470a21.429,21.429,0,1,1,-42.857,0,21.429,21.429,0,1,1,42.857,0z" fill-rule="nonzero" transform="matrix(0.21078563,0,0,0.21078563,-183.96717,2457.8277)" fill="#FFF"/>

	<path style="enable-background:accumulate;color:#000000;" d="m3394.3,470a21.429,21.429,0,1,1,-42.857,0,21.429,21.429,0,1,1,42.857,0z" fill-rule="nonzero" transform="matrix(0.14550616,0,0,0.14550616,660.13033,1589.2683)" fill="#FFF"/>

	<path style="enable-background:accumulate;color:#000000;" d="m3394.3,470a21.429,21.429,0,1,1,-42.857,0,21.429,21.429,0,1,1,42.857,0z" fill-rule="nonzero" transform="matrix(0.21888434,0,0,0.21888434,38.756133,1451.9237)" fill="#FFF"/>

	<path style="enable-background:accumulate;color:#000000;" d="m3394.3,470a21.429,21.429,0,1,1,-42.857,0,21.429,21.429,0,1,1,42.857,0z" fill-rule="nonzero" transform="matrix(0.22140754,0,0,0.22140754,2128.0958,1340.1588)" fill="#FFF"/>

	<path style="enable-background:accumulate;color:#000000;" d="m3394.3,470a21.429,21.429,0,1,1,-42.857,0,21.429,21.429,0,1,1,42.857,0z" fill-rule="nonzero" transform="matrix(0.20500375,0,0,0.20500375,4566.9,2517.9081)" fill="#FFF"/>

	<path style="enable-background:accumulate;color:#000000;" d="m3394.3,470a21.429,21.429,0,1,1,-42.857,0,21.429,21.429,0,1,1,42.857,0z" fill-rule="nonzero" transform="matrix(0.13503555,0,0,0.13503555,2554.373,1410.1268)" fill="#FFF"/>

	<path style="enable-background:accumulate;color:#000000;" d="m3394.3,470a21.429,21.429,0,1,1,-42.857,0,21.429,21.429,0,1,1,42.857,0z" fill-rule="nonzero" transform="matrix(0.27756251,0,0,0.27756251,2515.2577,394.83153)" fill="#FFF"/>

	<path style="enable-background:accumulate;color:#000000;" d="m3394.3,470a21.429,21.429,0,1,1,-42.857,0,21.429,21.429,0,1,1,42.857,0z" fill-rule="nonzero" transform="matrix(0.14029536,0,0,0.14029536,4711.086,1675.7637)" fill="#FFF"/>

	<path style="enable-background:accumulate;color:#000000;" d="m3394.3,470a21.429,21.429,0,1,1,-42.857,0,21.429,21.429,0,1,1,42.857,0z" fill-rule="nonzero" transform="matrix(0.22817885,0,0,0.22817885,3785.9191,1092.3358)" fill="#FFF"/>

	<path style="enable-background:accumulate;color:#000000;" d="m3394.3,470a21.429,21.429,0,1,1,-42.857,0,21.429,21.429,0,1,1,42.857,0z" fill-rule="nonzero" transform="matrix(0.1994861,0,0,0.1994861,3165.8068,1781.1749)" fill="#FFF"/>

	<path style="enable-background:accumulate;color:#000000;" d="m3394.3,470a21.429,21.429,0,1,1,-42.857,0,21.429,21.429,0,1,1,42.857,0z" fill-rule="nonzero" transform="matrix(0.154271,0,0,0.154271,1060.5459,380.52833)" fill="#FFF"/>

	<path style="enable-background:accumulate;color:#000000;" d="m3394.3,470a21.429,21.429,0,1,1,-42.857,0,21.429,21.429,0,1,1,42.857,0z" fill-rule="nonzero" transform="matrix(0.15625548,0,0,0.15625548,4064.897,1786.3285)" fill="#FFF"/>

	<path style="enable-background:accumulate;color:#000000;" d="m3394.3,470a21.429,21.429,0,1,1,-42.857,0,21.429,21.429,0,1,1,42.857,0z" fill-rule="nonzero" transform="matrix(0.18122433,0,0,0.18122433,2614.7828,1795.8521)" fill="#FFF"/>

	<path style="enable-background:accumulate;color:#000000;" d="m3394.3,470a21.429,21.429,0,1,1,-42.857,0,21.429,21.429,0,1,1,42.857,0z" fill-rule="nonzero" transform="matrix(0.13154139,0,0,0.13154139,-237.99447,2923.3336)" fill="#FFF"/>

	<path style="enable-background:accumulate;color:#000000;" d="m3394.3,470a21.429,21.429,0,1,1,-42.857,0,21.429,21.429,0,1,1,42.857,0z" fill-rule="nonzero" transform="matrix(0.11487472,0,0,0.11487472,903.93412,2919.7383)" fill="#FFF"/>

	<path style="enable-background:accumulate;color:#000000;" d="m3394.3,470a21.429,21.429,0,1,1,-42.857,0,21.429,21.429,0,1,1,42.857,0z" fill-rule="nonzero" transform="matrix(0.13154139,0,0,0.13154139,1696.2912,3074.7621)" fill="#FFF"/>

	<path style="enable-background:accumulate;color:#000000;" d="m3394.3,470a21.429,21.429,0,1,1,-42.857,0,21.429,21.429,0,1,1,42.857,0z" fill-rule="nonzero" transform="matrix(0.13154139,0,0,0.13154139,2742.0055,3003.3336)" fill="#FFF"/>

	<path style="enable-background:accumulate;color:#000000;" d="m3394.3,470a21.429,21.429,0,1,1,-42.857,0,21.429,21.429,0,1,1,42.857,0z" fill-rule="nonzero" transform="matrix(0.13154139,0,0,0.13154139,3216.2912,3080.4764)" fill="#FFF"/>

	<path style="enable-background:accumulate;color:#000000;" d="m3394.3,470a21.429,21.429,0,1,1,-42.857,0,21.429,21.429,0,1,1,42.857,0z" fill-rule="nonzero" transform="matrix(0.13154139,0,0,0.13154139,3739.1484,2889.0479)" fill="#FFF"/>

	<path style="enable-background:accumulate;color:#000000;" d="m3394.3,470a21.429,21.429,0,1,1,-42.857,0,21.429,21.429,0,1,1,42.857,0z" fill-rule="nonzero" transform="matrix(0.13154139,0,0,0.13154139,4339.1484,3051.905)" fill="#FFF"/>

	<path style="enable-background:accumulate;color:#000000;" d="m3394.3,470a21.429,21.429,0,1,1,-42.857,0,21.429,21.429,0,1,1,42.857,0z" fill-rule="nonzero" transform="matrix(0.26775326,0,0,0.26775326,-686.39762,-32.46648)" fill="#FFF"/>

	<path style="enable-background:accumulate;color:#000000;" d="m3394.3,470a21.429,21.429,0,1,1,-42.857,0,21.429,21.429,0,1,1,42.857,0z" fill-rule="nonzero" transform="matrix(0.26775326,0,0,0.26775326,-613.66664,816.06166)" fill="#FFF"/>

	<path style="enable-background:accumulate;color:#000000;" d="m3394.3,470a21.429,21.429,0,1,1,-42.857,0,21.429,21.429,0,1,1,42.857,0z" fill-rule="nonzero" transform="matrix(0.26775326,0,0,0.26775326,4344.162,1062.5389)" fill="#FFF"/>

	<path style="enable-background:accumulate;color:#000000;" d="m3394.3,470a21.429,21.429,0,1,1,-42.857,0,21.429,21.429,0,1,1,42.857,0z" fill-rule="nonzero" transform="matrix(0.26775326,0,0,0.26775326,-540.27476,1082.1711)" fill="#FFF"/>

	<path style="enable-background:accumulate;color:#000000;" d="m3394.3,470a21.429,21.429,0,1,1,-42.857,0,21.429,21.429,0,1,1,42.857,0z" fill-rule="nonzero" transform="matrix(0.26775326,0,0,0.26775326,-265.98907,1447.8854)" fill="#FFF"/>

	<path style="enable-background:accumulate;color:#000000;" d="m3394.3,470a21.429,21.429,0,1,1,-42.857,0,21.429,21.429,0,1,1,42.857,0z" fill-rule="nonzero" transform="matrix(0.13672637,0,0,0.13672637,2170.2316,2189.4681)" fill="#FFF"/>

	<path style="enable-background:accumulate;color:#000000;" d="m3394.3,470a21.429,21.429,0,1,1,-42.857,0,21.429,21.429,0,1,1,42.857,0z" fill-rule="nonzero" transform="matrix(0.13672637,0,0,0.13672637,1953.0888,2369.4681)" fill="#FFF"/>

	<path style="enable-background:accumulate;color:#000000;" d="m3394.3,470a21.429,21.429,0,1,1,-42.857,0,21.429,21.429,0,1,1,42.857,0z" fill-rule="nonzero" transform="matrix(0.13672637,0,0,0.13672637,1624.5173,2489.4681)" fill="#FFF"/>

	<path style="enable-background:accumulate;color:#000000;" d="m3394.3,470a21.429,21.429,0,1,1,-42.857,0,21.429,21.429,0,1,1,42.857,0z" fill-rule="nonzero" transform="matrix(0.13672637,0,0,0.13672637,2315.9459,2680.8966)" fill="#FFF"/>

	<path style="enable-background:accumulate;color:#000000;" d="m3394.3,470a21.429,21.429,0,1,1,-42.857,0,21.429,21.429,0,1,1,42.857,0z" fill-rule="nonzero" transform="matrix(0.13672637,0,0,0.13672637,3173.0888,2475.1823)" fill="#FFF"/>

	<path style="enable-background:accumulate;color:#000000;" d="m3394.3,470a21.429,21.429,0,1,1,-42.857,0,21.429,21.429,0,1,1,42.857,0z" fill-rule="nonzero" transform="matrix(0.13672637,0,0,0.13672637,5038.8031,2675.1823)" fill="#FFF"/>

	<path style="enable-background:accumulate;color:#000000;" d="m3394.3,470a21.429,21.429,0,1,1,-42.857,0,21.429,21.429,0,1,1,42.857,0z" fill-rule="nonzero" transform="matrix(0.13672637,0,0,0.13672637,5078.8031,2318.0395)" fill="#FFF"/>

	<path style="enable-background:accumulate;color:#000000;" d="m3394.3,470a21.429,21.429,0,1,1,-42.857,0,21.429,21.429,0,1,1,42.857,0z" fill-rule="nonzero" transform="matrix(0.13672637,0,0,0.13672637,4275.9459,2540.8966)" fill="#FFF"/>

	<path style="enable-background:accumulate;color:#000000;" d="m3394.3,470a21.429,21.429,0,1,1,-42.857,0,21.429,21.429,0,1,1,42.857,0z" fill-rule="nonzero" transform="matrix(0.13672637,0,0,0.13672637,4538.8031,2712.3252)" fill="#FFF"/>

	<path style="enable-background:accumulate;color:#000000;" d="m3394.3,470a21.429,21.429,0,1,1,-42.857,0,21.429,21.429,0,1,1,42.857,0z" fill-rule="nonzero" transform="matrix(0.17602187,0,0,0.17602187,2691.9792,2659.5706)" fill="#FFF"/>

	<path style="enable-background:accumulate;color:#000000;" d="m3394.3,470a21.429,21.429,0,1,1,-42.857,0,21.429,21.429,0,1,1,42.857,0z" fill-rule="nonzero" transform="matrix(0.17602187,0,0,0.17602187,1929.1221,2605.2849)" fill="#FFF"/>

	<path style="enable-background:accumulate;color:#000000;" d="m3394.3,470a21.429,21.429,0,1,1,-42.857,0,21.429,21.429,0,1,1,42.857,0z" fill-rule="nonzero" transform="matrix(0.17602187,0,0,0.17602187,1651.9792,2742.4277)" fill="#FFF"/>

	<path style="enable-background:accumulate;color:#000000;" d="m3394.3,470a21.429,21.429,0,1,1,-42.857,0,21.429,21.429,0,1,1,42.857,0z" fill-rule="nonzero" transform="matrix(0.11487472,0,0,0.11487472,223.97255,2720.2134)" fill="#FFF"/>

	<path style="enable-background:accumulate;color:#000000;" d="m3394.3,470a21.429,21.429,0,1,1,-42.857,0,21.429,21.429,0,1,1,42.857,0z" fill-rule="nonzero" transform="matrix(0.11487472,0,0,0.11487472,3342.0272,2877.4896)" fill="#FFF"/>

	<path style="enable-background:accumulate;color:#000000;" d="m3394.3,470a21.429,21.429,0,1,1,-42.857,0,21.429,21.429,0,1,1,42.857,0z" fill-rule="nonzero" transform="matrix(0.11487472,0,0,0.11487472,4291.5706,2727.987)" fill="#FFF"/>

</svg>

