<!-- Created with Inkscape (http://www.inkscape.org/) -->
<svg xmlns:rdf="http://www.w3.org/1999/02/22-rdf-syntax-ns#" xmlns="http://www.w3.org/2000/svg" version="1.1" xmlns:cc="http://creativecommons.org/ns#" xmlns:dc="http://purl.org/dc/elements/1.1/" preserveAspectRatio="none" viewBox="0 0 6600.6 3438.6">
	<defs></defs>
	<metadata>
		<rdf:RDF>
			<cc:Work rdf:about="">
				<dc:format>image/svg+xml</dc:format>
				<dc:type rdf:resource="http://purl.org/dc/dcmitype/StillImage"/>
				<dc:title/>
			</cc:Work>
		</rdf:RDF>
	</metadata>
	<path style="enable-background:accumulate;color:#000000;" d="m3394.3,470a21.429,21.429,0,1,1,-42.857,0,21.429,21.429,0,1,1,42.857,0z" fill-rule="nonzero" transform="matrix(0.14800094,0,0,0.14800094,-100.23034,256.59858)" fill="#FFF"/>
	<path style="enable-background:accumulate;color:#000000;" d="m3394.3,470a21.429,21.429,0,1,1,-42.857,0,21.429,21.429,0,1,1,42.857,0z" fill-rule="nonzero" transform="matrix(0.09566829,0,0,0.09566829,-167.74734,121.74758)" fill="#FFF"/>
	<path style="enable-background:accumulate;color:#000000;" d="m3394.3,470a21.429,21.429,0,1,1,-42.857,0,21.429,21.429,0,1,1,42.857,0z" fill-rule="nonzero" transform="matrix(0.12403872,0,0,0.12403872,-3.8838378,180.77528)" fill="#FFF"/>
	<path style="enable-background:accumulate;color:#000000;" d="m3394.3,470a21.429,21.429,0,1,1,-42.857,0,21.429,21.429,0,1,1,42.857,0z" fill-rule="nonzero" transform="matrix(0.12803525,0,0,0.12803525,55.364062,45.658276)" fill="#FFF"/>
	<path style="enable-background:accumulate;color:#000000;" d="m3394.3,470a21.429,21.429,0,1,1,-42.857,0,21.429,21.429,0,1,1,42.857,0z" fill-rule="nonzero" transform="matrix(0.16615668,0,0,0.16615668,86.090562,115.25758)" fill="#FFF"/>
	<path style="enable-background:accumulate;color:#000000;" d="m3394.3,470a21.429,21.429,0,1,1,-42.857,0,21.429,21.429,0,1,1,42.857,0z" fill-rule="nonzero" transform="matrix(0.12419112,0,0,0.12419112,1305.5866,334.63198)" fill="#FFF"/>
	<path style="enable-background:accumulate;color:#000000;" d="m3394.3,470a21.429,21.429,0,1,1,-42.857,0,21.429,21.429,0,1,1,42.857,0z" fill-rule="nonzero" transform="matrix(0.12916394,0,0,0.12916394,1608.8028,-26.725124)" fill="#FFF"/>
	<path style="enable-background:accumulate;color:#000000;" d="m3394.3,470a21.429,21.429,0,1,1,-42.857,0,21.429,21.429,0,1,1,42.857,0z" fill-rule="nonzero" transform="matrix(0.09069267,0,0,0.09069267,2311.3501,44.140476)" fill="#FFF"/>
	<path style="enable-background:accumulate;color:#000000;" d="m3394.3,470a21.429,21.429,0,1,1,-42.857,0,21.429,21.429,0,1,1,42.857,0z" fill-rule="nonzero" transform="matrix(0.11157448,0,0,0.11157448,2856.6548,-50.049124)" fill="#FFF"/>
	<path style="enable-background:accumulate;color:#000000;" d="m3394.3,470a21.429,21.429,0,1,1,-42.857,0,21.429,21.429,0,1,1,42.857,0z" fill-rule="nonzero" transform="matrix(0.17962793,0,0,0.17962793,2741.1236,281.81248)" fill="#FFF"/>
	<path style="enable-background:accumulate;color:#000000;" d="m3394.3,470a21.429,21.429,0,1,1,-42.857,0,21.429,21.429,0,1,1,42.857,0z" fill-rule="nonzero" transform="matrix(0.08177337,0,0,0.08177337,3646.7072,128.31288)" fill="#FFF"/>
	<path style="enable-background:accumulate;color:#000000;" d="m3394.3,470a21.429,21.429,0,1,1,-42.857,0,21.429,21.429,0,1,1,42.857,0z" fill-rule="nonzero" transform="matrix(0.17113416,0,0,0.17113416,3918.6189,118.32118)" fill="#FFF"/>
	<path style="enable-background:accumulate;color:#000000;" d="m3394.3,470a21.429,21.429,0,1,1,-42.857,0,21.429,21.429,0,1,1,42.857,0z" fill-rule="nonzero" transform="matrix(0.17138964,0,0,0.17138964,4201.0767,137.87898)" fill="#FFF"/>
	<path style="enable-background:accumulate;color:#000000;" d="m3394.3,470a21.429,21.429,0,1,1,-42.857,0,21.429,21.429,0,1,1,42.857,0z" fill-rule="nonzero" transform="matrix(0.12439388,0,0,0.12439388,4571.3356,325.54968)" fill="#FFF"/>
	<path style="enable-background:accumulate;color:#000000;" d="m3394.3,470a21.429,21.429,0,1,1,-42.857,0,21.429,21.429,0,1,1,42.857,0z" fill-rule="nonzero" transform="matrix(0.08364539,0,0,0.08364539,4683.5396,327.26238)" fill="#FFF"/>
	<path style="enable-background:accumulate;color:#000000;" d="m3394.3,470a21.429,21.429,0,1,1,-42.857,0,21.429,21.429,0,1,1,42.857,0z" fill-rule="nonzero" transform="matrix(0.12732217,0,0,0.12732217,4806.9636,90.434576)" fill="#FFF"/>
	<path style="enable-background:accumulate;color:#000000;" d="m3394.3,470a21.429,21.429,0,1,1,-42.857,0,21.429,21.429,0,1,1,42.857,0z" fill-rule="nonzero" transform="matrix(0.10364447,0,0,0.10364447,4871.7556,464.24328)" fill="#FFF"/>
	<path style="enable-background:accumulate;color:#000000;" d="m3394.3,470a21.429,21.429,0,1,1,-42.857,0,21.429,21.429,0,1,1,42.857,0z" fill-rule="nonzero" transform="matrix(0.17413949,0,0,0.17413949,4651.0596,148.72848)" fill="#FFF"/>
	<path style="enable-background:accumulate;color:#000000;" d="m3394.3,470a21.429,21.429,0,1,1,-42.857,0,21.429,21.429,0,1,1,42.857,0z" fill-rule="nonzero" transform="matrix(0.10899381,0,0,0.10899381,5305.2566,126.11738)" fill="#FFF"/>
	<path style="enable-background:accumulate;color:#000000;" d="m3394.3,470a21.429,21.429,0,1,1,-42.857,0,21.429,21.429,0,1,1,42.857,0z" fill-rule="nonzero" transform="matrix(0.14838525,0,0,0.14838525,5320.7616,289.36188)" fill="#FFF"/>
	<path style="enable-background:accumulate;color:#000000;" d="m3394.3,470a21.429,21.429,0,1,1,-42.857,0,21.429,21.429,0,1,1,42.857,0z" fill-rule="nonzero" transform="matrix(0.184048,0,0,0.184048,5551.2016,303.39978)" fill="#FFF"/>
	<path style="enable-background:accumulate;color:#000000;" d="m3394.3,470a21.429,21.429,0,1,1,-42.857,0,21.429,21.429,0,1,1,42.857,0z" fill-rule="nonzero" transform="matrix(0.14484441,0,0,0.14484441,5839.7106,427.28248)" fill="#FFF"/>
	<path style="enable-background:accumulate;color:#000000;" d="m3394.3,470a21.429,21.429,0,1,1,-42.857,0,21.429,21.429,0,1,1,42.857,0z" fill-rule="nonzero" transform="matrix(0.18760114,0,0,0.18760114,5863.1016,317.07098)" fill="#FFF"/>
	<path style="enable-background:accumulate;color:#000000;" d="m3394.3,470a21.429,21.429,0,1,1,-42.857,0,21.429,21.429,0,1,1,42.857,0z" fill-rule="nonzero" transform="matrix(0.10611847,0,0,0.10611847,6240.4406,478.47238)" fill="#FFF"/>
	<path style="enable-background:accumulate;color:#000000;" d="m3394.3,470a21.429,21.429,0,1,1,-42.857,0,21.429,21.429,0,1,1,42.857,0z" fill-rule="nonzero" transform="matrix(0.11481594,0,0,0.11481594,5927.2396,295.86768)" fill="#FFF"/>
	<path style="enable-background:accumulate;color:#000000;" d="m3394.3,470a21.429,21.429,0,1,1,-42.857,0,21.429,21.429,0,1,1,42.857,0z" fill-rule="nonzero" transform="matrix(0.16405031,0,0,0.16405031,5975.0756,800.22516)" fill="#FFF"/>
	<path style="enable-background:accumulate;color:#000000;" d="m3394.3,470a21.429,21.429,0,1,1,-42.857,0,21.429,21.429,0,1,1,42.857,0z" fill-rule="nonzero" transform="matrix(0.09262305,0,0,0.09262305,5856.3056,740.43616)" fill="#FFF"/>
	<path style="enable-background:accumulate;color:#000000;" d="m3394.3,470a21.429,21.429,0,1,1,-42.857,0,21.429,21.429,0,1,1,42.857,0z" fill-rule="nonzero" transform="matrix(0.10525364,0,0,0.10525364,6059.4136,850.28686)" fill="#FFF"/>
	<path style="enable-background:accumulate;color:#000000;" d="m3394.3,470a21.429,21.429,0,1,1,-42.857,0,21.429,21.429,0,1,1,42.857,0z" fill-rule="nonzero" transform="matrix(0.10181303,0,0,0.10181303,5569.1686,734.55676)" fill="#FFF"/>
	<path style="enable-background:accumulate;color:#000000;" d="m3394.3,470a21.429,21.429,0,1,1,-42.857,0,21.429,21.429,0,1,1,42.857,0z" fill-rule="nonzero" transform="matrix(0.18307694,0,0,0.18307694,5451.4316,1052.3236)" fill="#FFF"/>
	<path style="enable-background:accumulate;color:#000000;" d="m3394.3,470a21.429,21.429,0,1,1,-42.857,0,21.429,21.429,0,1,1,42.857,0z" fill-rule="nonzero" transform="matrix(0.08450606,0,0,0.08450606,5734.5436,1023.5558)" fill="#FFF"/>
	<path style="enable-background:accumulate;color:#000000;" d="m3394.3,470a21.429,21.429,0,1,1,-42.857,0,21.429,21.429,0,1,1,42.857,0z" fill-rule="nonzero" transform="matrix(0.18922745,0,0,0.18922745,5253.1616,991.27176)" fill="#FFF"/>
	<path style="enable-background:accumulate;color:#000000;" d="m3394.3,470a21.429,21.429,0,1,1,-42.857,0,21.429,21.429,0,1,1,42.857,0z" fill-rule="nonzero" transform="matrix(0.18840221,0,0,0.18840221,5120.1836,950.32906)" fill="#FFF"/>
	<path style="enable-background:accumulate;color:#000000;" d="m3394.3,470a21.429,21.429,0,1,1,-42.857,0,21.429,21.429,0,1,1,42.857,0z" fill-rule="nonzero" transform="matrix(0.17297697,0,0,0.17297697,4559.6666,712.23496)" fill="#FFF"/>
	<path style="enable-background:accumulate;color:#000000;" d="m3394.3,470a21.429,21.429,0,1,1,-42.857,0,21.429,21.429,0,1,1,42.857,0z" fill-rule="nonzero" transform="matrix(0.17610886,0,0,0.17610886,3664.0458,844.89386)" fill="#FFF"/>
	<path style="enable-background:accumulate;color:#000000;" d="m3394.3,470a21.429,21.429,0,1,1,-42.857,0,21.429,21.429,0,1,1,42.857,0z" fill-rule="nonzero" transform="matrix(0.12159555,0,0,0.12159555,3814.4607,780.24976)" fill="#FFF"/>
	<path style="enable-background:accumulate;color:#000000;" d="m3394.3,470a21.429,21.429,0,1,1,-42.857,0,21.429,21.429,0,1,1,42.857,0z" fill-rule="nonzero" transform="matrix(0.08603758,0,0,0.08603758,3537.6077,900.68436)" fill="#FFF"/>
	<path style="enable-background:accumulate;color:#000000;" d="m3394.3,470a21.429,21.429,0,1,1,-42.857,0,21.429,21.429,0,1,1,42.857,0z" fill-rule="nonzero" transform="matrix(0.14951554,0,0,0.14951554,3221.4583,673.99086)" fill="#FFF"/>
	<path style="enable-background:accumulate;color:#000000;" d="m3394.3,470a21.429,21.429,0,1,1,-42.857,0,21.429,21.429,0,1,1,42.857,0z" fill-rule="nonzero" transform="matrix(0.08526647,0,0,0.08526647,2940.7838,746.57656)" fill="#FFF"/>
	<path style="enable-background:accumulate;color:#000000;" d="m3394.3,470a21.429,21.429,0,1,1,-42.857,0,21.429,21.429,0,1,1,42.857,0z" fill-rule="nonzero" transform="matrix(0.08354401,0,0,0.08354401,2623.3003,1038.6354)" fill="#FFF"/>
	<path style="enable-background:accumulate;color:#000000;" d="m3394.3,470a21.429,21.429,0,1,1,-42.857,0,21.429,21.429,0,1,1,42.857,0z" fill-rule="nonzero" transform="matrix(0.14611052,0,0,0.14611052,2286.2198,897.07086)" fill="#FFF"/>
	<path style="enable-background:accumulate;color:#000000;" d="m3394.3,470a21.429,21.429,0,1,1,-42.857,0,21.429,21.429,0,1,1,42.857,0z" fill-rule="nonzero" transform="matrix(0.1300391,0,0,0.1300391,2369.1986,827.85016)" fill="#FFF"/>
	<path style="enable-background:accumulate;color:#000000;" d="m3394.3,470a21.429,21.429,0,1,1,-42.857,0,21.429,21.429,0,1,1,42.857,0z" fill-rule="nonzero" transform="matrix(0.15667352,0,0,0.15667352,2406.0123,697.97406)" fill="#FFF"/>
	<path style="enable-background:accumulate;color:#000000;" d="m3394.3,470a21.429,21.429,0,1,1,-42.857,0,21.429,21.429,0,1,1,42.857,0z" fill-rule="nonzero" transform="matrix(0.17060284,0,0,0.17060284,1318.3522,735.51736)" fill="#FFF"/>
	<path style="enable-background:accumulate;color:#000000;" d="m3394.3,470a21.429,21.429,0,1,1,-42.857,0,21.429,21.429,0,1,1,42.857,0z" fill-rule="nonzero" transform="matrix(0.18570108,0,0,0.18570108,930.45596,697.77256)" fill="#FFF"/>
	<path style="enable-background:accumulate;color:#000000;" d="m3394.3,470a21.429,21.429,0,1,1,-42.857,0,21.429,21.429,0,1,1,42.857,0z" fill-rule="nonzero" transform="matrix(0.18906669,0,0,0.18906669,763.55866,931.76286)" fill="#FFF"/>
	<path style="enable-background:accumulate;color:#000000;" d="m3394.3,470a21.429,21.429,0,1,1,-42.857,0,21.429,21.429,0,1,1,42.857,0z" fill-rule="nonzero" transform="matrix(0.15024467,0,0,0.15024467,609.52616,654.77776)" fill="#FFF"/>
	<path style="enable-background:accumulate;color:#000000;" d="m3394.3,470a21.429,21.429,0,1,1,-42.857,0,21.429,21.429,0,1,1,42.857,0z" fill-rule="nonzero" transform="matrix(0.08878438,0,0,0.08878438,595.38366,710.14486)" fill="#FFF"/>
	<path style="enable-background:accumulate;color:#000000;" d="m3394.3,470a21.429,21.429,0,1,1,-42.857,0,21.429,21.429,0,1,1,42.857,0z" fill-rule="nonzero" transform="matrix(0.18787185,0,0,0.18787185,292.12336,903.82576)" fill="#FFF"/>
	<path style="enable-background:accumulate;color:#000000;" d="m3394.3,470a21.429,21.429,0,1,1,-42.857,0,21.429,21.429,0,1,1,42.857,0z" fill-rule="nonzero" transform="matrix(0.14726487,0,0,0.14726487,498.35006,985.71086)" fill="#FFF"/>
	<path style="enable-background:accumulate;color:#000000;" d="m3394.3,470a21.429,21.429,0,1,1,-42.857,0,21.429,21.429,0,1,1,42.857,0z" fill-rule="nonzero" transform="matrix(0.08100594,0,0,0.08100594,583.46686,724.32586)" fill="#FFF"/>
	<path style="enable-background:accumulate;color:#000000;" d="m3394.3,470a21.429,21.429,0,1,1,-42.857,0,21.429,21.429,0,1,1,42.857,0z" fill-rule="nonzero" transform="matrix(0.19092114,0,0,0.19092114,135.26126,681.95166)" fill="#FFF"/>
	<path style="enable-background:accumulate;color:#000000;" d="m3394.3,470a21.429,21.429,0,1,1,-42.857,0,21.429,21.429,0,1,1,42.857,0z" fill-rule="nonzero" transform="matrix(0.17918241,0,0,0.17918241,35.927862,863.92936)" fill="#FFF"/>
	<path style="enable-background:accumulate;color:#000000;" d="m3394.3,470a21.429,21.429,0,1,1,-42.857,0,21.429,21.429,0,1,1,42.857,0z" fill-rule="nonzero" transform="matrix(0.14296317,0,0,0.14296317,-130.34484,955.50176)" fill="#FFF"/>
	<path style="enable-background:accumulate;color:#000000;" d="m3394.3,470a21.429,21.429,0,1,1,-42.857,0,21.429,21.429,0,1,1,42.857,0z" fill-rule="nonzero" transform="matrix(0.15624295,0,0,0.15624295,-271.73564,817.82266)" fill="#FFF"/>
	<path style="enable-background:accumulate;color:#000000;" d="m3394.3,470a21.429,21.429,0,1,1,-42.857,0,21.429,21.429,0,1,1,42.857,0z" fill-rule="nonzero" transform="matrix(0.08242521,0,0,0.08242521,400.44926,963.69666)" fill="#FFF"/>
	<path style="enable-background:accumulate;color:#000000;" d="m3394.3,470a21.429,21.429,0,1,1,-42.857,0,21.429,21.429,0,1,1,42.857,0z" fill-rule="nonzero" transform="matrix(0.16848102,0,0,0.16848102,-159.40524,1274.7552)" fill="#FFF"/>
	<path style="enable-background:accumulate;color:#000000;" d="m3394.3,470a21.429,21.429,0,1,1,-42.857,0,21.429,21.429,0,1,1,42.857,0z" fill-rule="nonzero" transform="matrix(0.10343357,0,0,0.10343357,-142.12324,1046.4157)" fill="#FFF"/>
	<path style="enable-background:accumulate;color:#000000;" d="m3394.3,470a21.429,21.429,0,1,1,-42.857,0,21.429,21.429,0,1,1,42.857,0z" fill-rule="nonzero" transform="matrix(0.14405186,0,0,0.14405186,-38.921238,996.12726)" fill="#FFF"/>
	<path style="enable-background:accumulate;color:#000000;" d="m3394.3,470a21.429,21.429,0,1,1,-42.857,0,21.429,21.429,0,1,1,42.857,0z" fill-rule="nonzero" transform="matrix(0.18462117,0,0,0.18462117,-429.38864,877.14726)" fill="#FFF"/>
	<path style="enable-background:accumulate;color:#000000;" d="m3394.3,470a21.429,21.429,0,1,1,-42.857,0,21.429,21.429,0,1,1,42.857,0z" fill-rule="nonzero" transform="matrix(0.15586679,0,0,0.15586679,-237.08974,1269.9233)" fill="#FFF"/>
	<path style="enable-background:accumulate;color:#000000;" d="m3394.3,470a21.429,21.429,0,1,1,-42.857,0,21.429,21.429,0,1,1,42.857,0z" fill-rule="nonzero" transform="matrix(0.08902005,0,0,0.08902005,-246.21944,1451.7465)" fill="#FFF"/>
	<path style="enable-background:accumulate;color:#000000;" d="m3394.3,470a21.429,21.429,0,1,1,-42.857,0,21.429,21.429,0,1,1,42.857,0z" fill-rule="nonzero" transform="matrix(0.09282453,0,0,0.09282453,-167.88094,1195.8692)" fill="#FFF"/>
	<path style="enable-background:accumulate;color:#000000;" d="m3394.3,470a21.429,21.429,0,1,1,-42.857,0,21.429,21.429,0,1,1,42.857,0z" fill-rule="nonzero" transform="matrix(0.0993886,0,0,0.0993886,105.59286,1101.1836)" fill="#FFF"/>
	<path style="enable-background:accumulate;color:#000000;" d="m3394.3,470a21.429,21.429,0,1,1,-42.857,0,21.429,21.429,0,1,1,42.857,0z" fill-rule="nonzero" transform="matrix(0.15641376,0,0,0.15641376,-169.56004,1438.7953)" fill="#FFF"/>
	<path style="enable-background:accumulate;color:#000000;" d="m3394.3,470a21.429,21.429,0,1,1,-42.857,0,21.429,21.429,0,1,1,42.857,0z" fill-rule="nonzero" transform="matrix(0.14782216,0,0,0.14782216,286.93656,1048.2548)" fill="#FFF"/>
	<path style="enable-background:accumulate;color:#000000;" d="m3394.3,470a21.429,21.429,0,1,1,-42.857,0,21.429,21.429,0,1,1,42.857,0z" fill-rule="nonzero" transform="matrix(0.09656782,0,0,0.09656782,547.22696,1410.4413)" fill="#FFF"/>
	<path style="enable-background:accumulate;color:#000000;" d="m3394.3,470a21.429,21.429,0,1,1,-42.857,0,21.429,21.429,0,1,1,42.857,0z" fill-rule="nonzero" transform="matrix(0.14272371,0,0,0.14272371,631.81956,1227.8676)" fill="#FFF"/>
	<path style="enable-background:accumulate;color:#000000;" d="m3394.3,470a21.429,21.429,0,1,1,-42.857,0,21.429,21.429,0,1,1,42.857,0z" fill-rule="nonzero" transform="matrix(0.11894478,0,0,0.11894478,642.00856,1095.1242)" fill="#FFF"/>
	<path style="enable-background:accumulate;color:#000000;" d="m3394.3,470a21.429,21.429,0,1,1,-42.857,0,21.429,21.429,0,1,1,42.857,0z" fill-rule="nonzero" transform="matrix(0.19039066,0,0,0.19039066,564.44916,1097.2566)" fill="#FFF"/>
	<path style="enable-background:accumulate;color:#000000;" d="m3394.3,470a21.429,21.429,0,1,1,-42.857,0,21.429,21.429,0,1,1,42.857,0z" fill-rule="nonzero" transform="matrix(0.09824108,0,0,0.09824108,1217.3877,1523.6865)" fill="#FFF"/>
	<path style="enable-background:accumulate;color:#000000;" d="m3394.3,470a21.429,21.429,0,1,1,-42.857,0,21.429,21.429,0,1,1,42.857,0z" fill-rule="nonzero" transform="matrix(0.16845251,0,0,0.16845251,1091.7926,1579.6878)" fill="#FFF"/>
	<path style="enable-background:accumulate;color:#000000;" d="m3394.3,470a21.429,21.429,0,1,1,-42.857,0,21.429,21.429,0,1,1,42.857,0z" fill-rule="nonzero" transform="matrix(0.14071576,0,0,0.14071576,1712.9064,1388.5226)" fill="#FFF"/>
	<path style="enable-background:accumulate;color:#000000;" d="m3394.3,470a21.429,21.429,0,1,1,-42.857,0,21.429,21.429,0,1,1,42.857,0z" fill-rule="nonzero" transform="matrix(0.17943475,0,0,0.17943475,1619.9714,1244.8145)" fill="#FFF"/>
	<path style="enable-background:accumulate;color:#000000;" d="m3394.3,470a21.429,21.429,0,1,1,-42.857,0,21.429,21.429,0,1,1,42.857,0z" fill-rule="nonzero" transform="matrix(0.1223908,0,0,0.1223908,2216.0397,1183.4135)" fill="#FFF"/>
	<path style="enable-background:accumulate;color:#000000;" d="m3394.3,470a21.429,21.429,0,1,1,-42.857,0,21.429,21.429,0,1,1,42.857,0z" fill-rule="nonzero" transform="matrix(0.15922331,0,0,0.15922331,2510.6238,1426.3026)" fill="#FFF"/>
	<path style="enable-background:accumulate;color:#000000;" d="m3394.3,470a21.429,21.429,0,1,1,-42.857,0,21.429,21.429,0,1,1,42.857,0z" fill-rule="nonzero" transform="matrix(0.12831446,0,0,0.12831446,3615.9878,1405.2909)" fill="#FFF"/>
	<path style="enable-background:accumulate;color:#000000;" d="m3394.3,470a21.429,21.429,0,1,1,-42.857,0,21.429,21.429,0,1,1,42.857,0z" fill-rule="nonzero" transform="matrix(0.16283429,0,0,0.16283429,3487.9179,1242.6887)" fill="#FFF"/>
	<path style="enable-background:accumulate;color:#000000;" d="m3394.3,470a21.429,21.429,0,1,1,-42.857,0,21.429,21.429,0,1,1,42.857,0z" fill-rule="nonzero" transform="matrix(0.08149631,0,0,0.08149631,3980.7316,1311.0403)" fill="#FFF"/>
	<path style="enable-background:accumulate;color:#000000;" d="m3394.3,470a21.429,21.429,0,1,1,-42.857,0,21.429,21.429,0,1,1,42.857,0z" fill-rule="nonzero" transform="matrix(0.09171065,0,0,0.09171065,4618.5026,1277.0009)" fill="#FFF"/>
	<path style="enable-background:accumulate;color:#000000;" d="m3394.3,470a21.429,21.429,0,1,1,-42.857,0,21.429,21.429,0,1,1,42.857,0z" fill-rule="nonzero" transform="matrix(0.18927097,0,0,0.18927097,4226.8542,1243.9706)" fill="#FFF"/>
	<path style="enable-background:accumulate;color:#000000;" d="m3394.3,470a21.429,21.429,0,1,1,-42.857,0,21.429,21.429,0,1,1,42.857,0z" fill-rule="nonzero" transform="matrix(0.09390694,0,0,0.09390694,4816.6926,1165.9838)" fill="#FFF"/>
	<path style="enable-background:accumulate;color:#000000;" d="m3394.3,470a21.429,21.429,0,1,1,-42.857,0,21.429,21.429,0,1,1,42.857,0z" fill-rule="nonzero" transform="matrix(0.13526909,0,0,0.13526909,5132.0896,1036.3974)" fill="#FFF"/>
	<path style="enable-background:accumulate;color:#000000;" d="m3394.3,470a21.429,21.429,0,1,1,-42.857,0,21.429,21.429,0,1,1,42.857,0z" fill-rule="nonzero" transform="matrix(0.13958416,0,0,0.13958416,5007.6206,1275.842)" fill="#FFF"/>
	<path style="enable-background:accumulate;color:#000000;" d="m3394.3,470a21.429,21.429,0,1,1,-42.857,0,21.429,21.429,0,1,1,42.857,0z" fill-rule="nonzero" transform="matrix(0.11126795,0,0,0.11126795,5492.4446,1203.3311)" fill="#FFF"/>
	<path style="enable-background:accumulate;color:#000000;" d="m3394.3,470a21.429,21.429,0,1,1,-42.857,0,21.429,21.429,0,1,1,42.857,0z" fill-rule="nonzero" transform="matrix(0.15836191,0,0,0.15836191,5231.3116,1236.9921)" fill="#FFF"/>
	<path style="enable-background:accumulate;color:#000000;" d="m3394.3,470a21.429,21.429,0,1,1,-42.857,0,21.429,21.429,0,1,1,42.857,0z" fill-rule="nonzero" transform="matrix(0.10821879,0,0,0.10821879,5814.3076,1255.5925)" fill="#FFF"/>
	<path style="enable-background:accumulate;color:#000000;" d="m3394.3,470a21.429,21.429,0,1,1,-42.857,0,21.429,21.429,0,1,1,42.857,0z" fill-rule="nonzero" transform="matrix(0.16176762,0,0,0.16176762,5584.3566,1233.6759)" fill="#FFF"/>
	<path style="enable-background:accumulate;color:#000000;" d="m3394.3,470a21.429,21.429,0,1,1,-42.857,0,21.429,21.429,0,1,1,42.857,0z" fill-rule="nonzero" transform="matrix(0.08749191,0,0,0.08749191,6288.9406,1507.2932)" fill="#FFF"/>
	<path style="enable-background:accumulate;color:#000000;" d="m3394.3,470a21.429,21.429,0,1,1,-42.857,0,21.429,21.429,0,1,1,42.857,0z" fill-rule="nonzero" transform="matrix(0.12671713,0,0,0.12671713,5971.5896,1567.4304)" fill="#FFF"/>
	<path style="enable-background:accumulate;color:#000000;" d="m3394.3,470a21.429,21.429,0,1,1,-42.857,0,21.429,21.429,0,1,1,42.857,0z" fill-rule="nonzero" transform="matrix(0.11518848,0,0,0.11518848,5768.8276,1749.746)" fill="#FFF"/>
	<path style="enable-background:accumulate;color:#000000;" d="m3394.3,470a21.429,21.429,0,1,1,-42.857,0,21.429,21.429,0,1,1,42.857,0z" fill-rule="nonzero" transform="matrix(0.14499116,0,0,0.14499116,5666.5966,1815.3289)" fill="#FFF"/>
	<path style="enable-background:accumulate;color:#000000;" d="m3394.3,470a21.429,21.429,0,1,1,-42.857,0,21.429,21.429,0,1,1,42.857,0z" fill-rule="nonzero" transform="matrix(0.15579081,0,0,0.15579081,5147.7806,1904.9334)" fill="#FFF"/>
	<path style="enable-background:accumulate;color:#000000;" d="m3394.3,470a21.429,21.429,0,1,1,-42.857,0,21.429,21.429,0,1,1,42.857,0z" fill-rule="nonzero" transform="matrix(0.16974519,0,0,0.16974519,4629.6806,1844.8733)" fill="#FFF"/>
	<path style="enable-background:accumulate;color:#000000;" d="m3394.3,470a21.429,21.429,0,1,1,-42.857,0,21.429,21.429,0,1,1,42.857,0z" fill-rule="nonzero" transform="matrix(0.09292256,0,0,0.09292256,4602.9296,2155.5609)" fill="#FFF"/>
	<path style="enable-background:accumulate;color:#000000;" d="m3394.3,470a21.429,21.429,0,1,1,-42.857,0,21.429,21.429,0,1,1,42.857,0z" fill-rule="nonzero" transform="matrix(0.11687211,0,0,0.11687211,4526.8236,2212.6123)" fill="#FFF"/>
	<path style="enable-background:accumulate;color:#000000;" d="m3394.3,470a21.429,21.429,0,1,1,-42.857,0,21.429,21.429,0,1,1,42.857,0z" fill-rule="nonzero" transform="matrix(0.14524929,0,0,0.14524929,4412.8976,1909.7074)" fill="#FFF"/>
	<path style="enable-background:accumulate;color:#000000;" d="m3394.3,470a21.429,21.429,0,1,1,-42.857,0,21.429,21.429,0,1,1,42.857,0z" fill-rule="nonzero" transform="matrix(0.16316462,0,0,0.16316462,4080.5262,1880.49)" fill="#FFF"/>
	<path style="enable-background:accumulate;color:#000000;" d="m3394.3,470a21.429,21.429,0,1,1,-42.857,0,21.429,21.429,0,1,1,42.857,0z" fill-rule="nonzero" transform="matrix(0.16991913,0,0,0.16991913,3880.9862,1654.6266)" fill="#FFF"/>
	<path style="enable-background:accumulate;color:#000000;" d="m3394.3,470a21.429,21.429,0,1,1,-42.857,0,21.429,21.429,0,1,1,42.857,0z" fill-rule="nonzero" transform="matrix(0.08266492,0,0,0.08266492,4039.0237,1777.6221)" fill="#FFF"/>
	<path style="enable-background:accumulate;color:#000000;" d="m3394.3,470a21.429,21.429,0,1,1,-42.857,0,21.429,21.429,0,1,1,42.857,0z" fill-rule="nonzero" transform="matrix(0.08778048,0,0,0.08778048,3660.5502,1749.2802)" fill="#FFF"/>
	<path style="enable-background:accumulate;color:#000000;" d="m3394.3,470a21.429,21.429,0,1,1,-42.857,0,21.429,21.429,0,1,1,42.857,0z" fill-rule="nonzero" transform="matrix(0.18466773,0,0,0.18466773,2510.293,1549.303)" fill="#FFF"/>
	<path style="enable-background:accumulate;color:#000000;" d="m3394.3,470a21.429,21.429,0,1,1,-42.857,0,21.429,21.429,0,1,1,42.857,0z" fill-rule="nonzero" transform="matrix(0.09341474,0,0,0.09341474,2836.1134,1881.7064)" fill="#FFF"/>
	<path style="enable-background:accumulate;color:#000000;" d="m3394.3,470a21.429,21.429,0,1,1,-42.857,0,21.429,21.429,0,1,1,42.857,0z" fill-rule="nonzero" transform="matrix(0.17318668,0,0,0.17318668,2353.2227,1920.9019)" fill="#FFF"/>
	<path style="enable-background:accumulate;color:#000000;" d="m3394.3,470a21.429,21.429,0,1,1,-42.857,0,21.429,21.429,0,1,1,42.857,0z" fill-rule="nonzero" transform="matrix(0.1848726,0,0,0.1848726,1854.8311,1602.7262)" fill="#FFF"/>
	<path style="enable-background:accumulate;color:#000000;" d="m3394.3,470a21.429,21.429,0,1,1,-42.857,0,21.429,21.429,0,1,1,42.857,0z" fill-rule="nonzero" transform="matrix(0.10904741,0,0,0.10904741,1595.0466,1984.0964)" fill="#FFF"/>
	<path style="enable-background:accumulate;color:#000000;" d="m3394.3,470a21.429,21.429,0,1,1,-42.857,0,21.429,21.429,0,1,1,42.857,0z" fill-rule="nonzero" transform="matrix(0.1651182,0,0,0.1651182,1462.5719,2038.6314)" fill="#FFF"/>
	<path style="enable-background:accumulate;color:#000000;" d="m3394.3,470a21.429,21.429,0,1,1,-42.857,0,21.429,21.429,0,1,1,42.857,0z" fill-rule="nonzero" transform="matrix(0.15743923,0,0,0.15743923,1606.2899,1669.1932)" fill="#FFF"/>
	<path style="enable-background:accumulate;color:#000000;" d="m3394.3,470a21.429,21.429,0,1,1,-42.857,0,21.429,21.429,0,1,1,42.857,0z" fill-rule="nonzero" transform="matrix(0.17842931,0,0,0.17842931,1328.1901,1794.3967)" fill="#FFF"/>
	<path style="enable-background:accumulate;color:#000000;" d="m3394.3,470a21.429,21.429,0,1,1,-42.857,0,21.429,21.429,0,1,1,42.857,0z" fill-rule="nonzero" transform="matrix(0.12400391,0,0,0.12400391,1452.559,1852.4434)" fill="#FFF"/>
	<path style="enable-background:accumulate;color:#000000;" d="m3394.3,470a21.429,21.429,0,1,1,-42.857,0,21.429,21.429,0,1,1,42.857,0z" fill-rule="nonzero" transform="matrix(0.17094118,0,0,0.17094118,622.93556,1593.4259)" fill="#FFF"/>
	<path style="enable-background:accumulate;color:#000000;" d="m3394.3,470a21.429,21.429,0,1,1,-42.857,0,21.429,21.429,0,1,1,42.857,0z" fill-rule="nonzero" transform="matrix(0.15346845,0,0,0.15346845,790.70956,1889.3372)" fill="#FFF"/>
	<path style="enable-background:accumulate;color:#000000;" d="m3394.3,470a21.429,21.429,0,1,1,-42.857,0,21.429,21.429,0,1,1,42.857,0z" fill-rule="nonzero" transform="matrix(0.13529996,0,0,0.13529996,-412.50144,2269.7059)" fill="#FFF"/>
	<path style="enable-background:accumulate;color:#000000;" d="m3394.3,470a21.429,21.429,0,1,1,-42.857,0,21.429,21.429,0,1,1,42.857,0z" fill-rule="nonzero" transform="matrix(0.12256618,0,0,0.12256618,-305.28334,2190.4727)" fill="#FFF"/>
	<path style="enable-background:accumulate;color:#000000;" d="m3394.3,470a21.429,21.429,0,1,1,-42.857,0,21.429,21.429,0,1,1,42.857,0z" fill-rule="nonzero" transform="matrix(0.16151573,0,0,0.16151573,-541.30844,2198.0937)" fill="#FFF"/>
	<path style="enable-background:accumulate;color:#000000;" d="m3394.3,470a21.429,21.429,0,1,1,-42.857,0,21.429,21.429,0,1,1,42.857,0z" fill-rule="nonzero" transform="matrix(0.095145,0,0,0.095145,-265.53384,2468.7216)" fill="#FFF"/>
	<path style="enable-background:accumulate;color:#000000;" d="m3394.3,470a21.429,21.429,0,1,1,-42.857,0,21.429,21.429,0,1,1,42.857,0z" fill-rule="nonzero" transform="matrix(0.10434861,0,0,0.10434861,-296.59854,2022.9135)" fill="#FFF"/>
	<path style="enable-background:accumulate;color:#000000;" d="m3394.3,470a21.429,21.429,0,1,1,-42.857,0,21.429,21.429,0,1,1,42.857,0z" fill-rule="nonzero" transform="matrix(0.18910794,0,0,0.18910794,-171.23834,2381.1723)" fill="#FFF"/>
	<path style="enable-background:accumulate;color:#000000;" d="m3394.3,470a21.429,21.429,0,1,1,-42.857,0,21.429,21.429,0,1,1,42.857,0z" fill-rule="nonzero" transform="matrix(0.09160981,0,0,0.09160981,113.17926,2676.702)" fill="#FFF"/>
	<path style="enable-background:accumulate;color:#000000;" d="m3394.3,470a21.429,21.429,0,1,1,-42.857,0,21.429,21.429,0,1,1,42.857,0z" fill-rule="nonzero" transform="matrix(0.13859863,0,0,0.13859863,147.06356,2355.2477)" fill="#FFF"/>
	<path style="enable-background:accumulate;color:#000000;" d="m3394.3,470a21.429,21.429,0,1,1,-42.857,0,21.429,21.429,0,1,1,42.857,0z" fill-rule="nonzero" transform="matrix(0.13177726,0,0,0.13177726,403.68976,2510.6551)" fill="#FFF"/>
	<path style="enable-background:accumulate;color:#000000;" d="m3394.3,470a21.429,21.429,0,1,1,-42.857,0,21.429,21.429,0,1,1,42.857,0z" fill-rule="nonzero" transform="matrix(0.11994408,0,0,0.11994408,1015.3792,2505.1437)" fill="#FFF"/>
	<path style="enable-background:accumulate;color:#000000;" d="m3394.3,470a21.429,21.429,0,1,1,-42.857,0,21.429,21.429,0,1,1,42.857,0z" fill-rule="nonzero" transform="matrix(0.1302525,0,0,0.1302525,752.45306,2567.732)" fill="#FFF"/>
	<path style="enable-background:accumulate;color:#000000;" d="m3394.3,470a21.429,21.429,0,1,1,-42.857,0,21.429,21.429,0,1,1,42.857,0z" fill-rule="nonzero" transform="matrix(0.13714359,0,0,0.13714359,828.95176,2446.4092)" fill="#FFF"/>
	<path style="enable-background:accumulate;color:#000000;" d="m3394.3,470a21.429,21.429,0,1,1,-42.857,0,21.429,21.429,0,1,1,42.857,0z" fill-rule="nonzero" transform="matrix(0.11863051,0,0,0.11863051,1037.4582,2223.5698)" fill="#FFF"/>
	<path style="enable-background:accumulate;color:#000000;" d="m3394.3,470a21.429,21.429,0,1,1,-42.857,0,21.429,21.429,0,1,1,42.857,0z" fill-rule="nonzero" transform="matrix(0.13385625,0,0,0.13385625,1251.6932,2127.3986)" fill="#FFF"/>
	<path style="enable-background:accumulate;color:#000000;" d="m3394.3,470a21.429,21.429,0,1,1,-42.857,0,21.429,21.429,0,1,1,42.857,0z" fill-rule="nonzero" transform="matrix(0.11486846,0,0,0.11486846,1437.2154,2265.0094)" fill="#FFF"/>
	<path style="enable-background:accumulate;color:#000000;" d="m3394.3,470a21.429,21.429,0,1,1,-42.857,0,21.429,21.429,0,1,1,42.857,0z" fill-rule="nonzero" transform="matrix(0.0849511,0,0,0.0849511,2076.2698,2516.2315)" fill="#FFF"/>
	<path style="enable-background:accumulate;color:#000000;" d="m3394.3,470a21.429,21.429,0,1,1,-42.857,0,21.429,21.429,0,1,1,42.857,0z" fill-rule="nonzero" transform="matrix(0.12598311,0,0,0.12598311,2324.3925,2353.4327)" fill="#FFF"/>
	<path style="enable-background:accumulate;color:#000000;" d="m3394.3,470a21.429,21.429,0,1,1,-42.857,0,21.429,21.429,0,1,1,42.857,0z" fill-rule="nonzero" transform="matrix(0.11100413,0,0,0.11100413,2601.1477,2342.7148)" fill="#FFF"/>
	<path style="enable-background:accumulate;color:#000000;" d="m3394.3,470a21.429,21.429,0,1,1,-42.857,0,21.429,21.429,0,1,1,42.857,0z" fill-rule="nonzero" transform="matrix(0.18359383,0,0,0.18359383,2579.2362,2399.6748)" fill="#FFF"/>
	<path style="enable-background:accumulate;color:#000000;" d="m3394.3,470a21.429,21.429,0,1,1,-42.857,0,21.429,21.429,0,1,1,42.857,0z" fill-rule="nonzero" transform="matrix(0.16275857,0,0,0.16275857,3010.2062,2242.5971)" fill="#FFF"/>
	<path style="enable-background:accumulate;color:#000000;" d="m3394.3,470a21.429,21.429,0,1,1,-42.857,0,21.429,21.429,0,1,1,42.857,0z" fill-rule="nonzero" transform="matrix(0.14268391,0,0,0.14268391,3479.0574,2430.7451)" fill="#FFF"/>
	<path style="enable-background:accumulate;color:#000000;" d="m3394.3,470a21.429,21.429,0,1,1,-42.857,0,21.429,21.429,0,1,1,42.857,0z" fill-rule="nonzero" transform="matrix(0.10116433,0,0,0.10116433,4257.2616,2345.8907)" fill="#FFF"/>
	<path style="enable-background:accumulate;color:#000000;" d="m3394.3,470a21.429,21.429,0,1,1,-42.857,0,21.429,21.429,0,1,1,42.857,0z" fill-rule="nonzero" transform="matrix(0.14456343,0,0,0.14456343,4799.5416,2391.0604)" fill="#FFF"/>
	<path style="enable-background:accumulate;color:#000000;" d="m3394.3,470a21.429,21.429,0,1,1,-42.857,0,21.429,21.429,0,1,1,42.857,0z" fill-rule="nonzero" transform="matrix(0.08710874,0,0,0.08710874,4971.8316,2179.6179)" fill="#FFF"/>
	<path style="enable-background:accumulate;color:#000000;" d="m3394.3,470a21.429,21.429,0,1,1,-42.857,0,21.429,21.429,0,1,1,42.857,0z" fill-rule="nonzero" transform="matrix(0.14204464,0,0,0.14204464,5300.7516,2400.0905)" fill="#FFF"/>
	<path style="enable-background:accumulate;color:#000000;" d="m3394.3,470a21.429,21.429,0,1,1,-42.857,0,21.429,21.429,0,1,1,42.857,0z" fill-rule="nonzero" transform="matrix(0.18804199,0,0,0.18804199,5635.5496,2427.8139)" fill="#FFF"/>
	<path style="enable-background:accumulate;color:#000000;" d="m3394.3,470a21.429,21.429,0,1,1,-42.857,0,21.429,21.429,0,1,1,42.857,0z" fill-rule="nonzero" transform="matrix(0.16131992,0,0,0.16131992,5994.6356,2348.4668)" fill="#FFF"/>
	<path style="enable-background:accumulate;color:#000000;" d="m3394.3,470a21.429,21.429,0,1,1,-42.857,0,21.429,21.429,0,1,1,42.857,0z" fill-rule="nonzero" transform="matrix(0.15839873,0,0,0.15839873,5682.8466,2432.0308)" fill="#FFF"/>
	<path style="enable-background:accumulate;color:#000000;" d="m3394.3,470a21.429,21.429,0,1,1,-42.857,0,21.429,21.429,0,1,1,42.857,0z" fill-rule="nonzero" transform="matrix(0.13187703,0,0,0.13187703,5834.2716,2228.2823)" fill="#FFF"/>
	<path style="enable-background:accumulate;color:#000000;" d="m3394.3,470a21.429,21.429,0,1,1,-42.857,0,21.429,21.429,0,1,1,42.857,0z" fill-rule="nonzero" transform="matrix(0.12276604,0,0,0.12276604,5936.3476,2420.6876)" fill="#FFF"/>
	<path style="enable-background:accumulate;color:#000000;" d="m3394.3,470a21.429,21.429,0,1,1,-42.857,0,21.429,21.429,0,1,1,42.857,0z" fill-rule="nonzero" transform="matrix(0.15071672,0,0,0.15071672,6079.0286,2502.143)" fill="#FFF"/>
	<path style="enable-background:accumulate;color:#000000;" d="m3394.3,470a21.429,21.429,0,1,1,-42.857,0,21.429,21.429,0,1,1,42.857,0z" fill-rule="nonzero" transform="matrix(0.18794256,0,0,0.18794256,5750.6326,2690.1939)" fill="#FFF"/>
	<path style="enable-background:accumulate;color:#000000;" d="m3394.3,470a21.429,21.429,0,1,1,-42.857,0,21.429,21.429,0,1,1,42.857,0z" fill-rule="nonzero" transform="matrix(0.14332432,0,0,0.14332432,5824.3026,2713.5518)" fill="#FFF"/>
	<path style="enable-background:accumulate;color:#000000;" d="m3394.3,470a21.429,21.429,0,1,1,-42.857,0,21.429,21.429,0,1,1,42.857,0z" fill-rule="nonzero" transform="matrix(0.16647845,0,0,0.16647845,5604.1376,2852.3537)" fill="#FFF"/>
	<path style="enable-background:accumulate;color:#000000;" d="m3394.3,470a21.429,21.429,0,1,1,-42.857,0,21.429,21.429,0,1,1,42.857,0z" fill-rule="nonzero" transform="matrix(0.11913913,0,0,0.11913913,5615.5716,2666.5657)" fill="#FFF"/>
	<path style="enable-background:accumulate;color:#000000;" d="m3394.3,470a21.429,21.429,0,1,1,-42.857,0,21.429,21.429,0,1,1,42.857,0z" fill-rule="nonzero" transform="matrix(0.12715332,0,0,0.12715332,5794.5406,3014.5354)" fill="#FFF"/>
	<path style="enable-background:accumulate;color:#000000;" d="m3394.3,470a21.429,21.429,0,1,1,-42.857,0,21.429,21.429,0,1,1,42.857,0z" fill-rule="nonzero" transform="matrix(0.17525083,0,0,0.17525083,5237.0206,2738.443)" fill="#FFF"/>
	<path style="enable-background:accumulate;color:#000000;" d="m3394.3,470a21.429,21.429,0,1,1,-42.857,0,21.429,21.429,0,1,1,42.857,0z" fill-rule="nonzero" transform="matrix(0.10878716,0,0,0.10878716,5706.8636,2908.0097)" fill="#FFF"/>
	<path style="enable-background:accumulate;color:#000000;" d="m3394.3,470a21.429,21.429,0,1,1,-42.857,0,21.429,21.429,0,1,1,42.857,0z" fill-rule="nonzero" transform="matrix(0.15468031,0,0,0.15468031,5307.6146,2886.2013)" fill="#FFF"/>
	<path style="enable-background:accumulate;color:#000000;" d="m3394.3,470a21.429,21.429,0,1,1,-42.857,0,21.429,21.429,0,1,1,42.857,0z" fill-rule="nonzero" transform="matrix(0.17727353,0,0,0.17727353,5429.8096,2868.6815)" fill="#FFF"/>
	<path style="enable-background:accumulate;color:#000000;" d="m3394.3,470a21.429,21.429,0,1,1,-42.857,0,21.429,21.429,0,1,1,42.857,0z" fill-rule="nonzero" transform="matrix(0.12607155,0,0,0.12607155,5037.0156,3174.6303)" fill="#FFF"/>
	<path style="enable-background:accumulate;color:#000000;" d="m3394.3,470a21.429,21.429,0,1,1,-42.857,0,21.429,21.429,0,1,1,42.857,0z" fill-rule="nonzero" transform="matrix(0.14451919,0,0,0.14451919,4761.5436,2646.694)" fill="#FFF"/>
	<path style="enable-background:accumulate;color:#000000;" d="m3394.3,470a21.429,21.429,0,1,1,-42.857,0,21.429,21.429,0,1,1,42.857,0z" fill-rule="nonzero" transform="matrix(0.10916596,0,0,0.10916596,4525.8196,2947.4547)" fill="#FFF"/>
	<path style="enable-background:accumulate;color:#000000;" d="m3394.3,470a21.429,21.429,0,1,1,-42.857,0,21.429,21.429,0,1,1,42.857,0z" fill-rule="nonzero" transform="matrix(0.18144779,0,0,0.18144779,4150.2028,2781.3867)" fill="#FFF"/>
	<path style="enable-background:accumulate;color:#000000;" d="m3394.3,470a21.429,21.429,0,1,1,-42.857,0,21.429,21.429,0,1,1,42.857,0z" fill-rule="nonzero" transform="matrix(0.1208429,0,0,0.1208429,4036.4673,2749.7816)" fill="#FFF"/>
	<path style="enable-background:accumulate;color:#000000;" d="m3394.3,470a21.429,21.429,0,1,1,-42.857,0,21.429,21.429,0,1,1,42.857,0z" fill-rule="nonzero" transform="matrix(0.12873518,0,0,0.12873518,3498.375,2915.4677)" fill="#FFF"/>
	<path style="enable-background:accumulate;color:#000000;" d="m3394.3,470a21.429,21.429,0,1,1,-42.857,0,21.429,21.429,0,1,1,42.857,0z" fill-rule="nonzero" transform="matrix(0.0874978,0,0,0.0874978,3503.9111,2448.1551)" fill="#FFF"/>
	<path style="enable-background:accumulate;color:#000000;" d="m3394.3,470a21.429,21.429,0,1,1,-42.857,0,21.429,21.429,0,1,1,42.857,0z" fill-rule="nonzero" transform="matrix(0.11130977,0,0,0.11130977,2658.7476,2818.1289)" fill="#FFF"/>
	<path style="enable-background:accumulate;color:#000000;" d="m3394.3,470a21.429,21.429,0,1,1,-42.857,0,21.429,21.429,0,1,1,42.857,0z" fill-rule="nonzero" transform="matrix(0.11931407,0,0,0.11931407,2650.3132,2790.0108)" fill="#FFF"/>
	<path style="enable-background:accumulate;color:#000000;" d="m3394.3,470a21.429,21.429,0,1,1,-42.857,0,21.429,21.429,0,1,1,42.857,0z" fill-rule="nonzero" transform="matrix(0.11095987,0,0,0.11095987,2454.3721,2596.8853)" fill="#FFF"/>
	<path style="enable-background:accumulate;color:#000000;" d="m3394.3,470a21.429,21.429,0,1,1,-42.857,0,21.429,21.429,0,1,1,42.857,0z" fill-rule="nonzero" transform="matrix(0.14700359,0,0,0.14700359,2500.5563,2667.3249)" fill="#FFF"/>
	<path style="enable-background:accumulate;color:#000000;" d="m3394.3,470a21.429,21.429,0,1,1,-42.857,0,21.429,21.429,0,1,1,42.857,0z" fill-rule="nonzero" transform="matrix(0.18155355,0,0,0.18155355,2298.9454,2621.7935)" fill="#FFF"/>
	<path style="enable-background:accumulate;color:#000000;" d="m3394.3,470a21.429,21.429,0,1,1,-42.857,0,21.429,21.429,0,1,1,42.857,0z" fill-rule="nonzero" transform="matrix(0.13194139,0,0,0.13194139,1928.1095,2775.1623)" fill="#FFF"/>
	<path style="enable-background:accumulate;color:#000000;" d="m3394.3,470a21.429,21.429,0,1,1,-42.857,0,21.429,21.429,0,1,1,42.857,0z" fill-rule="nonzero" transform="matrix(0.10484858,0,0,0.10484858,2016.159,2552.7366)" fill="#FFF"/>
	<path style="enable-background:accumulate;color:#000000;" d="m3394.3,470a21.429,21.429,0,1,1,-42.857,0,21.429,21.429,0,1,1,42.857,0z" fill-rule="nonzero" transform="matrix(0.13387661,0,0,0.13387661,1683.1608,2653.0704)" fill="#FFF"/>
	<path style="enable-background:accumulate;color:#000000;" d="m3394.3,470a21.429,21.429,0,1,1,-42.857,0,21.429,21.429,0,1,1,42.857,0z" fill-rule="nonzero" transform="matrix(0.08348001,0,0,0.08348001,1454.6276,2672.7602)" fill="#FFF"/>
	<path style="enable-background:accumulate;color:#000000;" d="m3394.3,470a21.429,21.429,0,1,1,-42.857,0,21.429,21.429,0,1,1,42.857,0z" fill-rule="nonzero" transform="matrix(0.18091742,0,0,0.18091742,776.78516,2675.454)" fill="#FFF"/>
	<path style="enable-background:accumulate;color:#000000;" d="m3394.3,470a21.429,21.429,0,1,1,-42.857,0,21.429,21.429,0,1,1,42.857,0z" fill-rule="nonzero" transform="matrix(0.1070449,0,0,0.1070449,818.74636,2827.3543)" fill="#FFF"/>
	<path style="enable-background:accumulate;color:#000000;" d="m3394.3,470a21.429,21.429,0,1,1,-42.857,0,21.429,21.429,0,1,1,42.857,0z" fill-rule="nonzero" transform="matrix(0.17197792,0,0,0.17197792,49.537062,2654.1534)" fill="#FFF"/>
	<path style="enable-background:accumulate;color:#000000;" d="m3394.3,470a21.429,21.429,0,1,1,-42.857,0,21.429,21.429,0,1,1,42.857,0z" fill-rule="nonzero" transform="matrix(0.08497411,0,0,0.08497411,106.43316,2766.3143)" fill="#FFF"/>
	<path style="enable-background:accumulate;color:#000000;" d="m3394.3,470a21.429,21.429,0,1,1,-42.857,0,21.429,21.429,0,1,1,42.857,0z" fill-rule="nonzero" transform="matrix(0.13675973,0,0,0.13675973,-291.47464,2795.8772)" fill="#FFF"/>
	<path style="enable-background:accumulate;color:#000000;" d="m3394.3,470a21.429,21.429,0,1,1,-42.857,0,21.429,21.429,0,1,1,42.857,0z" fill-rule="nonzero" transform="matrix(0.18381459,0,0,0.18381459,-420.57114,3168.9072)" fill="#FFF"/>
	<path style="enable-background:accumulate;color:#000000;" d="m3394.3,470a21.429,21.429,0,1,1,-42.857,0,21.429,21.429,0,1,1,42.857,0z" fill-rule="nonzero" transform="matrix(0.1087802,0,0,0.1087802,110.21036,3185.2059)" fill="#FFF"/>
	<path style="enable-background:accumulate;color:#000000;" d="m3394.3,470a21.429,21.429,0,1,1,-42.857,0,21.429,21.429,0,1,1,42.857,0z" fill-rule="nonzero" transform="matrix(0.08469953,0,0,0.08469953,346.15606,3199.7719)" fill="#FFF"/>
	<path style="enable-background:accumulate;color:#000000;" d="m3394.3,470a21.429,21.429,0,1,1,-42.857,0,21.429,21.429,0,1,1,42.857,0z" fill-rule="nonzero" transform="matrix(0.11131986,0,0,0.11131986,-166.23564,3066.1241)" fill="#FFF"/>
	<path style="enable-background:accumulate;color:#000000;" d="m3394.3,470a21.429,21.429,0,1,1,-42.857,0,21.429,21.429,0,1,1,42.857,0z" fill-rule="nonzero" transform="matrix(0.18947965,0,0,0.18947965,51.554962,3105.1591)" fill="#FFF"/>
	<path style="enable-background:accumulate;color:#000000;" d="m3394.3,470a21.429,21.429,0,1,1,-42.857,0,21.429,21.429,0,1,1,42.857,0z" fill-rule="nonzero" transform="matrix(0.1307263,0,0,0.1307263,344.85866,3369.1627)" fill="#FFF"/>
	<path style="enable-background:accumulate;color:#000000;" d="m3394.3,470a21.429,21.429,0,1,1,-42.857,0,21.429,21.429,0,1,1,42.857,0z" fill-rule="nonzero" transform="matrix(0.10331589,0,0,0.10331589,643.10676,3225.1801)" fill="#FFF"/>
	<path style="enable-background:accumulate;color:#000000;" d="m3394.3,470a21.429,21.429,0,1,1,-42.857,0,21.429,21.429,0,1,1,42.857,0z" fill-rule="nonzero" transform="matrix(0.11725957,0,0,0.11725957,829.97596,3277.9693)" fill="#FFF"/>
	<path style="enable-background:accumulate;color:#000000;" d="m3394.3,470a21.429,21.429,0,1,1,-42.857,0,21.429,21.429,0,1,1,42.857,0z" fill-rule="nonzero" transform="matrix(0.13206939,0,0,0.13206939,723.32956,3035.38)" fill="#FFF"/>
	<path style="enable-background:accumulate;color:#000000;" d="m3394.3,470a21.429,21.429,0,1,1,-42.857,0,21.429,21.429,0,1,1,42.857,0z" fill-rule="nonzero" transform="matrix(0.17005933,0,0,0.17005933,788.86456,3175.4698)" fill="#FFF"/>
	<path style="enable-background:accumulate;color:#000000;" d="m3394.3,470a21.429,21.429,0,1,1,-42.857,0,21.429,21.429,0,1,1,42.857,0z" fill-rule="nonzero" transform="matrix(0.18043102,0,0,0.18043102,964.69526,3168.6142)" fill="#FFF"/>
	<path style="enable-background:accumulate;color:#000000;" d="m3394.3,470a21.429,21.429,0,1,1,-42.857,0,21.429,21.429,0,1,1,42.857,0z" fill-rule="nonzero" transform="matrix(0.17033794,0,0,0.17033794,1085.1165,3296.8624)" fill="#FFF"/>
	<path style="enable-background:accumulate;color:#000000;" d="m3394.3,470a21.429,21.429,0,1,1,-42.857,0,21.429,21.429,0,1,1,42.857,0z" fill-rule="nonzero" transform="matrix(0.15575472,0,0,0.15575472,1972.4493,2972.6498)" fill="#FFF"/>
	<path style="enable-background:accumulate;color:#000000;" d="m3394.3,470a21.429,21.429,0,1,1,-42.857,0,21.429,21.429,0,1,1,42.857,0z" fill-rule="nonzero" transform="matrix(0.09225656,0,0,0.09225656,2629.065,3288.8792)" fill="#FFF"/>
	<path style="enable-background:accumulate;color:#000000;" d="m3394.3,470a21.429,21.429,0,1,1,-42.857,0,21.429,21.429,0,1,1,42.857,0z" fill-rule="nonzero" transform="matrix(0.1203325,0,0,0.1203325,2597.4299,3358.5265)" fill="#FFF"/>
	<path style="enable-background:accumulate;color:#000000;" d="m3394.3,470a21.429,21.429,0,1,1,-42.857,0,21.429,21.429,0,1,1,42.857,0z" fill-rule="nonzero" transform="matrix(0.11284043,0,0,0.11284043,2975.5157,3054.9448)" fill="#FFF"/>
	<path style="enable-background:accumulate;color:#000000;" d="m3394.3,470a21.429,21.429,0,1,1,-42.857,0,21.429,21.429,0,1,1,42.857,0z" fill-rule="nonzero" transform="matrix(0.19052403,0,0,0.19052403,2914.8031,3343.9962)" fill="#FFF"/>
	<path style="enable-background:accumulate;color:#000000;" d="m3394.3,470a21.429,21.429,0,1,1,-42.857,0,21.429,21.429,0,1,1,42.857,0z" fill-rule="nonzero" transform="matrix(0.16094954,0,0,0.16094954,3156.1595,3000.4062)" fill="#FFF"/>
	<path style="enable-background:accumulate;color:#000000;" d="m3394.3,470a21.429,21.429,0,1,1,-42.857,0,21.429,21.429,0,1,1,42.857,0z" fill-rule="nonzero" transform="matrix(0.18635945,0,0,0.18635945,3278.7832,3339.7013)" fill="#FFF"/>
	<path style="enable-background:accumulate;color:#000000;" d="m3394.3,470a21.429,21.429,0,1,1,-42.857,0,21.429,21.429,0,1,1,42.857,0z" fill-rule="nonzero" transform="matrix(0.10077658,0,0,0.10077658,3694.5058,3061.2649)" fill="#FFF"/>
	<path style="enable-background:accumulate;color:#000000;" d="m3394.3,470a21.429,21.429,0,1,1,-42.857,0,21.429,21.429,0,1,1,42.857,0z" fill-rule="nonzero" transform="matrix(0.16009977,0,0,0.16009977,4506.4976,2917.1072)" fill="#FFF"/>
	<path style="enable-background:accumulate;color:#000000;" d="m3394.3,470a21.429,21.429,0,1,1,-42.857,0,21.429,21.429,0,1,1,42.857,0z" fill-rule="nonzero" transform="matrix(0.16691488,0,0,0.16691488,4476.6186,3047.1544)" fill="#FFF"/>
	<path style="enable-background:accumulate;color:#000000;" d="m3394.3,470a21.429,21.429,0,1,1,-42.857,0,21.429,21.429,0,1,1,42.857,0z" fill-rule="nonzero" transform="matrix(0.12193032,0,0,0.12193032,4758.3226,3092.5798)" fill="#FFF"/>
	<path style="enable-background:accumulate;color:#000000;" d="m3394.3,470a21.429,21.429,0,1,1,-42.857,0,21.429,21.429,0,1,1,42.857,0z" fill-rule="nonzero" transform="matrix(0.14543214,0,0,0.14543214,4995.8146,3096.1289)" fill="#FFF"/>
	<path style="enable-background:accumulate;color:#000000;" d="m3394.3,470a21.429,21.429,0,1,1,-42.857,0,21.429,21.429,0,1,1,42.857,0z" fill-rule="nonzero" transform="matrix(0.10025958,0,0,0.10025958,5063.4936,3174.1955)" fill="#FFF"/>
	<path style="enable-background:accumulate;color:#000000;" d="m3394.3,470a21.429,21.429,0,1,1,-42.857,0,21.429,21.429,0,1,1,42.857,0z" fill-rule="nonzero" transform="matrix(0.11069,0,0,0.11069,5598.9456,3384.2204)" fill="#FFF"/>
	<path style="enable-background:accumulate;color:#000000;" d="m3394.3,470a21.429,21.429,0,1,1,-42.857,0,21.429,21.429,0,1,1,42.857,0z" fill-rule="nonzero" transform="matrix(0.16815781,0,0,0.16815781,5920.9906,3102.1204)" fill="#FFF"/>
	<path style="enable-background:accumulate;color:#000000;" d="m3394.3,470a21.429,21.429,0,1,1,-42.857,0,21.429,21.429,0,1,1,42.857,0z" fill-rule="nonzero" transform="matrix(0.15885942,0,0,0.15885942,5730.7566,2993.4786)" fill="#FFF"/>
	<path style="enable-background:accumulate;color:#000000;" d="m3394.3,470a21.429,21.429,0,1,1,-42.857,0,21.429,21.429,0,1,1,42.857,0z" fill-rule="nonzero" transform="matrix(0.14485445,0,0,0.14485445,5853.9116,3229.1274)" fill="#FFF"/>
	<path style="enable-background:accumulate;color:#000000;" d="m3394.3,470a21.429,21.429,0,1,1,-42.857,0,21.429,21.429,0,1,1,42.857,0z" fill-rule="nonzero" transform="matrix(0.09145802,0,0,0.09145802,6023.4776,2969.4566)" fill="#FFF"/>
	<path style="enable-background:accumulate;color:#000000;" d="m3394.3,470a21.429,21.429,0,1,1,-42.857,0,21.429,21.429,0,1,1,42.857,0z" fill-rule="nonzero" transform="matrix(0.08612519,0,0,0.08612519,6118.7456,3371.7577)" fill="#FFF"/>
</svg>
